<svg height="512pt" viewBox="-92 0 512 512" width="512pt" xmlns="http://www.w3.org/2000/svg"><path d="m292.402344 504.5h-256.773438c-15.535156 0-28.128906-12.59375-28.128906-28.128906v-440.742188c0-15.535156 12.59375-28.128906 28.128906-28.128906h256.769532c15.535156 0 28.132812 12.59375 28.132812 28.128906v440.742188c0 15.535156-12.59375 28.128906-28.128906 28.128906zm0 0" fill="#ffd86e"/><path d="m320.527344 35.632812v440.734376c0 15.535156-12.585938 28.132812-28.125 28.132812h-30.78125c15.535156 0 28.132812-12.597656 28.132812-28.132812v-440.734376c0-15.535156-12.597656-28.132812-28.132812-28.132812h30.78125c15.539062 0 28.125 12.597656 28.125 28.132812zm0 0" fill="#ffb509"/><path d="m292.402344 504.5h-256.773438c-15.535156 0-28.128906-12.59375-28.128906-28.128906v-41.832032h313.03125v41.832032c0 15.535156-12.59375 28.128906-28.128906 28.128906zm0 0" fill="#838383"/><path d="m320.53125 77.460938h-313.03125v-41.832032c0-15.535156 12.59375-28.128906 28.128906-28.128906h256.773438c15.535156 0 28.128906 12.59375 28.128906 28.128906zm0 0" fill="#838383"/><path d="m320.527344 434.539062v41.828126c0 15.535156-12.585938 28.132812-28.125 28.132812h-30.84375c15.539062 0 28.125-12.597656 28.125-28.132812v-41.828126zm0 0" fill="#5a5a5a"/><path d="m320.527344 35.632812v41.828126h-30.84375v-41.828126c0-15.535156-12.585938-28.132812-28.125-28.132812h30.84375c15.539062 0 28.125 12.597656 28.125 28.132812zm0 0" fill="#5a5a5a"/><path d="m278.753906 223.902344h-229.476562c-5.636719 0-10.207032-4.566406-10.207032-10.207032v-86.421874c0-5.636719 4.570313-10.203126 10.207032-10.203126h229.476562c5.636719 0 10.207032 4.566407 10.207032 10.203126v86.421874c0 5.636719-4.570313 10.207032-10.207032 10.207032zm0 0" fill="#c9f0ff"/><path d="m288.960938 127.269531v86.421875c0 5.636719-4.574219 10.210938-10.207032 10.210938h-27.535156c5.636719 0 10.210938-4.574219 10.210938-10.210938v-86.421875c0-5.636719-4.574219-10.199219-10.210938-10.199219h27.535156c5.632813 0 10.207032 4.5625 10.207032 10.199219zm0 0" fill="#9ae7fd"/><path d="m63.203125 223.28125 70.46875-70.433594c2.042969-2.042968 5.382813-1.941406 7.296875.214844l62.304688 70.21875zm0 0" fill="#80e0dc"/><path d="m151.445312 223.28125 56.324219-56.296875c2.039063-2.042969 5.378907-1.941406 7.296875.21875l49.757813 56.078125zm0 0" fill="#80e0dc"/><path d="m143.453125 32.847656h-20.5625c-4.140625 0-7.496094 3.355469-7.496094 7.5 0 4.140625 3.355469 7.5 7.496094 7.5h20.5625c4.140625 0 7.5-3.359375 7.5-7.5 0-4.144531-3.359375-7.5-7.5-7.5zm0 0"/><path d="m205.140625 32.847656h-37.960937c-4.140626 0-7.5 3.355469-7.5 7.5 0 4.140625 3.359374 7.5 7.5 7.5h37.960937c4.140625 0 7.496094-3.359375 7.496094-7.5 0-4.144531-3.355469-7.5-7.496094-7.5zm0 0"/><path d="m49.277344 124.566406h56.5625c4.140625 0 7.496094-3.355468 7.496094-7.496094 0-4.144531-3.355469-7.5-7.496094-7.5h-56.5625c-9.765625 0-17.707032 7.941407-17.707032 17.703126v86.421874c0 9.765626 7.941407 17.707032 17.707032 17.707032h229.476562c9.761719 0 17.707032-7.941406 17.707032-17.707032v-86.421874c0-9.761719-7.945313-17.703126-17.707032-17.703126h-127.308594c-4.140624 0-7.5 3.355469-7.5 7.5 0 4.140626 3.359376 7.496094 7.5 7.496094h127.308594c1.492188 0 2.707032 1.214844 2.707032 2.707032v86.421874c0 1.496094-1.214844 2.710938-2.707032 2.710938h-10.003906l-48.074219-54.179688c-2.28125-2.570312-5.554687-4.101562-8.988281-4.203124-3.417969-.109376-6.789062 1.226562-9.21875 3.65625l-23.226562 23.21875-32.664063-36.808594c-2.277344-2.570313-5.550781-4.101563-8.984375-4.207032-3.445312-.105468-6.792969 1.230469-9.222656 3.660157l-68.894532 68.859375h-10.199218c-1.496094 0-2.707032-1.214844-2.707032-2.707032v-86.421874c0-1.492188 1.210938-2.707032 2.707032-2.707032zm87.832031 35.445313 40.722656 45.898437c2.75 3.097656 7.492188 3.378906 10.589844.632813 3.035156-2.699219 3.359375-7.300781.78125-10.398438l22-21.996093 37.496094 42.253906h-168.007813zm0 0"/><path d="m292.402344 0h-256.773438c-19.644531 0-35.628906 15.980469-35.628906 35.628906v286.070313c0 4.140625 3.359375 7.496093 7.5 7.496093s7.496094-3.355468 7.496094-7.496093v-236.738281h298.035156v342.078124h-298.035156v-57.195312c0-4.144531-3.355469-7.5-7.496094-7.5s-7.5 3.355469-7.5 7.5v106.527344c0 19.644531 15.984375 35.628906 35.628906 35.628906h256.769532c19.648437 0 35.628906-15.980469 35.628906-35.628906v-440.742188c0-19.648437-15.980469-35.628906-35.625-35.628906zm20.628906 476.371094c0 11.375-9.253906 20.632812-20.632812 20.632812h-256.769532c-11.375 0-20.632812-9.257812-20.632812-20.632812v-34.332032h298.035156zm0-406.410156h-298.035156v-34.332032c0-11.375 9.257812-20.632812 20.632812-20.632812h256.769532c11.378906 0 20.632812 9.257812 20.632812 20.632812zm0 0"/><path d="m141.949219 478.148438h44.132812c4.140625 0 7.5-3.355469 7.5-7.5 0-4.140626-3.359375-7.5-7.5-7.5h-44.132812c-4.140625 0-7.5 3.359374-7.5 7.5 0 4.144531 3.359375 7.5 7.5 7.5zm0 0"/><path d="m114.992188 254.519531h-66.324219c-4.140625 0-7.5 3.355469-7.5 7.5 0 4.140625 3.359375 7.5 7.5 7.5h66.324219c4.140624 0 7.5-3.359375 7.5-7.5 0-4.144531-3.359376-7.5-7.5-7.5zm0 0"/><path d="m181.316406 269.519531c4.140625 0 7.5-3.359375 7.5-7.5 0-4.144531-3.359375-7.5-7.5-7.5h-25.679687c-4.140625 0-7.496094 3.355469-7.496094 7.5 0 4.140625 3.355469 7.5 7.496094 7.5zm0 0"/><path d="m279.363281 254.519531h-60.558593c-4.140626 0-7.496094 3.355469-7.496094 7.5 0 4.140625 3.355468 7.5 7.496094 7.5h60.558593c4.140625 0 7.5-3.359375 7.5-7.5 0-4.144531-3.359375-7.5-7.5-7.5zm0 0"/><path d="m48.664062 312.109375h42.289063c4.140625 0 7.5-3.355469 7.5-7.496094 0-4.144531-3.359375-7.5-7.5-7.5h-42.289063c-4.140624 0-7.496093 3.355469-7.496093 7.5 0 4.140625 3.355469 7.496094 7.496093 7.496094zm0 0"/><path d="m113.011719 304.613281c0 4.140625 3.359375 7.496094 7.5 7.496094h76.664062c4.144531 0 7.5-3.355469 7.5-7.496094 0-4.144531-3.355469-7.5-7.5-7.5h-76.664062c-4.140625 0-7.5 3.359375-7.5 7.5zm0 0"/><path d="m279.363281 297.113281h-46.65625c-4.140625 0-7.496093 3.355469-7.496093 7.5 0 4.140625 3.355468 7.496094 7.496093 7.496094h46.65625c4.140625 0 7.5-3.355469 7.5-7.496094 0-4.144531-3.359375-7.5-7.5-7.5zm0 0"/><path d="m48.664062 351.296875h53.582032c4.140625 0 7.5-3.355469 7.5-7.496094 0-4.144531-3.359375-7.5-7.5-7.5h-53.582032c-4.140624 0-7.496093 3.355469-7.496093 7.5 0 4.140625 3.355469 7.496094 7.496093 7.496094zm0 0"/><path d="m234.769531 343.800781c0-4.144531-3.359375-7.5-7.5-7.5h-90.789062c-4.140625 0-7.5 3.355469-7.5 7.5 0 4.140625 3.359375 7.496094 7.5 7.496094h90.789062c4.140625 0 7.5-3.355469 7.5-7.496094zm0 0"/><path d="m279.363281 336.300781h-20.835937c-4.140625 0-7.5 3.355469-7.5 7.5 0 4.140625 3.359375 7.496094 7.5 7.496094h20.835937c4.140625 0 7.5-3.355469 7.5-7.496094 0-4.144531-3.359375-7.5-7.5-7.5zm0 0"/><path d="m48.664062 393.890625h92.28125c4.140626 0 7.5-3.355469 7.5-7.496094 0-4.144531-3.359374-7.5-7.5-7.5h-92.28125c-4.140624 0-7.496093 3.355469-7.496093 7.5 0 4.140625 3.355469 7.496094 7.496093 7.496094zm0 0"/><path d="m172.199219 378.894531c-4.140625 0-7.496094 3.355469-7.496094 7.5 0 4.140625 3.355469 7.496094 7.496094 7.496094h40.1875c4.140625 0 7.5-3.355469 7.5-7.496094 0-4.144531-3.359375-7.5-7.5-7.5zm0 0"/><path d="m240.667969 393.890625h38.695312c4.140625 0 7.5-3.355469 7.5-7.496094 0-4.144531-3.359375-7.5-7.5-7.5h-38.695312c-4.144531 0-7.5 3.355469-7.5 7.5 0 4.140625 3.355469 7.496094 7.5 7.496094zm0 0"/></svg>