<?xml version="1.0" encoding="utf-8"?>
<!-- Generator: Adobe Illustrator 16.0.0, SVG Export Plug-In . SVG Version: 6.00 Build 0)  -->
<!DOCTYPE svg PUBLIC "-//W3C//DTD SVG 1.1//EN" "http://www.w3.org/Graphics/SVG/1.1/DTD/svg11.dtd">
<svg version="1.1" id="Layer_1" xmlns="http://www.w3.org/2000/svg" xmlns:xlink="http://www.w3.org/1999/xlink" x="0px" y="0px"
	 width="189px" height="530px" viewBox="0 0 189 530" enable-background="new 0 0 189 530" xml:space="preserve">
<g>
	<path fill="#C9CBCF" d="M7.5,386.5L0,380v13 M55,473.5l-8-6.5v13 M6.5,473.5L14,480v-13 M26.5,389.5L33,383H20"/>
	<path fill="#C9CBCF" d="M6.5,341.5L0,348h13"/>
	<circle fill="#D1A684" cx="65" cy="405" r="3"/>
	<circle fill="#B4B8BC" cx="85" cy="405" r="3"/>
	<circle fill="#FFCC01" cx="105" cy="405" r="3"/>
	<path fill="#93999F" d="M47,367h2v2h-2 M50,370h2v2h-2 M56,370h2v2h-2 M62,370h2v2h-2 M68,370h2v2h-2 M53,367h2v2h-2 M59,367h2v2
		h-2 M65,367h2v2h-2 M71,367h2v2h-2"/>
	<path fill="#C9CBCF" d="M0,400v31h31v-31"/>
	<path fill="#FFFFFF" d="M20,419c4.667,2.229,7.738,6.835,8,12H3c0.265-5.164,3.334-9.77,8-12v-0.5
		c-3.319-2.469-4.009-7.16-1.54-10.479c1.419-1.909,3.661-3.03,6.04-3.021c4.142,0,7.5,3.357,7.5,7.5c0,2.36-1.111,4.584-3,6V419z"
		/>
	<path fill="#C9CBCF" d="M60,340h2v14h-2"/>
	<path fill="#C9CBCF" d="M63,341h10v8H63"/>
	<path fill="#DD3C4C" d="M60,320h2v14h-2"/>
	<path fill="#EEC4C8" d="M63,321h10v8H63"/>
	<path fill="#FE6502" d="M80,320h14v14H80"/>
	<path fill="#FFFFFF" d="M84,329c-1.36,0-2,0.641-2,2c0,0.359,0.64,1,2,1c0.36,0,1-0.641,1-1C85,329.641,84.36,329,84,329z M82,325
		v2c2.735,0.063,4.937,2.266,5,5h2C89.1,328.189,86.01,325.1,82,325z M82,322v2c4.363-0.056,7.944,3.436,8,7.799
		c0.001,0.066,0.001,0.134,0,0.201h2C92,326.52,87.48,322,82,322z"/>
	<path fill="#6C737A" d="M22.6,347.1l-0.7,3.2l3.2-0.7 M23.43,346.4l3.6-3.601l2.48,2.47l-3.6,3.601 M29.1,341.3
		c-0.4,0-0.8,0.101-1.1,0.4l-0.7,0.7l2.5,2.5l0.7-0.7c0.2-0.3,0.4-0.7,0.4-1.101C30.9,342.1,30.1,341.3,29.1,341.3z"/>
	<circle fill="#C91D2E" cx="107" cy="452" r="7"/>
	<path fill="#FFFFFF" d="M110.2,453.7l-1.9-1.9l1.9-1.899V449.6l-0.9-0.8H109l-2,2l-1.8-2h-0.3l-0.9,0.8v0.301l1.9,1.899l-1.9,1.9
		v0.3l0.9,0.9h0.3l1.899-1.9l1.9,1.9h0.3l0.9-0.9"/>
	<circle fill="#C91D2E" cx="47" cy="347" r="7"/>
	<path fill="#FFFFFF" d="M50.2,348.7l-1.9-1.9l1.9-1.899V344.6l-0.9-0.8H49l-2,2l-1.8-2h-0.3l-0.9,0.8v0.301l1.9,1.899l-1.9,1.9v0.3
		l0.9,0.9h0.3l1.9-1.9l1.9,1.9h0.3l0.9-0.9"/>
	<circle fill="#C9CBCF" cx="47" cy="326" r="7"/>
	<path fill="#222426" d="M33.9,518.6l-1.7-0.199c-1.3-0.101-1.9-0.601-1.9-1.601c0-1.1,0.8-1.8,2.4-1.8c1.1,0,2.1,0.3,2.8,0.8l1-1
		c-1-0.8-2.3-1.1-3.8-1.1c-2.3,0-3.9,1.2-3.9,3.1c0,1.8,1.1,2.7,3.2,2.9l1.8,0.2c1.2,0.1,1.8,0.6,1.8,1.6c0,1.3-1.1,1.9-2.8,1.9
		c-1.3,0-2.5-0.301-3.3-1.2l-1,1c1.2,1.1,2.6,1.5,4.4,1.5c2.6,0,4.3-1.2,4.3-3.2C37,519.5,35.7,518.8,33.9,518.6z M47.2,513.8
		c-1.7,0-2.8,0.3-3.7,1.5l1,1c0.6-0.899,1.3-1.2,2.7-1.2c1.9,0,2.7,0.801,2.7,2.301v1h-3.2c-2.4,0-3.7,1.199-3.7,3.1
		c0,0.8,0.3,1.6,0.8,2.2c0.7,0.7,1.5,1,3,1c1.4,0,2.2-0.3,3.1-1.101v1h1.6V517.4C51.4,515,50,513.8,47.2,513.8z M49.9,520.8
		c0,0.9-0.2,1.5-0.5,1.8c-0.7,0.601-1.5,0.7-2.4,0.7c-1.7,0-2.4-0.6-2.4-1.8s0.8-1.9,2.4-1.9h3L49.9,520.8z M57.5,515.2
		c1,0,1.6,0.3,2.4,1.2l1-1c-1.1-1.2-2-1.601-3.5-1.601c-2.7,0-4.7,1.8-4.7,5.5c0,3.601,2,5.5,4.7,5.5c1.5,0,2.4-0.399,3.5-1.6
		l-1.1-1c-0.8,0.899-1.4,1.2-2.4,1.2s-1.9-0.4-2.5-1.2c-0.5-0.7-0.7-1.5-0.7-2.9c0-1.3,0.2-2.2,0.7-2.899
		C55.6,515.6,56.5,515.2,57.5,515.2z M70.9,513.9H69l-4.8,4.699v-9.5h-1.6v15.4h1.6v-3.9l1.9-1.899l3.6,5.8h1.9l-4.4-6.9L70.9,513.9
		L70.9,513.9z M78.2,513.4c-1.6,0-2.7,0.6-3.4,1.399c-1,1-1.3,2.3-1.3,4.3s0.3,3.301,1.3,4.301c0.7,0.699,1.8,1.399,3.4,1.399
		c1.6,0,2.8-0.6,3.4-1.399c1-1,1.3-2.301,1.3-4.301s-0.3-3.3-1.3-4.3C81,514,79.9,513.4,78.2,513.4z M79.5,521.7
		c-0.3,0.3-0.7,0.5-1.3,0.5c-0.6,0-1-0.2-1.3-0.5c-0.6-0.601-0.6-1.601-0.6-2.7c0-1.2,0.1-2.1,0.6-2.7c0.3-0.3,0.7-0.5,1.3-0.5
		c0.6,0,1,0.2,1.3,0.5c0.6,0.601,0.6,1.5,0.6,2.7C80.2,520.2,80.1,521.2,79.5,521.7z M90.3,513.5l-2.2,6.9l-2.3-6.9h-2.9l4.1,11.1
		h2.2l4.1-11.1H90.3L90.3,513.5z M97.9,513.4c-2.9,0-4.8,2-4.8,5.699c0,4.5,2.5,5.7,5.1,5.7c2,0,3.1-0.6,4.2-1.7l-1.7-1.6
		c-0.7,0.7-1.3,1-2.5,1c-1.601,0-2.4-1-2.4-2.5h6.9v-1.2C102.7,515.6,101,513.4,97.9,513.4L97.9,513.4z M95.8,518
		c0-0.5,0.101-0.8,0.3-1.2c0.301-0.7,0.9-1.2,1.9-1.2c0.9,0,1.6,0.5,1.9,1.2c0.199,0.4,0.199,0.7,0.3,1.2H95.8z M106.8,514.6v-1.1
		h-2.7v11.1h2.801V517.9c0-1.4,0.899-2,1.8-2c0.7,0,1,0.199,1.5,0.699l2.1-2.1c-0.8-0.8-1.5-1-2.6-1
		C108.4,513.4,107.4,513.9,106.8,514.6z M113.1,512.3v12.3h2.801v-8.8h2v-2.1h-2v-1.2c0-0.6,0.3-1,1-1h1.1v-2.3h-1.6
		C114.1,509.2,113.1,510.8,113.1,512.3z M129.3,513.4c-1.6,0-2.7,0.6-3.399,1.399c-1,1-1.301,2.3-1.301,4.3s0.301,3.301,1.301,4.301
		c0.699,0.699,1.8,1.399,3.399,1.399c1.601,0,2.8-0.6,3.4-1.399c1-1,1.3-2.301,1.3-4.301s-0.3-3.3-1.3-4.3
		C132.1,514,130.9,513.4,129.3,513.4z M130.6,521.7c-0.3,0.3-0.699,0.5-1.3,0.5c-0.6,0-1-0.2-1.3-0.5c-0.6-0.601-0.6-1.601-0.6-2.7
		c0-1.2,0.1-2.1,0.6-2.7c0.3-0.3,0.7-0.5,1.3-0.5c0.601,0,1,0.2,1.3,0.5c0.601,0.601,0.601,1.5,0.601,2.7S131.2,521.2,130.6,521.7z
		 M147.1,513.5l-1.8,6.9l-2.3-6.9h-2l-2.3,6.9l-1.8-6.9H134l3.4,11.1h2.3l2.3-7l2.3,7h2.3l3.4-11.1H147.1L147.1,513.5z M122,521.2
		V509.1h-2.8V521.4c0,1.6,1,3.199,3.2,3.199h1.6v-2.3h-1C122.3,522.3,122,521.9,122,521.2L122,521.2z M41.3,515.6l1.4-1.399h-3v-3.5
		h-1.6v11.1c0,1.601,0.9,2.9,2.7,2.9h1.1v-1.3h-0.8c-1,0-1.5-0.601-1.5-1.601v-6.1h1.7V515.6L41.3,515.6z"/>
	<path fill="#BCBBBB" d="M21,527v-8h3v11H0v-11h3v8"/>
	<path fill="#F48024" d="M5.4,519.1l13.56,1.96l0.17-2.38l-13.26-2.55L5.4,519.1z M7.2,512.3l12,5.601l1.1-2.4l-12-5.6L7.2,512.3
		L7.2,512.3z M10.6,506.4l10.2,8.5l1.7-2l-10.2-8.5L10.6,506.4z M17.1,500.2l-2.1,1.6l7.9,10.601L25,510.8L17.1,500.2z M5,525h14v-3
		H5V525z"/>
	<path fill="#FFFFFF" d="M50.2,327.7l-1.9-1.9l1.9-1.899V323.6l-0.9-0.8H49l-2,2l-1.8-2h-0.3l-0.9,0.8v0.301l1.9,1.899l-1.9,1.9v0.3
		l0.9,0.9h0.3l1.9-1.9l1.9,1.9h0.3l0.9-0.9"/>
	<path fill="#222426" d="M41.8,31.4l-2.2-0.2c-1.7-0.1-2.3-0.8-2.3-2c0-1.4,1-2.2,3-2.2c1.3-0.1,2.6,0.3,3.6,1.1l1.3-1.3
		c-1.4-1-3.1-1.5-4.8-1.4c-2.9,0-4.9,1.5-4.9,3.9c0,2.2,1.4,3.4,4,3.6l2.2,0.2c1.6,0.1,2.2,0.8,2.2,2c0,1.6-1.4,2.4-3.6,2.4
		c-1.6,0.1-3.1-0.5-4.2-1.6l-1.3,1.3c1.5,1.4,3.5,2,5.5,1.9c3.2,0,5.5-1.5,5.5-4.1S44.2,31.6,41.8,31.4z M58.6,25.3
		c-2.2,0-3.5,0.4-4.7,1.9l1.3,1.3c0.8-1.1,2.1-1.7,3.4-1.5c2.5,0,3.4,1,3.4,2.9v1.3h-4c-3,0-4.6,1.5-4.6,3.9c0,1,0.3,2,1,2.7
		c0.8,0.9,1.9,1.2,3.8,1.2c1.4,0.1,2.9-0.4,3.9-1.4v1.3h2v-9.1C64,26.9,62.2,25.3,58.6,25.3z M62,34.2c0.1,0.8-0.1,1.7-0.7,2.3
		c-0.836,0.695-1.919,1.021-3,0.9c-2.1,0-3.1-0.7-3.1-2.3s1-2.4,3-2.4H62V34.2z M71.7,27.1c1.2,0,2.4,0.5,3.1,1.5l1.3-1.3
		c-1.07-1.322-2.7-2.063-4.4-2c-3.4,0-5.9,2.3-5.9,6.9c0,4.6,2.6,6.9,5.9,6.9c1.7,0.1,3.3-0.7,4.4-2l-1.3-1.3
		c-0.7,1-1.9,1.5-3.1,1.5c-1.2,0.1-2.4-0.5-3.1-1.5c-0.7-1.1-1-2.3-0.9-3.6c-0.1-1.3,0.2-2.5,0.9-3.6C69.3,27.6,70.5,27,71.7,27.1z
		 M88.5,25.5h-2.4L80,31.4V19.5h-2v19.4h2V34l2.4-2.4l4.5,7.3h2.4l-5.6-8.6L88.5,25.5z M97.7,24.8c-1.601-0.1-3.2,0.5-4.3,1.7
		c-1.3,1.3-1.6,2.9-1.6,5.4s0.3,4.1,1.6,5.4c1.1,1.1,2.7,1.7,4.3,1.7c1.6,0.1,3.2-0.5,4.3-1.7c1.3-1.3,1.6-2.9,1.6-5.4
		s-0.3-4.1-1.6-5.4C100.896,25.315,99.316,24.69,97.7,24.8z M99.4,35.3c-0.9,0.8-2.301,0.8-3.2,0c-0.7-0.7-0.8-2-0.8-3.4
		s0.1-2.7,0.8-3.4c0.899-0.8,2.3-0.8,3.2,0c0.699,0.7,0.8,1.9,0.8,3.4S100.1,34.6,99.4,35.3z M113,24.9l-2.8,8.6l-2.8-8.6h-3.7
		l5.2,14h2.699l5.101-14H113z M122.6,24.8c-3.6,0-6.1,2.6-6.1,7.1c0,5.7,3.2,7.2,6.5,7.2c2,0.1,4-0.7,5.3-2.2l-2.1-2.1
		c-0.8,0.9-2,1.4-3.2,1.3c-1.6,0.1-3-1.1-3.1-2.7V33h8.699v-1.6C128.7,27.6,126.5,24.8,122.6,24.8z M119.9,30.6c0-0.5,0.1-1,0.3-1.5
		c0.399-0.9,1.3-1.4,2.3-1.4c1-0.1,1.9,0.5,2.3,1.4c0.2,0.5,0.3,1,0.3,1.5H119.9L119.9,30.6z M133.8,26.3V25H130.4v14h3.5v-8.4
		c-0.101-1.3,0.8-2.4,2.1-2.6h0.2c0.7,0,1.399,0.3,1.8,0.8l2.6-2.6c-0.846-0.912-2.06-1.39-3.3-1.3C136,24.8,134.7,25.3,133.8,26.3
		L133.8,26.3z M141.7,23.5v15.4h3.5v-11h2.6v-2.7h-2.6v-1.5c-0.101-0.6,0.3-1.2,0.899-1.3h1.601v-3h-2
		c-2.153-0.056-3.944,1.645-4,3.797c0,0.001,0,0.002,0,0.003V23.5z M162.1,24.8c-1.6-0.1-3.199,0.5-4.3,1.7
		c-1.3,1.3-1.6,2.9-1.6,5.4s0.3,4.1,1.6,5.4c1.101,1.1,2.7,1.7,4.3,1.7c1.601,0.1,3.2-0.5,4.301-1.7c1.3-1.3,1.6-2.9,1.6-5.4
		s-0.3-4.1-1.6-5.4C165.296,25.315,163.717,24.69,162.1,24.8z M163.8,35.3c-0.899,0.8-2.3,0.8-3.2,0c-0.699-0.7-0.8-2-0.8-3.4
		s0.101-2.7,0.8-3.4c0.9-0.8,2.301-0.8,3.2,0c0.7,0.7,0.8,1.9,0.8,3.4S164.5,34.6,163.8,35.3z M184.5,24.9l-2.3,8.6l-2.9-8.6h-2.5
		l-2.8,8.7l-2.3-8.6H168l4.3,14h2.9l2.899-8.8L181,39h3l4.3-14L184.5,24.9z M152.9,34.7V19.5h-3.5v15.4
		c-0.113,2.096,1.494,3.886,3.589,4c0.004,0,0.007,0,0.011,0h2.5v-3h-1.3c-0.601,0.1-1.101-0.2-1.3-0.8V34.7z M53,25.8h-3.7v-4.4h-2
		v13.9c0,2,1.1,3.6,3.4,3.6h1.4v-1.7h-1c-1.3,0-1.8-0.7-1.8-2v-7.7h1.9L53,25.8z"/>
	<path fill="#BCBBBB" d="M26,41v-9h4v13H0V32h4v9"/>
	<path fill="#F48024" d="M23.09,33.99l0.7-2.95L7.68,27.69L7,31L23.09,33.99z M9.1,23.2l15,7l1.4-3l-15-7L9.1,23.2z M13.3,15.8
		L26,26.4l2.1-2.5L15.4,13.3L13.3,15.8z M21.5,8l-2.7,2l9.9,13.3l2.7-2L21.5,8z M7,38h16v-3H7V38z"/>
</g>
<path fill="#C9CBCF" d="M8.177,186.521l9.941-9.956C18.495,176.188,18.955,176,19.5,176c0.544,0,1.005,0.188,1.382,0.565l9.94,9.956
	c0.376,0.377,0.565,0.837,0.565,1.382c0,0.544-0.188,1.004-0.565,1.382l-1.146,1.145c-0.376,0.377-0.837,0.565-1.381,0.565
	c-0.545,0-1.005-0.188-1.382-0.565l-7.421-7.421l-7.406,7.421c-0.387,0.377-0.85,0.565-1.39,0.565c-0.539,0-0.998-0.188-1.374-0.565
	l-1.146-1.145c-0.376-0.377-0.565-0.837-0.565-1.382C7.612,187.358,7.801,186.897,8.177,186.521z"/>
<path fill="#FF2E42" d="M48.177,186.523l9.941-9.956c0.376-0.376,0.837-0.565,1.382-0.565c0.544,0,1.005,0.188,1.382,0.565
	l9.94,9.956c0.376,0.377,0.565,0.837,0.565,1.382c0,0.544-0.188,1.004-0.565,1.382l-1.146,1.145
	c-0.376,0.377-0.837,0.565-1.381,0.565c-0.545,0-1.005-0.188-1.382-0.565l-7.421-7.421l-7.406,7.421
	c-0.387,0.377-0.85,0.565-1.39,0.565c-0.539,0-0.998-0.188-1.374-0.565l-1.146-1.145c-0.376-0.377-0.565-0.837-0.565-1.382
	C47.612,187.361,47.801,186.9,48.177,186.523z"/>
<path fill="#FF2E42" d="M70.844,130.98c-2.267-0.976-4.527-1.968-6.794-2.941c-0.272-0.116-0.426-0.283-0.541-0.55
	c-0.958-2.232-1.932-4.459-2.897-6.689c-0.171-0.393-0.398-0.71-0.858-0.783c-0.521-0.083-0.884,0.145-1.139,0.729
	c-0.991,2.272-1.975,4.549-2.979,6.816c-0.078,0.178-0.262,0.359-0.441,0.438c-2.257,0.997-4.522,1.978-6.789,2.956
	c-0.443,0.191-0.762,0.468-0.768,0.981c-0.007,0.53,0.309,0.816,0.771,1.015c2.267,0.976,4.531,1.96,6.788,2.958
	c0.179,0.08,0.363,0.26,0.442,0.438c1.002,2.268,1.982,4.546,2.984,6.813c0.104,0.235,0.284,0.479,0.496,0.613
	c0.538,0.341,1.161,0.082,1.44-0.559c0.99-2.273,1.981-4.545,2.961-6.824c0.11-0.255,0.267-0.406,0.525-0.517
	c2.268-0.973,4.528-1.963,6.794-2.942c0.438-0.189,0.708-0.483,0.724-0.976C71.544,131.469,71.287,131.172,70.844,130.98z"/>
<path fill="#C9CBCF" d="M30.743,131.018c-2.267-0.976-4.527-1.968-6.794-2.941c-0.272-0.116-0.426-0.283-0.541-0.55
	c-0.958-2.232-1.932-4.459-2.897-6.689c-0.171-0.393-0.398-0.71-0.858-0.783c-0.521-0.083-0.884,0.145-1.139,0.729
	c-0.991,2.272-1.975,4.549-2.979,6.816c-0.078,0.178-0.262,0.359-0.441,0.438c-2.257,0.997-4.522,1.978-6.789,2.956
	c-0.443,0.191-0.762,0.468-0.768,0.981c-0.007,0.53,0.309,0.816,0.771,1.015c2.267,0.976,4.531,1.96,6.788,2.958
	c0.179,0.08,0.363,0.26,0.442,0.438c1.002,2.268,1.982,4.546,2.984,6.813c0.104,0.235,0.284,0.479,0.496,0.613
	c0.538,0.341,1.161,0.082,1.44-0.559c0.99-2.273,1.981-4.545,2.961-6.824c0.11-0.255,0.267-0.406,0.525-0.517
	c2.268-0.973,4.528-1.963,6.794-2.942c0.438-0.189,0.708-0.483,0.724-0.976C31.443,131.506,31.187,131.209,30.743,131.018z"/>
<path fill="#C9CBCF" d="M30.822,232.475l-9.941,9.956c-0.376,0.376-0.837,0.565-1.382,0.565c-0.544,0-1.005-0.188-1.382-0.565
	l-9.94-9.956c-0.376-0.377-0.565-0.837-0.565-1.382c0-0.544,0.188-1.004,0.565-1.382l1.146-1.145
	c0.376-0.377,0.837-0.565,1.381-0.565c0.545,0,1.005,0.188,1.382,0.565l7.421,7.421l7.406-7.421c0.387-0.377,0.85-0.565,1.39-0.565
	c0.539,0,0.998,0.188,1.374,0.565l1.146,1.145c0.376,0.377,0.565,0.837,0.565,1.382C31.387,231.638,31.199,232.098,30.822,232.475z"
	/>
<path fill="#FF2E42" d="M70.822,232.478l-9.941,9.956c-0.376,0.376-0.837,0.565-1.382,0.565c-0.544,0-1.005-0.188-1.382-0.565
	l-9.94-9.956c-0.376-0.377-0.565-0.837-0.565-1.382c0-0.544,0.188-1.004,0.565-1.382l1.146-1.145
	c0.376-0.377,0.837-0.565,1.381-0.565c0.545,0,1.005,0.188,1.382,0.565l7.421,7.421l7.406-7.421c0.387-0.377,0.85-0.565,1.39-0.565
	c0.539,0,0.998,0.188,1.374,0.565l1.146,1.145c0.376,0.377,0.565,0.837,0.565,1.382C71.387,231.641,71.199,232.101,70.822,232.478z"
	/>
<path fill="#C9CBCF" d="M16.453,295.689l-8.144-8.143c-0.489-0.49-0.489-1.284,0-1.772l1.772-1.771c0.488-0.489,1.283-0.489,1.772,0
	l5.486,5.485l11.75-11.751c0.489-0.487,1.283-0.487,1.772,0l1.772,1.772c0.489,0.489,0.489,1.283,0,1.772l-14.409,14.407
	C17.735,296.179,16.942,296.179,16.453,295.689L16.453,295.689z"/>
<path fill="#5EBA7D" d="M56.453,295.689l-8.144-8.143c-0.489-0.49-0.489-1.284,0-1.772l1.772-1.771c0.488-0.489,1.283-0.489,1.772,0
	l5.486,5.485l11.75-11.751c0.489-0.487,1.283-0.487,1.772,0l1.772,1.772c0.489,0.489,0.489,1.283,0,1.772l-14.409,14.407
	C57.735,296.179,56.942,296.179,56.453,295.689L56.453,295.689z"/>
</svg>
