<?xml version="1.0" encoding="utf-8"?>
<!-- Generator: Adobe Illustrator 16.0.0, SVG Export Plug-In . SVG Version: 6.00 Build 0)  -->
<!DOCTYPE svg PUBLIC "-//W3C//DTD SVG 1.1//EN" "http://www.w3.org/Graphics/SVG/1.1/DTD/svg11.dtd">
<svg version="1.1" xmlns="http://www.w3.org/2000/svg" xmlns:xlink="http://www.w3.org/1999/xlink" x="0px" y="0px"
	 width="1106.319px" height="168.619px" viewBox="0 0 1106.319 168.619" enable-background="new 0 0 1106.319 168.619"
	 xml:space="preserve">
<g id="Layer_1" display="none">
	<g id="Layer_4">
		<path display="inline" fill="#EE3C4D" d="M372,240.375V118.856c0,0,0.034-15.669,11.622-25.79
			c7.392-6.454,12.871-7.347,14.563-7.851c1.691-0.504,4.146,0.047,7.684-14.941c3.537-14.988,72.131,0,72.131,0v167.884
			L372,240.375z"/>
		<path display="inline" fill="#EE3C4D" d="M583,240.375V118.856c0,0,0.262-15.669-11.326-25.79
			c-7.395-6.454-12.724-7.347-14.418-7.851c-1.691-0.504-4.865,0.047-8.402-14.941c-3.537-14.988-72.854,0-72.854,0v167.884
			L583,240.375z"/>
		<g id="Layer_3" display="inline">
			<path fill="#EE3C4D" d="M583.148,240.562c0,58.489-47.416,105.904-105.903,105.904c-58.489,0-105.904-47.417-105.904-105.904
				c0-2.445,0.082-4.868,0.245-7.271c3.736-55.098,49.614-98.633,105.659-98.633C535.732,134.658,583.148,182.074,583.148,240.562z"
				/>
		</g>
	</g>
	<g id="Layer_2">
		<circle display="inline" fill="#EE3C4D" cx="477.467" cy="93.066" r="75.834"/>
	</g>
	<g id="Layer_5">
		<path display="inline" fill="#EE3C4D" stroke="#EE3C4D" stroke-width="5" stroke-miterlimit="10" d="M372,151.994
			c0,0-36.426-24.457-44.742-32.772c-8.316-8.316-8.758-17.219-8.758-17.219V55.371c0,0,0.49-13.16,12.972-13.16
			c12.484,0,13.339,13.382,13.339,13.382s0.41,32.96,0.455,40.276c0.044,7.318,2.43,7.968,2.43,7.968l3.252,2.679l21.525,15.076
			L372,151.994z"/>
		<path display="inline" fill="#EE3C4D" stroke="#EE3C4D" stroke-width="5" stroke-miterlimit="10" d="M295.903,237.169
			c-6.091-10.711,2.563-16.629,2.563-16.629L369.5,179.5v26.803l-60.363,35.178C309.137,241.48,300.288,244.881,295.903,237.169z"/>
		<path display="inline" fill="#EE3C4D" stroke="#EE3C4D" stroke-width="5" stroke-miterlimit="10" d="M375.93,240.21
			c0,0-41.831,28.096-51.385,37.649c-9.554,9.553-10.045,19.782-10.045,19.782v56.571c0,0,0.547,15.119,14.887,15.119
			c14.342,0,15.316-15.375,15.316-15.375s0.466-40.865,0.518-49.27c0.051-8.408,2.79-9.154,2.79-9.154l3.735-3.078l24.728-17.32
			L375.93,240.21z"/>
		<path display="inline" fill="#EE3C4D" stroke="#EE3C4D" stroke-width="5" stroke-miterlimit="10" d="M580.205,151.994
			c0,0,36.323-24.457,44.64-32.772c8.316-8.316,8.655-17.219,8.655-17.219V55.371c0,0-0.387-13.16-12.869-13.16
			c-12.484,0-13.289,13.382-13.289,13.382s-0.384,32.96-0.429,40.276c-0.044,7.318-2.417,7.968-2.417,7.968l-3.246,2.679
			l-21.521,15.076L580.205,151.994z"/>
		<path display="inline" fill="#EE3C4D" stroke="#EE3C4D" stroke-width="5" stroke-miterlimit="10" d="M656.302,237.169
			c6.091-10.711-2.665-16.629-2.665-16.629L582.5,179.5v26.803l60.466,35.178C642.966,241.48,651.917,244.881,656.302,237.169z"/>
		<path display="inline" fill="#EE3C4D" stroke="#EE3C4D" stroke-width="5" stroke-miterlimit="10" d="M576.275,240.21
			c0,0,41.729,28.096,51.281,37.649c9.554,9.553,9.942,19.781,9.942,19.781v56.57c0,0-0.444,15.119-14.784,15.119
			c-14.342,0-15.265-15.373-15.265-15.373s-0.441-40.866-0.493-49.271c-0.051-8.408-2.776-9.154-2.776-9.154l-3.729-3.078
			l-24.726-17.32L576.275,240.21z"/>
	</g>
	<g id="Layer_8">
		<path display="inline" fill="#EE3C4D" stroke="#EE3C4D" stroke-width="5" stroke-miterlimit="10" d="M452.817,21.332
			L426.613-5.984c0,0-9.719-8.114,0-17.833c8.091-8.092,18.842,4.095,18.842,4.095l32.778,31.799l33.693-34.508
			c0,0,8.227-9.062,15.999-1.289c7.772,7.774,1.536,16.007-0.99,18.534c-2.526,2.528-25.378,26.327-25.378,26.327L452.817,21.332z"
			/>
	</g>
	<g id="Layer_9" display="inline">
		<path fill="#EE3C4D" d="M364,252.691V139.009c0,0,0.007-14.659,10.849-24.126c6.915-6.038,12.03-6.874,13.611-7.345
			c1.583-0.471,3.814,0.044,7.125-13.977c3.308-14.022,67.415,0,67.415,0v157.058L364,252.691z"/>
		<path fill="#EE3C4D" d="M562,252.691V139.009c0,0-0.082-14.659-10.922-24.126c-6.918-6.038-12.067-6.874-13.652-7.345
			c-1.583-0.471-4.757,0.044-8.065-13.977c-3.311-14.022-68.359,0-68.359,0v157.058L562,252.691z"/>
		<path fill="#EE3C4D" d="M561.485,252.866c0,54.717-44.358,99.075-99.075,99.075s-99.075-44.357-99.075-99.075
			c0-2.287,0.077-4.554,0.229-6.802c3.495-51.544,46.415-92.272,98.845-92.272C517.127,153.792,561.485,198.149,561.485,252.866z"/>
		<circle fill="#EE3C4D" cx="462.618" cy="114.883" r="70.943"/>
		<path fill="#EE3C4D" stroke="#EE3C4D" stroke-width="5" stroke-miterlimit="10" d="M363.953,170.009
			c0,0-34.278-22.879-42.059-30.659c-7.781-7.78-8.395-16.108-8.395-16.108V79.618c0,0,0.659-12.311,12.337-12.311
			c11.68,0,12.58,12.52,12.58,12.52s0.434,30.834,0.476,37.679c0.042,6.847,2.299,7.455,2.299,7.455l3.054,2.506l20.144,14.104
			L363.953,170.009z"/>
		<path fill="#EE3C4D" stroke="#EE3C4D" stroke-width="5" stroke-miterlimit="10" d="M292.763,249.692
			c-5.698-10.02,2.34-15.557,2.34-15.557l66.396-38.394v25.074l-56.413,32.909C305.087,253.725,296.865,256.907,292.763,249.692z"/>
		<path fill="#EE3C4D" stroke="#EE3C4D" stroke-width="5" stroke-miterlimit="10" d="M367.629,252.537
			c0,0-39.464,26.284-48.401,35.222s-9.728,18.505-9.728,18.505v52.921c0,0,0.842,14.146,14.257,14.146
			c13.417,0,14.494-14.383,14.494-14.383s0.519-38.23,0.567-46.092c0.048-7.865,2.652-8.564,2.652-8.564l3.514-2.879l23.144-16.202
			L367.629,252.537z"/>
		<path fill="#EE3C4D" stroke="#EE3C4D" stroke-width="5" stroke-miterlimit="10" d="M558.73,170.009
			c0,0,33.937-22.879,41.717-30.659c7.779-7.78,8.053-16.108,8.053-16.108V79.618c0,0-0.318-12.311-11.995-12.311
			c-11.68,0-12.41,12.52-12.41,12.52s-0.347,30.834-0.39,37.679c-0.041,6.847-2.256,7.455-2.256,7.455l-3.033,2.506l-20.133,14.104
			L558.73,170.009z"/>
		<path fill="#EE3C4D" stroke="#EE3C4D" stroke-width="5" stroke-miterlimit="10" d="M629.92,249.692
			c5.697-10.02-2.182-15.557-2.182-15.557L561.5,195.742v25.074l56.255,32.909C617.755,253.725,625.818,256.907,629.92,249.692z"/>
		<path fill="#EE3C4D" stroke="#EE3C4D" stroke-width="5" stroke-miterlimit="10" d="M555.054,252.537
			c0,0,38.624,26.284,47.561,35.222c8.938,8.938,8.887,18.505,8.887,18.505v52.921c0,0,0,14.146-13.416,14.146
			s-14.072-14.383-14.072-14.383s-0.309-38.23-0.356-46.092c-0.048-7.865-2.545-8.564-2.545-8.564l-3.462-2.879l-23.118-16.202
			L555.054,252.537z"/>
		<path fill="#EE3C4D" stroke="#EE3C4D" stroke-width="5" stroke-miterlimit="10" d="M439.557,47.774L415.044,22.22
			c0,0-9.092-7.591,0-16.683c7.569-7.57,17.626,3.831,17.626,3.831l30.664,29.749l31.521-32.283c0,0,7.695-8.478,14.968-1.206
			c7.271,7.273,1.438,14.975-0.927,17.339c-2.363,2.365-23.74,24.629-23.74,24.629L439.557,47.774z"/>
	</g>
	<g id="Layer_11" display="inline">
		<polygon fill="#FFFFFF" points="453.655,108.952 477,108.952 477,223.549 549.526,307.213 534.188,325.089 464.989,245.017 
			394.7,326.961 379.112,308.706 453.417,222.19 		"/>
	</g>
	<g id="Layer_7" display="inline">
		<g>
			<path fill="#EE3C4D" d="M120.633,1.788c89.502,0,134.902,25.294,134.902,115.445c0,23.348-3.243,46.696-25.943,62.262
				c24.646,15.565,42.157,42.157,42.157,75.882c0,89.501-45.4,114.796-134.902,114.796H26.591C11.675,370.173,0,357.851,0,342.933
				V28.379C0,12.813,11.675,1.788,26.591,1.788H120.633z M94.691,89.993v51.885h26.591c20.754,0,39.563-2.594,39.563-27.24
				c0-22.051-18.809-24.646-39.563-24.646L94.691,89.993L94.691,89.993z M177.059,254.729c0-20.754-18.16-23.997-39.562-23.997
				H94.691v51.885h42.806C158.899,282.617,177.059,278.077,177.059,254.729z"/>
		</g>
		<g>
			<path fill="#EE3C4D" d="M919.271,155.629c14.791,0,26.366,10.29,26.366,25.081v160.774c0,15.436-11.575,26.367-26.366,26.367
				H902.55c-12.219,0-20.579-7.719-27.651-17.363c-18.65,18.648-51.448,20.58-59.165,20.58
				c-87.462,0-165.276-46.947-165.276-183.284C650.457,35.371,728.271,0,815.732,0c27.011,0,73.957,9.646,104.824,27.653
				c7.719,4.501,14.148,14.148,14.148,24.438c0,3.859-3.216,7.717-16.721,37.943c-4.502,10.933-12.22,12.862-21.865,12.862
				c-3.858,0-9.003-2.572-12.219-3.858c-19.293-8.36-50.806-11.576-63.668-11.576c-23.15,0-75.885,5.788-75.885,100.323
				c0,50.162,27.653,96.465,77.814,96.465c7.074,0,20.579-0.643,29.582-5.145v-39.229H825.38c-14.792,0-25.725-10.29-25.725-26.367
				V180.71c0-14.792,10.933-25.081,25.725-25.081H919.271z"/>
		</g>
		<g>
			<g>
				<path fill="#EE3C4D" d="M92.355,386.066c68.521,0,103.279,19.363,103.279,88.383c0,17.875-2.482,35.75-19.861,47.666
					c18.869,11.918,32.275,32.273,32.275,58.096c0,68.52-34.757,87.885-103.279,87.885H20.358C8.938,668.095,0,658.662,0,647.242
					v-240.82c0-11.916,8.938-20.355,20.358-20.355H92.355z M72.494,453.593v39.723h20.357c15.889,0,30.289-1.986,30.289-20.854
					c0-16.883-14.4-18.867-30.289-18.867H72.494V453.593z M135.553,579.712c0-15.889-13.903-18.373-30.289-18.373h-32.77v39.725
					h32.771C121.65,601.064,135.553,597.587,135.553,579.712z"/>
				<path fill="#EE3C4D" d="M421.979,670.58c-29.294,0-36.743-21.85-42.702-38.234l-8.938-23.834h-72.991l-14.399,41.213
					c-2.482,9.932-10.924,18.371-20.854,18.371h-35.75c-11.42,0-19.861-8.439-19.861-20.355l84.411-244.295
					c3.476-10.428,11.917-17.379,21.351-17.379h41.708c9.434,0,17.875,6.951,21.848,17.379l68.024,195.635
					c2.482,6.453,3.973,11.916,5.462,12.412c6.455,3.477,11.917,9.932,11.917,17.875v16.387
					C461.205,664.621,437.868,670.58,421.979,670.58z M318.203,545.453h30.289l-14.896-45.186L318.203,545.453z"/>
				<path fill="#EE3C4D" d="M645.327,668.095c-7.447,0-16.882-4.965-22.344-13.902c-25.323-42.701-57.599-87.391-83.417-129.596
					V647.74c0,11.916-8.441,20.355-19.861,20.355h-32.274c-11.421,0-20.357-8.439-20.357-20.355V406.421
					c0-11.916,8.938-20.355,20.357-20.355h35.253c8.441,0,16.883,4.965,22.842,13.902l73.983,114.697V406.421
					c0-11.916,8.44-20.355,19.86-20.355h32.771c11.421,0,19.861,8.439,19.861,20.355v241.316c0,11.916-8.44,20.355-19.861,20.355
					h-26.813V668.095z"/>
				<path fill="#EE3C4D" d="M877.118,512.681c6.454,8.439,10.924,16.883,19.364,32.771c16.387,32.273,32.771,68.023,49.155,100.795
					c0,12.91-7.942,21.848-19.86,21.848h-35.75c-8.441,0-18.371-7.943-22.345-16.385c-30.784-65.047-41.213-82.922-46.178-90.865
					c-9.434,5.959-21.848,12.908-31.281,16.387v70.508c0,11.916-8.44,20.355-19.86,20.355h-32.771
					c-11.42,0-19.861-8.439-19.861-20.355V406.421c0-11.916,8.441-20.355,19.861-20.355h32.771c11.42,0,19.86,8.439,19.86,20.355
					v90.369c22.345-11.916,58.591-61.57,67.031-92.355c2.98-9.93,9.435-18.369,19.862-18.369h33.267
					c11.421,0,19.365,8.439,19.365,20.355C929.75,427.277,906.412,479.414,877.118,512.681z"/>
			</g>
		</g>
	</g>
</g>
<g id="Layer_2_1_">
	<text transform="matrix(1.0004 0 0 1 -9 166.1411)" fill="#ED3C4D" font-family="'Panton-ExtraBlack'" font-size="234.0828">BUGBANK</text>
</g>
</svg>
