<?xml version="1.0" encoding="utf-8"?>
<!-- Generator: Adobe Illustrator 16.0.0, SVG Export Plug-In . SVG Version: 6.00 Build 0)  -->
<!DOCTYPE svg PUBLIC "-//W3C//DTD SVG 1.1//EN" "http://www.w3.org/Graphics/SVG/1.1/DTD/svg11.dtd">
<svg version="1.1" id="Layer_1" xmlns="http://www.w3.org/2000/svg" xmlns:xlink="http://www.w3.org/1999/xlink" x="0px" y="0px"
	 width="764.457px" height="196.688px" viewBox="0 0 764.457 196.688" enable-background="new 0 0 764.457 196.688"
	 xml:space="preserve">
<g id="Layer_1_4_" display="none">
	<g id="Layer_1_3_" display="inline">
		<g id="Layer_1_2_">
			<g id="Layer_1_1_" display="none">
				<g id="Layer_4" display="inline">
					<path fill="#EE3C4D" d="M372,253.625V132.105c0,0,0.034-15.668,11.623-25.789c7.391-6.457,12.871-7.351,14.563-7.854
						c1.689-0.504,4.146,0.047,7.686-14.941c3.537-14.987,72.131,0,72.131,0v167.885L372,253.625z"/>
					<path fill="#EE3C4D" d="M583,253.625V132.105c0,0,0.262-15.668-11.326-25.789c-7.395-6.457-12.723-7.351-14.418-7.854
						c-1.688-0.504-4.865,0.047-8.402-14.941c-3.531-14.987-72.854,0-72.854,0v167.885L583,253.625z"/>
					<g id="Layer_3">
						<path fill="#EE3C4D" d="M583.148,253.813c0,58.488-47.416,105.903-105.902,105.903c-58.49,0-105.905-47.417-105.905-105.903
							c0-2.441,0.082-4.869,0.245-7.271c3.736-55.1,49.615-98.633,105.66-98.633C535.732,147.908,583.148,195.324,583.148,253.813z"
							/>
					</g>
				</g>
				<g id="Layer_2" display="inline">
					<circle fill="#EE3C4D" cx="477.466" cy="106.316" r="75.834"/>
				</g>
				<g id="Layer_5" display="inline">
					<path fill="#EE3C4D" stroke="#EE3C4D" stroke-width="5" stroke-miterlimit="10" d="M372,165.244
						c0,0-36.426-24.457-44.742-32.771c-8.313-8.313-8.758-17.22-8.758-17.22V68.621c0,0,0.49-13.16,12.972-13.16
						c12.484,0,13.339,13.382,13.339,13.382s0.41,32.96,0.455,40.276c0.044,7.317,2.433,7.968,2.433,7.968l3.252,2.679
						l21.522,15.076L372,165.244z"/>
					<path fill="#EE3C4D" stroke="#EE3C4D" stroke-width="5" stroke-miterlimit="10" d="M295.903,250.419
						c-6.091-10.711,2.563-16.629,2.563-16.629l71.034-41.04v26.803l-60.363,35.178C309.137,254.73,300.288,258.131,295.903,250.419
						z"/>
					<path fill="#EE3C4D" stroke="#EE3C4D" stroke-width="5" stroke-miterlimit="10" d="M375.93,253.46
						c0,0-41.831,28.097-51.385,37.648c-9.554,9.553-10.045,19.781-10.045,19.781v56.569c0,0,0.547,15.119,14.887,15.119
						c14.342,0,15.316-15.375,15.316-15.375s0.466-40.865,0.518-49.271c0.051-8.408,2.79-9.151,2.79-9.151l3.735-3.078l24.728-17.32
						L375.93,253.46z"/>
					<path fill="#EE3C4D" stroke="#EE3C4D" stroke-width="5" stroke-miterlimit="10" d="M580.205,165.244
						c0,0,36.324-24.457,44.641-32.771c8.318-8.313,8.654-17.22,8.654-17.22V68.621c0,0-0.387-13.16-12.869-13.16
						c-12.484,0-13.289,13.382-13.289,13.382s-0.383,32.96-0.428,40.276c-0.045,7.317-2.418,7.968-2.418,7.968l-3.246,2.679
						l-21.521,15.076L580.205,165.244z"/>
					<path fill="#EE3C4D" stroke="#EE3C4D" stroke-width="5" stroke-miterlimit="10" d="M656.302,250.419
						c6.09-10.711-2.666-16.629-2.666-16.629L582.5,192.75v26.803l60.467,35.178C642.966,254.73,651.917,258.131,656.302,250.419z"
						/>
					<path fill="#EE3C4D" stroke="#EE3C4D" stroke-width="5" stroke-miterlimit="10" d="M576.275,253.46
						c0,0,41.729,28.097,51.277,37.648c9.559,9.554,9.941,19.781,9.941,19.781v56.566c0,0-0.443,15.119-14.783,15.119
						c-14.342,0-15.266-15.373-15.266-15.373s-0.441-40.866-0.492-49.271c-0.051-8.408-2.777-9.151-2.777-9.151l-3.729-3.078
						l-24.729-17.32L576.275,253.46z"/>
				</g>
				<g id="Layer_8" display="inline">
					<path fill="#EE3C4D" stroke="#EE3C4D" stroke-width="5" stroke-miterlimit="10" d="M452.818,34.582L426.613,7.266
						c0,0-9.719-8.114,0-17.833c8.092-8.092,18.842,4.095,18.842,4.095l32.779,31.8l33.688-34.509c0,0,8.23-9.062,16-1.288
						c7.771,7.773,1.535,16.007-0.986,18.533c-2.525,2.528-25.383,26.327-25.383,26.327L452.818,34.582z"/>
				</g>
				<g id="Layer_9" display="inline">
					<path fill="#EE3C4D" d="M364,265.941V152.259c0,0,0.007-14.659,10.849-24.126c6.915-6.038,12.03-6.874,13.612-7.345
						c1.582-0.473,3.814,0.044,7.125-13.979c3.307-14.021,67.414,0,67.414,0v157.06L364,265.941z"/>
					<path fill="#EE3C4D" d="M562,265.941V152.259c0,0-0.082-14.659-10.92-24.126c-6.918-6.038-12.068-6.874-13.652-7.345
						c-1.584-0.473-4.758,0.044-8.063-13.979c-3.314-14.021-68.359,0-68.359,0v157.06L562,265.941z"/>
					<path fill="#EE3C4D" d="M561.486,266.116c0,54.717-44.359,99.074-99.076,99.074s-99.075-44.356-99.075-99.074
						c0-2.287,0.077-4.555,0.229-6.803c3.492-51.545,46.414-92.271,98.845-92.271C517.126,167.042,561.486,211.398,561.486,266.116z
						"/>
					<circle fill="#EE3C4D" cx="462.619" cy="128.133" r="70.943"/>
					<path fill="#EE3C4D" stroke="#EE3C4D" stroke-width="5" stroke-miterlimit="10" d="M363.953,183.259
						c0,0-34.278-22.879-42.059-30.659c-7.781-7.779-8.396-16.104-8.396-16.104V92.868c0,0,0.659-12.312,12.337-12.312
						c11.68,0,12.58,12.521,12.58,12.521s0.434,30.834,0.476,37.679c0.042,6.848,2.302,7.455,2.302,7.455l3.054,2.506l20.144,14.104
						L363.953,183.259z"/>
					<path fill="#EE3C4D" stroke="#EE3C4D" stroke-width="5" stroke-miterlimit="10" d="M292.763,262.941
						c-5.698-10.021,2.34-15.56,2.34-15.56l66.396-38.395v25.07l-56.413,32.91C305.087,266.975,296.865,270.157,292.763,262.941z"/>
					<path fill="#EE3C4D" stroke="#EE3C4D" stroke-width="5" stroke-miterlimit="10" d="M367.629,265.787
						c0,0-39.464,26.282-48.4,35.222c-8.938,8.939-9.729,18.505-9.729,18.505v52.922c0,0,0.842,14.146,14.257,14.146
						c13.417,0,14.494-14.383,14.494-14.383s0.519-38.23,0.567-46.095c0.048-7.862,2.649-8.563,2.649-8.563l3.517-2.879
						l23.144-16.202L367.629,265.787z"/>
					<path fill="#EE3C4D" stroke="#EE3C4D" stroke-width="5" stroke-miterlimit="10" d="M558.73,183.259
						c0,0,33.938-22.879,41.717-30.659c7.775-7.779,8.053-16.104,8.053-16.104V92.868c0,0-0.318-12.312-11.994-12.312
						c-11.68,0-12.41,12.521-12.41,12.521s-0.348,30.834-0.391,37.679c-0.041,6.848-2.256,7.455-2.256,7.455l-3.033,2.506
						l-20.133,14.104L558.73,183.259z"/>
					<path fill="#EE3C4D" stroke="#EE3C4D" stroke-width="5" stroke-miterlimit="10" d="M629.919,262.941
						c5.697-10.021-2.182-15.56-2.182-15.56l-66.238-38.39v25.073l56.256,32.908C617.755,266.975,625.818,270.157,629.919,262.941z"
						/>
					<path fill="#EE3C4D" stroke="#EE3C4D" stroke-width="5" stroke-miterlimit="10" d="M555.054,265.787
						c0,0,38.623,26.282,47.563,35.222c8.938,8.939,8.887,18.505,8.887,18.505v52.922c0,0,0,14.146-13.416,14.146
						s-14.072-14.383-14.072-14.383s-0.309-38.23-0.354-46.095c-0.047-7.862-2.545-8.563-2.545-8.563l-3.461-2.879l-23.119-16.202
						L555.054,265.787z"/>
					<path fill="#EE3C4D" stroke="#EE3C4D" stroke-width="5" stroke-miterlimit="10" d="M439.556,61.024L415.044,35.47
						c0,0-9.092-7.591,0-16.683c7.568-7.57,17.625,3.831,17.625,3.831l30.664,29.749l31.521-32.283c0,0,7.691-8.479,14.969-1.206
						c7.27,7.272,1.438,14.975-0.928,17.339c-2.363,2.365-23.74,24.629-23.74,24.629L439.556,61.024z"/>
				</g>
				<g id="Layer_11" display="inline">
					<polygon fill="#FFFFFF" points="453.656,122.202 477,122.202 477,236.799 549.527,320.463 534.187,338.339 464.99,258.268 
						394.701,340.211 379.112,321.956 453.417,235.439 					"/>
				</g>
				<g id="Layer_7" display="inline">
					<g>
						<path fill="#EE3C4D" d="M120.633,15.038c89.502,0,134.902,25.294,134.902,115.443c0,23.35-3.243,46.697-25.943,62.264
							c24.646,15.564,42.157,42.156,42.157,75.882c0,89.501-45.4,114.796-134.902,114.796H26.591
							C11.675,383.423,0,371.102,0,356.184V41.629c0-15.566,11.675-26.591,26.591-26.591H120.633z M94.691,103.243v51.885h26.591
							c20.754,0,39.563-2.594,39.563-27.239c0-22.052-18.809-24.646-39.563-24.646H94.691L94.691,103.243z M177.059,267.979
							c0-20.754-18.16-23.996-39.562-23.996H94.691v51.889h42.806C158.899,295.867,177.059,291.327,177.059,267.979z"/>
					</g>
					<g>
						<path fill="#EE3C4D" d="M919.271,168.879c14.791,0,26.361,10.29,26.361,25.081v160.773c0,15.437-11.57,26.365-26.361,26.365
							H902.55c-12.219,0-20.58-7.721-27.652-17.36c-18.645,18.646-51.443,20.579-59.16,20.579
							c-87.467,0-165.275-46.946-165.275-183.283C650.457,48.621,728.271,13.25,815.732,13.25c27.012,0,73.957,9.646,104.82,27.652
							c7.723,4.501,14.148,14.148,14.148,24.438c0,3.859-3.217,7.717-16.727,37.943c-4.502,10.933-12.219,12.861-21.859,12.861
							c-3.859,0-9.004-2.571-12.225-3.857c-19.293-8.36-50.805-11.576-63.668-11.576c-23.145,0-75.885,5.788-75.885,100.323
							c0,50.162,27.654,96.465,77.814,96.465c7.072,0,20.58-0.644,29.582-5.146v-39.229h-26.359
							c-14.793,0-25.725-10.29-25.725-26.367V193.96c0-14.792,10.932-25.081,25.725-25.081H919.271z"/>
					</g>
					<g>
						<g>
							<path fill="#EE3C4D" d="M92.355,399.317c68.521,0,103.279,19.358,103.279,88.383c0,17.875-2.482,35.75-19.861,47.666
								c18.869,11.918,32.275,32.271,32.275,58.096c0,68.521-34.757,87.885-103.279,87.885H20.358
								C8.938,681.345,0,671.912,0,660.492v-240.82c0-11.916,8.938-20.354,20.358-20.354L92.355,399.317L92.355,399.317z
								 M72.494,466.843v39.728h20.357c15.889,0,30.289-1.986,30.289-20.854c0-16.883-14.4-18.867-30.289-18.867H72.494V466.843z
								 M135.553,592.962c0-15.889-13.903-18.373-30.289-18.373h-32.77v39.729h32.771
								C121.65,614.315,135.553,610.837,135.553,592.962z"/>
							<path fill="#EE3C4D" d="M421.978,683.83c-29.291,0-36.74-21.85-42.699-38.234l-8.938-23.834H297.35l-14.399,41.213
								c-2.482,9.937-10.924,18.371-20.854,18.371h-35.75c-11.42,0-19.861-8.438-19.861-20.354l84.411-244.295
								c3.476-10.431,11.917-17.379,21.351-17.379h41.708c9.434,0,17.875,6.948,21.848,17.379l68.024,195.635
								c2.48,6.453,3.973,11.916,5.463,12.412c6.455,3.477,11.916,9.932,11.916,17.875v16.387
								C461.205,677.871,437.869,683.83,421.978,683.83z M318.203,558.703h30.289l-14.896-45.188L318.203,558.703z"/>
							<path fill="#EE3C4D" d="M645.328,681.345c-7.447,0-16.883-4.965-22.344-13.897c-25.324-42.701-57.604-87.396-83.416-129.601
								V660.99c0,11.916-8.441,20.354-19.861,20.354h-32.275c-11.42,0-20.354-8.438-20.354-20.354V419.671
								c0-11.916,8.938-20.354,20.354-20.354h35.254c8.441,0,16.887,4.967,22.846,13.899l73.98,114.697V419.671
								c0-11.916,8.439-20.354,19.859-20.354h32.77c11.42,0,19.861,8.438,19.861,20.354v241.316
								c0,11.916-8.439,20.354-19.861,20.354h-26.813V681.345L645.328,681.345z"/>
							<path fill="#EE3C4D" d="M877.119,525.931c6.453,8.439,10.924,16.888,19.363,32.771
								c16.387,32.271,32.771,68.021,49.15,100.795c0,12.91-7.938,21.848-19.855,21.848h-35.75c-8.441,0-18.371-7.938-22.35-16.385
								c-30.779-65.047-41.213-82.922-46.178-90.865c-9.434,5.959-21.848,12.908-31.281,16.392v70.508
								c0,11.916-8.438,20.354-19.855,20.354h-32.771c-11.42,0-19.857-8.438-19.857-20.354v-241.32
								c0-11.916,8.438-20.354,19.857-20.354h32.771c11.42,0,19.855,8.438,19.855,20.354v90.369
								c22.35-11.916,58.596-61.57,67.031-92.354c2.979-9.932,9.438-18.367,19.863-18.367h33.266
								c11.422,0,19.365,8.438,19.365,20.354C929.75,440.528,906.412,492.664,877.119,525.931z"/>
						</g>
					</g>
				</g>
			</g>
			<g id="Layer_2_1_">
				<g>
					<path fill="#ED3C4D" d="M81.854,16.528c33.954,0,53.857,15.685,53.857,44.477c0,14.748-5.854,26.218-17.563,34.178v1.17
						c16.392,7.256,24.587,20.599,24.587,40.027c0,14.748-5.62,26.217-16.625,34.41c-11.006,8.192-25.524,12.172-43.32,12.172
						H10.669c-7.727,0-10.303-2.574-10.303-10.299V26.827c0-7.726,2.576-10.301,10.303-10.301L81.854,16.528L81.854,16.528z
						 M68.742,57.961h-14.05v19.896h14.05c8.195,0,11.942-2.574,11.942-9.832C80.684,61.238,76.703,57.961,68.742,57.961z
						 M73.425,119.758H54.692v21.537h18.733c8.664,0,12.645-2.81,12.645-11.002C86.069,123.27,81.854,119.758,73.425,119.758z"/>
					<path fill="#ED3C4D" d="M208.303,122.801c0,11.236,6.322,16.855,18.967,16.855s18.967-5.619,18.967-16.855v-95.74
						c0-7.725,2.576-10.299,10.303-10.299h33.72c7.727,0,10.303,2.575,10.303,10.299v92.464c0,41.433-26.226,66.947-73.292,66.947
						s-73.292-25.519-73.292-66.947V27.061c0-7.725,2.576-10.299,10.303-10.299H198c7.727,0,10.303,2.575,10.303,10.299V122.801z"/>
					<path fill="#ED3C4D" d="M453.47,86.051c7.729,0,10.307,2.575,10.307,10.301v29.963c0,17.556-6.561,32.065-19.674,43.306
						c-13.346,11.235-31.607,16.854-55.023,16.854c-47.535,0-74.698-25.75-74.698-67.885V81.135
						C314.378,39,341.541,13.25,389.076,13.25c36.764,0,60.414,14.278,70.951,42.604c2.574,7.257,0.703,10.534-6.561,13.109
						l-31.846,11.236c-7.494,2.105-10.303,0.936-13.113-6.556c-3.748-9.597-8.43-13.343-19.436-13.343
						c-15.923,0-20.372,5.618-20.372,20.6v37.922c0,14.979,4.448,20.6,20.372,20.6c13.109,0,19.67-3.746,19.67-11.471v-0.938
						h-16.621c-7.73,0-10.303-2.574-10.303-10.302v-20.36c0-7.726,2.573-10.301,10.303-10.301L453.47,86.051L453.47,86.051z"/>
					<path fill="#ED3C4D" d="M559.783,16.528c33.953,0,53.854,15.685,53.854,44.477c0,14.748-5.854,26.218-17.563,34.178v1.17
						c16.391,7.256,24.588,20.599,24.588,40.027c0,14.748-5.621,26.217-16.627,34.41c-11.004,8.192-25.523,12.172-43.318,12.172
						h-72.123c-7.727,0-10.303-2.574-10.303-10.299V26.827c0-7.726,2.576-10.301,10.303-10.301L559.783,16.528L559.783,16.528z
						 M546.669,57.961h-14.049v19.896h14.049c8.195,0,11.943-2.574,11.943-9.832C558.613,61.238,554.63,57.961,546.669,57.961z
						 M551.353,119.758h-18.732v21.537h18.729c8.662,0,12.646-2.81,12.646-11.002C563.998,123.27,559.783,119.758,551.353,119.758z"
						/>
					<path fill="#ED3C4D" d="M786.453,172.896c2.342,6.789,0,10.063-7.26,10.063h-32.781c-11.943,0-16.158-3.043-17.797-10.771
						l-3.277-11.938h-44.02l-3.277,11.938c-2.107,7.728-5.854,10.771-16.861,10.771H628.4c-7.264,0-9.137-3.273-6.561-10.063
						l52.217-147.708c2.107-6.789,5.152-8.427,12.646-8.427h34.648c7.266,0,10.537,1.873,12.646,8.193L786.453,172.896z
						 M708.71,98.925c-2.576-8.661-3.979-21.067-4.215-27.388l-0.234-4.916h-2.342c0.234,11.47-1.17,22.004-3.746,32.069
						l-5.146,18.961h20.84L708.71,98.925z"/>
					<path fill="#ED3C4D" d="M929.529,16.762c7.727,0,10.303,2.575,10.303,10.299v145.602c0,7.725-2.576,10.299-10.303,10.299
						h-33.486c-4.449,0-7.961-1.639-10.068-4.916l-26.461-42.135c-4.916-7.957-8.43-14.513-10.537-19.662
						c-2.104-4.916-5.854-15.918-11.006-32.538h-1.873c3.98,18.493,6.561,31.132,7.494,37.688c0.701,6.556,1.17,16.619,1.17,30.431
						v20.834c0,7.725-2.576,10.299-10.303,10.299h-29.973c-7.729,0-10.309-2.574-10.309-10.299V27.061
						c0-7.725,2.576-10.299,10.309-10.299h35.824c4.686,0,7.965,1.638,10.066,4.682l30.441,49.626
						c4.445,7.257,7.021,12.406,8.43,15.45c0.703,1.639,2.104,5.384,4.684,11.471c2.576,6.319,4.689,11.938,6.791,16.854h2.107
						c-6.322-20.833-10.303-34.411-11.477-40.731c-1.402-6.086-2.105-14.747-2.105-25.75V27.061c0-7.725,2.576-10.299,10.305-10.299
						H929.529z"/>
					<path fill="#ED3C4D" d="M1104.214,170.088c3.98,7.256,1.172,12.875-7.021,12.875h-31.613c-13.111,0-17.563-1.873-22.01-11.002
						l-18.971-39.326c-3.275-6.555-6.557-9.832-9.602-9.832h-2.107v49.859c0,7.725-2.574,10.301-10.303,10.301h-33.717
						c-7.73,0-10.309-2.576-10.309-10.301V27.061c0-7.725,2.574-10.299,10.309-10.299h33.719c7.729,0,10.303,2.575,10.303,10.299
						v48.456l2.576,0.234h1.639l26.23-49.626c2.107-3.979,4.215-6.556,6.322-7.726c2.104-1.17,6.088-1.638,12.41-1.638h33.48
						c7.494,0,10.07,4.447,6.322,11.236l-36.996,70.227c2.811,3.51,5.385,7.49,7.729,11.938L1104.214,170.088z"/>
				</g>
			</g>
		</g>
		<g id="Layer_2_2_">
			<g>
				<path fill="#ED3D4E" d="M99.335,109.021c9.031,5.049,15.536,11.463,19.519,19.242c3.979,7.781,5.654,15.982,5.025,24.605
					c-0.632,8.623-3.35,16.737-8.156,24.354c-4.808,7.613-11.459,13.84-19.955,18.676c-8.498,4.838-18.571,7.256-30.224,7.256
					c-19.13,0-34.545-5.721-46.245-17.16C7.597,174.555,1.213,157.939,0.145,136.15v-0.252c0-0.42,0-0.84,0-1.264
					c0-0.42,0-0.84,0-1.262C0.048,132.788,0,132.158,0,131.482c0-0.082,0.048-0.168,0.145-0.252v-0.127c0-11.355,0-27.803,0-49.336
					c0-14.385-0.025-27.781-0.072-40.188C0.023,29.169,0,21.158,0,17.539c0-1.345,1.577-2.354,4.733-3.028
					c3.154-0.672,6.724-1.029,10.706-1.072c3.98-0.042,7.549,0.274,10.706,0.946c3.153,0.674,4.733,1.683,4.733,3.028
					c0,0.337,0,0.758,0,1.262c7.866-3.615,16.555-5.425,26.073-5.425c11.845,0,21.994,2.293,30.441,6.877
					c8.448,4.585,15.099,10.535,19.956,17.854c4.854,7.319,7.84,15.27,8.958,23.85c1.115,8.58,0.265,16.992-2.549,25.235
					C110.939,95.313,106.132,102.631,99.335,109.021z M57.096,38.738c-3.691,0-7.5,0.759-11.434,2.271
					c-3.932,1.515-7.26,4.418-9.978,8.707c-2.719,4.291-4.322,10.474-4.806,18.549c0,1.01,0,2.021,0,3.029c0,9.337,0,18.97,0,28.896
					c5.244,0.084,10.243,0.127,15.003,0.127c1.456,0,2.862,0,4.224,0c9.709-0.252,17.405-2.438,23.086-6.563
					c5.68-4.121,9.515-9.211,11.506-15.269c1.989-6.057,2.232-12.112,0.728-18.17c-1.506-6.057-4.66-11.167-9.467-15.331
					C71.152,40.821,64.864,38.738,57.096,38.738z M64.379,177.665c6.795,0,12.453-1.768,16.969-5.299
					c4.515-3.534,7.67-7.889,9.467-13.063c1.795-5.174,2.014-10.348,0.655-15.521c-1.361-5.177-4.516-9.527-9.468-13.062
					s-11.993-5.301-21.12-5.301c-8.254,0-18.256,0-30.004,0c0,2.776,0,5.512,0,8.201c0,10.096,1.529,18.382,4.588,24.856
					c3.059,6.479,7.137,11.293,12.235,14.449C52.8,176.088,58.357,177.665,64.379,177.665z"/>
				<path fill="#ED3D4E" d="M247.175,203.027c-14.274,0-24.179-6.563-29.713-19.687c-6.507,13.123-17.093,19.687-31.753,19.687
					c-10.101,0-18.718-1.87-25.854-5.614c-7.138-3.742-12.599-8.958-16.386-15.646c-3.787-6.688-5.68-14.4-5.68-23.154V80.504
					c0-1.849,1.552-3.259,4.662-4.227c3.105-0.967,6.7-1.45,10.778-1.45c3.98,0,7.523,0.566,10.633,1.703
					c3.106,1.135,4.661,2.882,4.661,5.236v69.148c0,7.318,0.874,12.956,2.622,16.907c3.106,7.149,8.011,10.727,14.711,10.727
					c4.272,0,8.252-1.43,11.943-4.29c7.961-6.141,12.672-20.862,14.129-44.165V81.01c0-2.271,1.577-3.89,4.733-4.859
					c3.154-0.966,6.723-1.45,10.706-1.45c3.98,0.085,7.549,0.549,10.706,1.389c3.154,0.841,4.734,2.02,4.734,3.533v22.84
					c0,34.826,0.146,54.47,0.437,58.927c0.777,11.526,3.543,17.287,8.303,17.287c2.134,0,4.416-2.228,6.845-6.688
					c4.465-8.242,8.835-20.146,13.11-35.71c0.969-2.021,3.834-3.026,8.593-3.026c2.232,0,4.37,0.295,6.409,0.883
					c2.815,0.842,4.224,2.23,4.224,4.164c0,2.018-1.07,7.109-3.204,15.268c-3.496,13.377-8.157,24.396-13.983,33.063
					C266.158,197.561,257.371,203.027,247.175,203.027z"/>
				<path fill="#ED3D4E" d="M307.039,203.281c-15.926,0-26.945-8.455-33.063-25.363c-3.108-8.495-4.66-18-4.66-28.518
					c0-7.905,0.899-16.131,2.694-24.67c1.795-8.535,4.683-16.592,8.667-24.164c3.98-7.569,8.86-13.688,14.638-18.358
					c5.775-4.668,12.308-7.003,19.592-7.003c10.483,0,19.612,4.082,27.382,12.239c0.096-0.758,0.145-2.775,0.145-6.057
					c0.39-4.121,6.021-6.184,16.896-6.184c3.497,0,6.722,0.295,9.686,0.884c2.961,0.589,4.444,1.347,4.444,2.271v61.832
					l-0.146,33.06c12.908-8.662,21.648-21.029,26.216-37.099c1.064-2.02,4.174-3.026,9.318-3.026c2.139,0,4.229,0.295,6.266,0.883
					c2.914,0.758,4.369,2.104,4.369,4.037v0.127c-1.068,6.729-3.545,14.219-7.43,22.461c-3.885,8.245-9.055,15.92-15.512,23.027
					c-6.461,7.108-14.202,12.389-23.23,15.838v9.336c-0.44,9.339-1.117,15.217-3.352,25.731c-2.237,10.517-5.451,17.53-8.496,23.387
					c0,0-8.047,15.984-29.52,15.984c-31.744,0-30.783-32.433-30.783-32.433c0-4.712,0.121-10.393,1.724-17.034
					c0,0-1.766-3.306,8.776-3.107c10.541,0.197,10.428,4.421,10.428,4.421s-0.908,31.913,11.334,28.771
					c12.242-3.142,15.041-28.685,13.148-63.433c-0.206-3.781,0.472-5.188-3.546,0.25
					C343.027,191.369,334.156,203.281,307.039,203.281z M310.534,178.549c4.465,0,8.688-1.723,12.673-5.174
					c7.476-6.478,13.787-16.484,18.935-30.031v-3.029c-2.232-16.82-7.187-27.674-14.854-32.555
					c-3.108-1.934-5.632-2.902-7.574-2.902c-4.176,0-7.77,1.813-10.778,5.429c-3.011,3.616-5.342,8.2-6.993,13.754
					c-2.525,8.076-3.786,16.317-3.786,24.729c0,3.703,0.292,7.806,0.874,12.306c0.582,4.502,1.868,8.536,3.86,12.11
					C304.877,176.764,307.425,178.549,310.534,178.549z"/>
				<path fill="#ED3D4E" d="M455.167,203.281c-11.65,0-21.361-3.616-29.129-10.854v6.437c0,1.516-1.58,2.632-4.732,3.346
					c-3.154,0.716-6.727,1.072-10.707,1.072s-7.523-0.356-10.633-1.072c-3.104-0.714-4.66-1.745-4.66-3.091V19.18
					c0-3.701,5.146-5.551,15.439-5.551c3.979,0,7.52,0.337,10.633,1.009c3.105,0.674,4.66,1.473,4.66,2.397v38.303v48.512
					c0,0,0.063,0.219,0.148-0.058c5.143-16.658,19.807-28.586,33.207-28.586c8.543,0,15.754,2.713,21.629,8.139
					c5.873,5.427,10.414,12.474,13.613,21.136c3.693,10.267,5.539,21.071,5.539,32.432c0,8.58-1.021,16.949-3.061,25.107
					c6.604-1.683,11.457-4.625,14.563-8.832c3.107-4.205,5.535-9.842,7.283-16.906c0.971-2.021,3.883-3.027,8.738-3.027
					c2.135,0,4.227,0.295,6.264,0.883c2.816,0.843,4.225,2.23,4.225,4.164v0.252c-1.453,10.77-5.994,20.423-13.617,28.959
					c-7.623,8.539-19.541,13.565-35.76,15.078C480.755,196.383,469.541,203.281,455.167,203.281z M467.632,115.311
					c0,0-2.949-12.566-21.313-11.391c-5.883,0.377-21.082,11.391-19.115,39.632c-0.439,17.615,11.115,28.668,14.711,31.905
					c3.592,3.237,9.951,5.229,12.672,4.856c10.096-1.373,14.818-20.013,15.762-34.76
					C471.341,130.004,467.632,115.311,467.632,115.311z"/>
				<path fill="#ED3D4E" d="M554.361,203.281c-15.93,0-26.947-8.455-33.064-25.363c-3.105-8.495-4.66-18-4.66-28.518
					c0-7.905,0.896-16.131,2.693-24.67c1.797-8.535,4.684-16.592,8.666-24.164c3.979-7.569,8.861-13.688,14.639-18.358
					c5.777-4.668,12.311-7.003,19.592-7.003c10.488,0,19.611,4.038,27.387,12.113V81.01c0-4.039,4.514-6.058,13.545-6.058
					c4.854,0,9.027,0.463,12.523,1.388c3.105,0.927,4.66,2.02,4.66,3.281v22.84c0,34.826,0.146,54.471,0.438,58.928
					c0.773,11.525,3.592,17.286,8.447,17.286c2.039,0,4.271-2.228,6.699-6.688c4.172-7.65,8.592-19.557,13.254-35.709
					c0.975-2.02,3.836-3.024,8.596-3.024c2.23,0,4.369,0.295,6.406,0.883c2.723,0.844,4.078,2.23,4.078,4.164
					c0,1.938-1.02,7.024-3.059,15.27c-3.305,12.955-7.961,23.976-13.98,33.061c-7.383,10.937-16.17,16.404-26.365,16.404
					c-14.76,0-24.811-6.94-30.146-20.821C584.22,196.257,570.769,203.281,554.361,203.281z M557.853,178.549
					c4.564,0,8.84-1.744,12.818-5.236c3.982-3.487,7.576-7.929,10.779-13.312c3.205-5.384,5.924-11.063,8.158-17.036v-1.262
					c-1.168-9.759-3.135-17.328-5.9-22.713c-2.766-5.384-5.73-9.087-8.885-11.104c-3.158-2.019-5.707-3.028-7.648-3.028
					c-8.059,0-14.031,6.396-17.916,19.183c-2.521,7.994-3.785,16.528-3.785,25.617c0,3.362,0.316,7.233,0.947,11.604
					c0.629,4.377,1.916,8.35,3.861,11.924C552.222,176.764,554.748,178.549,557.853,178.549z"/>
				<path fill="#ED3D4E" d="M661.125,203.281c-3.982,0-7.553-0.356-10.703-1.072c-3.158-0.714-4.738-1.745-4.738-3.091v-10.476
					c0-21.871,0.053-38.399,0.148-49.59V81.01c0-2.188,1.504-3.765,4.514-4.732c3.014-0.967,6.314-1.45,9.904-1.45h3.645
					c2.232,0,4.9,0.463,8.012,1.387c3.104,0.927,4.662,2.23,4.662,3.912v20.188c9.709-16.822,21.215-25.234,34.52-25.234
					c12.914,0,21.75,5.383,26.508,16.15c3.496,8.076,5.244,19.265,5.244,33.564c0,6.479-0.244,13.881-0.729,22.209
					c-0.391,4.878-0.58,9.42-0.58,13.627c0,3.365,0.168,6.52,0.51,9.464c0.34,2.945,1.041,5.11,2.111,6.498
					c1.064,1.388,2.277,2.082,3.641,2.082c2.137,0,4.516-2.228,7.139-6.688c5.047-8.577,9.998-20.479,14.855-35.709
					c1.066-2.02,3.979-3.024,8.74-3.024c2.23,0,4.365,0.295,6.404,0.883c2.623,0.758,3.936,2.104,3.936,4.037
					c0,1.516-1.213,6.646-3.643,15.396c-3.787,13.627-8.547,24.647-14.273,33.061c-7.572,10.937-16.701,16.404-27.381,16.404
					c-8.354,0-14.953-2.104-19.811-6.313c-8.645-7.4-12.967-19.937-12.967-37.603l0.146-5.555
					c0.484-9.506,0.729-18.254,0.729-26.243c-0.193-17.75-2.572-26.625-7.137-26.625c-4.467,0-9.248,3.807-14.352,11.42
					c-5.096,7.612-9.637,17.183-13.613,28.705l-0.146,58.045c0,1.515-1.555,2.631-4.66,3.345
					C668.648,202.924,665.103,203.281,661.125,203.281z"/>
				<path fill="#ED3D4E" d="M856.246,51.656L856.246,51.656c10.174,5.818,7.879,8.273,7.879,8.273l-26.752,37.756l-10.881,15.76
					c-4.762,7.513-0.34,24.727-0.34,24.727c2.715,13.209,5.971,23.239,9.76,30.097c3.785,6.855,7.377,10.282,10.771,10.282
					c3.693,0,6.943-1.407,9.764-4.228c2.813-2.817,5.291-6.413,7.43-10.788c2.135-4.374,3.955-8.979,5.461-13.816
					c1.504-4.837,2.84-9.317,4.004-13.438c0.777-1.6,2.744-2.564,5.9-2.902c3.154-0.335,6.166-0.084,9.029,0.758
					c2.861,0.843,4.248,2.314,4.15,4.416c-0.582,4.459-1.582,9.484-2.984,15.079c-1.408,5.596-3.275,11.271-5.607,17.035
					c-2.33,5.762-5.244,11.084-8.738,15.961c-3.496,4.88-7.672,8.834-12.523,11.861c-4.857,3.026-10.584,4.543-17.189,4.543
					c-7.574,0-13.982-1.644-19.225-4.925c-5.244-3.278-9.521-7.397-12.818-12.362c-3.303-4.963-5.875-10.097-7.723-15.396
					c-1.844-5.301-3.154-10.051-3.934-14.259l-0.146,0.127c-0.871,1.515-1.746,3.027-2.621,4.542v26.498c0,2.188,0,4.018,0,5.489
					c0,1.473,0,2.84,0,4.101c0,1.262,0,2.063,0,2.397c0,1.347-1.578,2.355-4.732,3.027c-3.152,0.674-6.725,0.987-10.701,0.944
					c-3.986-0.041-7.557-0.396-10.709-1.071c-3.154-0.67-4.732-1.683-4.732-3.025c0-0.084,0-0.254,0-0.508c0-0.252,0-0.545,0-0.883
					c0-0.334,0-0.631,0-0.884v-8.579c0-2.271,0-10.391,0-24.354s0.051-30.115,0.146-48.456c0-22.542,0-43.638,0-63.279
					c0-19.641,0-31.483,0-35.521c0-1.092,1.555-1.893,4.658-2.397c3.107-0.504,6.68-0.758,10.705-0.758
					c4.029,0,7.602,0.273,10.707,0.82c3.107,0.549,4.66,1.325,4.66,2.334c0,5.132,0,16.7,0,34.699c0,18.003,0,37.352,0,58.043
					c3.205-5.721,6.699-11.188,10.488-16.401l33.123-43.554C842.523,49.444,844.798,46.108,856.246,51.656z"/>
			</g>
			<path fill="#ED3D4E" d="M31.105,198.122c0,0.505,0,0.924,0,1.262c0,1.345-1.579,2.354-4.734,3.028
				c-3.156,0.673-6.725,0.987-10.705,0.946c-3.983-0.045-7.551-0.399-10.706-1.073c-3.156-0.675-4.733-1.685-4.733-3.027
				c0-3.617,0.022-11.631,0.073-24.039c0.048-12.406,0.074-25.803,0.074-40.188c0-21.536,0-37.981,0-49.339v-0.125
				c-0.099-0.085-0.146-0.17-0.146-0.252c0-0.674,0.047-1.305,0.146-1.894c0-0.42,0-0.841,0-1.261c0-0.422,0-0.842,0-1.263v-0.252"
				/>
			<path fill="#ED3D4E" d="M163.676,183.198c-5.534,13.12-15.439,19.683-29.713,19.683c-10.196,0-18.983-5.467-26.364-16.403
				c-5.826-8.662-9.127-19.685-12.623-33.06c-2.135-8.158-3.205-13.249-3.205-15.27c0-1.936,0.05-3.319,2.864-4.164
				c2.039-0.588,4.176-0.883,6.409-0.883c4.759,0,7.625,1.01,8.594,3.027c4.274,15.563,8.645,27.466,13.109,35.709
				c2.427,4.461,4.711,6.688,6.844,6.688c4.76,0,7.527-5.762,8.304-17.286"/>
		</g>
	</g>
	<g id="Layer_2_3_" display="inline">
		<g>
			<path d="M95.098,107.329c0,29.05-23.125,38.031-55.232,38.031H0.113V13.3h34.592c34.019,0,54.659,9.556,54.659,33.637
				c0,16.437-11.849,25.801-24.463,28.477C80,78.279,95.098,85.351,95.098,107.329z M25.341,31.838v35.739h15.48
				c13.76,0,22.742-6.116,22.742-18.539c0-13.378-9.173-17.2-26.374-17.2H25.341z M68.724,106.373
				c0-15.862-11.275-21.213-25.991-21.213H25.341v41.28h14.716C56.684,126.439,68.724,123.001,68.724,106.373z"/>
			<path d="M197.348,145.361h-21.214l-1.338-14.144c-7.454,11.468-17.201,17.011-30.961,17.011
				c-18.348,0-28.285-11.851-28.285-31.345V44.261h24.463v69.566c0,11.85,4.013,15.861,12.422,15.861
				c8.219,0,15.099-5.543,20.45-14.334V44.261h24.463V145.361L197.348,145.361z"/>
			<path d="M314.696,49.612c-7.646,2.677-17.201,3.44-29.241,3.44c12.231,5.542,18.348,13.378,18.348,25.992
				c0,19.685-15.29,34.019-40.708,34.019c-4.396,0-8.218-0.381-12.041-1.526c-2.484,1.72-4.204,4.396-4.204,7.453
				c0,3.631,2.103,7.069,12.231,7.069h15.48c22.36,0,36.886,12.041,36.886,28.668c0,20.258-17.392,32.299-50.455,32.299
				c-35.93,0-46.059-11.467-46.059-31.726h21.978c0,10.13,4.396,14.524,24.463,14.524c19.686,0,25.419-5.353,25.419-13.38
				c0-7.452-5.925-12.039-17.2-12.039h-15.29c-20.258,0-28.858-8.982-28.858-19.493c0-7.071,4.396-14.144,11.85-18.729
				c-12.423-6.498-17.774-15.479-17.774-28.478c0-21.979,17.392-36.313,41.854-36.313c23.89,0.573,34.975-4.777,47.206-11.275
				L314.696,49.612z M244.174,77.324c0,12.23,6.689,19.876,17.965,19.876c11.658,0,17.965-7.264,17.965-20.067
				s-6.115-19.112-18.347-19.112C250.672,58.021,244.174,65.666,244.174,77.324z"/>
			<path d="M419.238,94.715c0,31.535-15.1,53.514-39.943,53.514c-11.085,0-20.259-4.971-26.757-13.188l-1.528,10.318h-21.597V3.744
				l24.463-2.677v54.659c6.498-8.981,16.245-14.333,27.903-14.333C405.287,41.394,419.238,60.888,419.238,94.715z M393.628,94.715
				c0-26.947-8.027-34.974-19.685-34.974c-8.791,0-15.289,5.925-20.067,13.76v44.722c4.396,7.262,11.085,11.657,18.729,11.657
				C385.029,129.881,393.628,120.134,393.628,94.715z"/>
			<path d="M523.783,131.602l-5.16,16.244c-11.086-0.955-18.348-4.969-22.361-14.716c-7.068,10.702-18.154,15.099-30.193,15.099
				c-20.262,0-32.684-12.806-32.684-31.15c0-21.979,16.627-33.828,46.061-33.828h12.611v-5.733c0-13.187-5.924-17.583-18.92-17.583
				c-6.879,0-16.627,1.911-26.756,5.353l-5.732-16.627c12.424-4.778,25.229-7.263,36.693-7.263
				c26.947,0,38.797,12.422,38.797,34.783v42.428C516.138,126.823,518.812,129.689,523.783,131.602z M492.056,118.031V97.582
				h-10.129c-15.859,0-23.695,5.733-23.695,17.583c0,9.747,4.969,15.289,14.334,15.289
				C481.164,130.454,487.47,126.059,492.056,118.031z"/>
			<path d="M611.699,53.435l-9.559,14.333c-8.406-5.351-16.436-8.218-25.418-8.218c-9.748,0-15.289,4.013-15.289,10.129
				c0,6.689,4.016,9.747,21.215,14.525c20.641,5.542,32.299,13.952,32.299,31.916c0,21.021-19.494,32.107-42.619,32.107
				c-17.393,0-30.961-5.926-40.324-14.334l12.23-13.762c7.836,5.926,17.199,9.938,27.521,9.938c10.895,0,17.965-4.586,17.965-12.229
				c0-8.408-4.014-11.085-22.934-16.438c-20.832-5.731-30.006-15.67-30.006-30.576c0-16.818,15.479-29.433,38.986-29.433
				C590.292,41.394,602.142,45.981,611.699,53.435z"/>
			<path d="M717.197,102.359h-63.451c1.721,20.643,11.467,27.33,24.846,27.33c8.982,0,16.438-2.865,25.229-8.981l10.129,13.952
				c-9.938,8.025-22.168,13.568-37.459,13.568c-31.344,0-48.16-20.832-48.16-52.75c0-30.77,16.244-54.085,44.912-54.085
				c28.285,0,44.527,19.112,44.527,51.028C717.769,95.671,717.388,99.686,717.197,102.359z M693.498,85.351
				c0-16.627-5.924-26.564-19.686-26.564c-11.469,0-18.729,7.645-20.066,27.712h39.752V85.351L693.498,85.351z"/>
		</g>
		<path d="M314.656,49.563c0,0-14.683,6.836-14.906,14.313c-0.25,8.374-20.875-13.438-20.875-13.438L314.656,49.563z"/>
	</g>
</g>
<g id="Layer_2_4_">
	<g>
		<path d="M38.552,152.021c-14.095,0-27.576-2.451-38.606-6.739V1.476l1.226-1.43H11.18c10.826,0,14.708,4.697,14.708,16.545v39.016
			c6.536-4.901,14.911-8.579,25.329-8.579c23.695,0,35.747,21.448,35.747,51.271C87.168,132.82,66.741,152.021,38.552,152.021z
			 M25.888,77.872v53.109c4.085,1.021,8.171,1.635,12.869,1.635c13.277,0,20.835-12.053,20.835-33.908
			c0-21.04-6.128-29.824-15.729-29.824C37.939,68.68,30.994,71.948,25.888,77.872z"/>
		<path d="M107.594,72.562c0-7.559-1.021-14.3-4.289-19.405c3.881-3.27,10.213-5.721,16.75-5.721
			c10.622,0,14.299,5.924,14.299,16.75v47.597c0,11.438,2.247,16.341,10.622,16.341c5.719,0,13.89-3.063,20.223-9.396V49.07
			c3.677-0.816,8.579-1.021,13.277-1.021c4.698,0,9.601,0.204,13.481,1.021v72.517c0,7.148,1.839,13.686,5.72,16.954
			c-1.226,4.697-5.106,10.826-8.988,13.48c-10.213-1.021-17.158-6.536-20.631-14.503c-8.783,8.171-19.814,14.708-32.479,14.708
			c-18.997,0-27.985-14.912-27.985-34.931V72.562z"/>
		<path d="M254.054,46.21c12.257,0,21.04,4.494,27.168,10.01c3.881-4.902,9.396-7.967,16.954-8.784
			c3.677,2.656,7.967,8.988,8.784,13.688c-3.882,3.269-5.72,9.805-5.72,16.954v56.99c0,26.352-3.677,37.994-10.009,46.165
			c-7.354,9.192-20.428,14.3-36.156,14.3c-12.869,0-26.964-2.859-36.973-6.945c0-6.332,2.859-15.116,6.741-19.609
			c8.579,4.085,19.201,6.332,27.576,6.332c17.771,0,22.878-10.418,22.878-24.308v-7.967c-6.741,5.311-15.524,9.191-25.125,9.191
			c-24.309,0-36.155-21.244-36.155-52.293C214.018,64.186,233.219,46.21,254.054,46.21z M275.298,74.808
			c-5.72-5.311-11.644-8.17-16.75-8.17c-11.03,0-17.363,11.644-17.363,33.296s6.741,30.641,15.116,30.641
			c6.741,0,13.687-3.474,18.997-9.396v-44.94V74.808z"/>
		<path d="M367.628,152.021c-14.095,0-27.576-2.451-38.606-6.739V1.476l1.227-1.43h10.009c10.826,0,14.708,4.697,14.708,16.545
			v39.016c6.536-4.901,14.911-8.579,25.329-8.579c23.696,0,35.747,21.448,35.747,51.271
			C416.244,132.82,395.818,152.021,367.628,152.021z M354.964,77.872v53.109c4.085,1.021,8.171,1.635,12.869,1.635
			c13.277,0,20.834-12.053,20.834-33.908c0-21.04-6.127-29.824-15.728-29.824C367.016,68.68,360.07,71.948,354.964,77.872z"/>
		<path d="M511.025,152.021c-9.602-1.021-15.73-5.515-19.406-11.643c-7.15,6.944-16.955,12.868-30.232,12.868
			c-20.631,0-30.641-15.934-30.641-30.641c0-23.898,18.385-34.521,39.834-34.521c4.697,0,11.029,0,17.158,0.612v-5.517
			c0-10.621-5.107-15.523-15.117-15.523c-9.396,0-20.426,3.473-31.049,7.148c-3.881-4.289-6.332-12.256-6.945-18.997
			c12.666-5.311,31.254-9.19,44.736-9.19c18.793,0,34.93,10.009,34.93,34.521v41.875c0,6.741,1.43,11.848,5.719,15.116
			C518.787,143.034,514.701,149.366,511.025,152.021z M487.738,124.037v-17.771c-5.107-0.408-10.623-0.613-14.707-0.613
			c-10.623,0-15.936,5.925-15.936,15.32c0,6.741,4.086,12.052,11.439,12.052C474.664,133.024,481.812,129.961,487.738,124.037z"/>
		<path d="M540.644,124.854c8.783,4.697,19.609,8.783,28.395,8.783c9.6,0,14.91-4.086,15.115-9.805
			c0-4.902-3.678-8.784-11.031-11.439l-11.438-4.29c-14.299-5.311-25.738-13.89-25.738-30.026c0-19.609,15.523-31.866,37.994-31.866
			c11.439,0,26.76,3.677,35.543,7.967c0.203,6.332-3.27,15.32-7.559,18.793c-7.762-3.473-17.977-7.149-27.984-7.149
			c-7.148,0-11.439,3.882-11.439,9.192c0,4.493,3.27,7.354,10.215,10.009l12.459,4.494c15.32,5.72,26.557,15.32,26.557,31.866
			c0,19.609-16.342,31.865-40.24,31.865c-15.525,0-29.619-4.698-38.813-10.01C532.88,137.314,536.558,128.939,540.644,124.854z"/>
		<path d="M652.173,108.309c0.816,13.891,5.313,24.104,20.836,24.104c9.805,0,18.996-3.064,27.576-6.945
			c4.084,4.085,6.74,10.826,7.557,16.138c-10.213,7.354-24.92,11.644-39.219,11.644c-34.318,0-43.918-25.737-43.918-53.109
			c0-30.641,13.688-53.928,44.121-53.928c26.76,0,41.672,18.793,41.672,43.306c0,7.966-0.613,12.46-2.246,18.793h-56.379V108.309z
			 M651.968,89.516h33.91v-2.451c0-11.848-4.699-21.652-16.752-21.652C658.097,65.411,652.787,73.991,651.968,89.516z"/>
		<path d="M732.857,126.488c3.473-1.839,9.602-3.269,14.504-3.269c4.697,0,10.824,1.43,14.299,3.269
			c1.43,3.063,2.041,8.783,2.041,11.234s-0.611,8.375-2.041,11.439c-3.27,2.043-9.602,3.269-14.299,3.269
			c-4.902,0-11.031-1.226-14.504-3.269c-1.432-3.064-2.043-8.988-2.043-11.439S731.427,129.552,732.857,126.488z"/>
	</g>
</g>
</svg>
