<?xml version="1.0" encoding="utf-8"?>
<!-- Generator: Adobe Illustrator 16.0.0, SVG Export Plug-In . SVG Version: 6.00 Build 0)  -->
<!DOCTYPE svg PUBLIC "-//W3C//DTD SVG 1.1//EN" "http://www.w3.org/Graphics/SVG/1.1/DTD/svg11.dtd">
<svg version="1.1" xmlns="http://www.w3.org/2000/svg" xmlns:xlink="http://www.w3.org/1999/xlink" x="0px" y="0px"
	 width="1108.66px" height="173.75px" viewBox="0 0 1108.66 173.75" enable-background="new 0 0 1108.66 173.75"
	 xml:space="preserve">
<g id="Layer_1">
	<g id="Layer_1_1_" display="none">
		<g id="Layer_4" display="inline">
			<path fill="#EE3C4D" d="M372,240.375v-121.52c0,0,0.034-15.668,11.622-25.789c7.392-6.456,12.871-7.349,14.563-7.853
				c1.689-0.504,4.146,0.047,7.684-14.941c3.537-14.988,72.131,0,72.131,0v167.884L372,240.375z"/>
			<path fill="#EE3C4D" d="M583,240.375v-121.52c0,0,0.262-15.668-11.326-25.789c-7.395-6.456-12.723-7.349-14.418-7.853
				c-1.691-0.504-4.865,0.047-8.402-14.941c-3.535-14.988-72.854,0-72.854,0v167.884L583,240.375z"/>
			<g id="Layer_3">
				<path fill="#EE3C4D" d="M583.148,240.563c0,58.488-47.416,105.903-105.903,105.903c-58.489,0-105.904-47.417-105.904-105.903
					c0-2.444,0.082-4.869,0.245-7.271c3.736-55.099,49.614-98.633,105.659-98.633C535.732,134.658,583.148,182.074,583.148,240.563z
					"/>
			</g>
		</g>
		<g id="Layer_2" display="inline">
			<circle fill="#EE3C4D" cx="477.467" cy="93.066" r="75.834"/>
		</g>
		<g id="Layer_5" display="inline">
			<path fill="#EE3C4D" stroke="#EE3C4D" stroke-width="5" stroke-miterlimit="10" d="M372,151.994c0,0-36.426-24.457-44.742-32.771
				c-8.316-8.315-8.758-17.22-8.758-17.22V55.371c0,0,0.49-13.16,12.972-13.16c12.484,0,13.339,13.382,13.339,13.382
				s0.41,32.96,0.455,40.276c0.044,7.318,2.43,7.968,2.43,7.968l3.252,2.679l21.525,15.076L372,151.994z"/>
			<path fill="#EE3C4D" stroke="#EE3C4D" stroke-width="5" stroke-miterlimit="10" d="M295.903,237.169
				c-6.091-10.711,2.563-16.629,2.563-16.629L369.5,179.5v26.803l-60.363,35.178C309.137,241.48,300.288,244.881,295.903,237.169z"
				/>
			<path fill="#EE3C4D" stroke="#EE3C4D" stroke-width="5" stroke-miterlimit="10" d="M375.93,240.21
				c0,0-41.831,28.097-51.385,37.649c-9.554,9.553-10.045,19.781-10.045,19.781v56.57c0,0,0.547,15.119,14.887,15.119
				c14.342,0,15.316-15.375,15.316-15.375s0.466-40.865,0.518-49.271c0.051-8.408,2.79-9.152,2.79-9.152l3.735-3.078l24.728-17.32
				L375.93,240.21z"/>
			<path fill="#EE3C4D" stroke="#EE3C4D" stroke-width="5" stroke-miterlimit="10" d="M580.205,151.994
				c0,0,36.324-24.457,44.641-32.771c8.316-8.315,8.654-17.22,8.654-17.22V55.371c0,0-0.387-13.16-12.869-13.16
				c-12.484,0-13.289,13.382-13.289,13.382s-0.383,32.96-0.428,40.276c-0.045,7.318-2.418,7.968-2.418,7.968l-3.246,2.679
				l-21.521,15.076L580.205,151.994z"/>
			<path fill="#EE3C4D" stroke="#EE3C4D" stroke-width="5" stroke-miterlimit="10" d="M656.302,237.169
				c6.091-10.711-2.666-16.629-2.666-16.629L582.5,179.5v26.803l60.467,35.178C642.966,241.48,651.917,244.881,656.302,237.169z"/>
			<path fill="#EE3C4D" stroke="#EE3C4D" stroke-width="5" stroke-miterlimit="10" d="M576.275,240.21
				c0,0,41.729,28.097,51.28,37.649c9.556,9.553,9.941,19.781,9.941,19.781v56.568c0,0-0.443,15.119-14.783,15.119
				c-14.342,0-15.266-15.373-15.266-15.373s-0.441-40.866-0.492-49.271c-0.051-8.408-2.777-9.153-2.777-9.153l-3.729-3.078
				l-24.728-17.32L576.275,240.21z"/>
		</g>
		<g id="Layer_8" display="inline">
			<path fill="#EE3C4D" stroke="#EE3C4D" stroke-width="5" stroke-miterlimit="10" d="M452.817,21.332L426.613-5.984
				c0,0-9.719-8.114,0-17.833c8.091-8.092,18.842,4.095,18.842,4.095l32.778,31.799l33.691-34.508c0,0,8.229-9.062,15.999-1.289
				c7.772,7.774,1.536,16.007-0.988,18.534c-2.526,2.528-25.38,26.327-25.38,26.327L452.817,21.332z"/>
		</g>
		<g id="Layer_9" display="inline">
			<path fill="#EE3C4D" d="M364,252.691V139.009c0,0,0.007-14.659,10.849-24.126c6.915-6.038,12.03-6.874,13.611-7.345
				c1.583-0.472,3.814,0.044,7.125-13.978c3.308-14.021,67.415,0,67.415,0v157.059L364,252.691z"/>
			<path fill="#EE3C4D" d="M562,252.691V139.009c0,0-0.082-14.659-10.921-24.126c-6.918-6.038-12.067-6.874-13.652-7.345
				c-1.583-0.472-4.757,0.044-8.063-13.978c-3.313-14.021-68.359,0-68.359,0v157.059L562,252.691z"/>
			<path fill="#EE3C4D" d="M561.486,252.866c0,54.717-44.359,99.075-99.076,99.075s-99.075-44.357-99.075-99.075
				c0-2.287,0.077-4.554,0.229-6.802c3.495-51.545,46.415-92.272,98.845-92.272C517.127,153.792,561.486,198.148,561.486,252.866z"
				/>
			<circle fill="#EE3C4D" cx="462.618" cy="114.883" r="70.943"/>
			<path fill="#EE3C4D" stroke="#EE3C4D" stroke-width="5" stroke-miterlimit="10" d="M363.953,170.009
				c0,0-34.278-22.879-42.059-30.659c-7.781-7.779-8.395-16.106-8.395-16.106V79.618c0,0,0.659-12.311,12.337-12.311
				c11.68,0,12.58,12.52,12.58,12.52s0.434,30.834,0.476,37.679c0.042,6.848,2.299,7.455,2.299,7.455l3.054,2.506l20.144,14.104
				L363.953,170.009z"/>
			<path fill="#EE3C4D" stroke="#EE3C4D" stroke-width="5" stroke-miterlimit="10" d="M292.763,249.691
				c-5.698-10.021,2.34-15.558,2.34-15.558l66.396-38.394v25.072l-56.413,32.91C305.087,253.725,296.865,256.907,292.763,249.691z"
				/>
			<path fill="#EE3C4D" stroke="#EE3C4D" stroke-width="5" stroke-miterlimit="10" d="M367.629,252.537
				c0,0-39.464,26.283-48.401,35.222c-8.937,8.939-9.728,18.505-9.728,18.505v52.921c0,0,0.842,14.146,14.257,14.146
				c13.417,0,14.494-14.383,14.494-14.383s0.519-38.23,0.567-46.092c0.048-7.865,2.652-8.564,2.652-8.564l3.514-2.879l23.144-16.202
				L367.629,252.537z"/>
			<path fill="#EE3C4D" stroke="#EE3C4D" stroke-width="5" stroke-miterlimit="10" d="M558.73,170.009
				c0,0,33.938-22.879,41.717-30.659c7.778-7.779,8.053-16.106,8.053-16.106V79.618c0,0-0.318-12.311-11.994-12.311
				c-11.68,0-12.41,12.52-12.41,12.52s-0.348,30.834-0.391,37.679c-0.041,6.848-2.256,7.455-2.256,7.455l-3.033,2.506
				l-20.133,14.104L558.73,170.009z"/>
			<path fill="#EE3C4D" stroke="#EE3C4D" stroke-width="5" stroke-miterlimit="10" d="M629.919,249.691
				c5.697-10.021-2.182-15.558-2.182-15.558L561.5,195.742v25.074l56.256,32.908C617.755,253.725,625.818,256.907,629.919,249.691z"
				/>
			<path fill="#EE3C4D" stroke="#EE3C4D" stroke-width="5" stroke-miterlimit="10" d="M555.054,252.537
				c0,0,38.623,26.283,47.562,35.222c8.938,8.939,8.887,18.505,8.887,18.505v52.921c0,0,0,14.146-13.416,14.146
				s-14.072-14.383-14.072-14.383s-0.309-38.23-0.354-46.092c-0.047-7.865-2.545-8.564-2.545-8.564l-3.461-2.879l-23.119-16.202
				L555.054,252.537z"/>
			<path fill="#EE3C4D" stroke="#EE3C4D" stroke-width="5" stroke-miterlimit="10" d="M439.557,47.774L415.044,22.22
				c0,0-9.092-7.591,0-16.683c7.569-7.57,17.626,3.831,17.626,3.831l30.664,29.749l31.521-32.283c0,0,7.693-8.478,14.968-1.206
				c7.271,7.273,1.438,14.975-0.927,17.339c-2.363,2.365-23.74,24.629-23.74,24.629L439.557,47.774z"/>
		</g>
		<g id="Layer_11" display="inline">
			<polygon fill="#FFFFFF" points="453.655,108.952 477,108.952 477,223.549 549.526,307.213 534.188,325.089 464.989,245.018 
				394.7,326.961 379.112,308.706 453.417,222.189 			"/>
		</g>
		<g id="Layer_7" display="inline">
			<g>
				<path fill="#EE3C4D" d="M120.633,1.788c89.502,0,134.902,25.294,134.902,115.444c0,23.349-3.243,46.697-25.943,62.263
					c24.646,15.565,42.157,42.157,42.157,75.882c0,89.501-45.4,114.796-134.902,114.796H26.591C11.675,370.173,0,357.851,0,342.933
					V28.379C0,12.813,11.675,1.788,26.591,1.788H120.633z M94.691,89.993v51.885h26.591c20.754,0,39.563-2.594,39.563-27.239
					c0-22.052-18.809-24.646-39.563-24.646H94.691L94.691,89.993z M177.059,254.729c0-20.754-18.16-23.996-39.562-23.996H94.691
					v51.886h42.806C158.899,282.617,177.059,278.077,177.059,254.729z"/>
			</g>
			<g>
				<path fill="#EE3C4D" d="M919.271,155.629c14.791,0,26.364,10.29,26.364,25.081v160.774c0,15.436-11.573,26.365-26.364,26.365
					H902.55c-12.219,0-20.58-7.719-27.651-17.361c-18.648,18.646-51.447,20.58-59.164,20.58
					c-87.463,0-165.275-46.947-165.275-183.284C650.457,35.371,728.271,0,815.732,0c27.012,0,73.957,9.646,104.823,27.653
					c7.72,4.501,14.148,14.148,14.148,24.438c0,3.859-3.217,7.717-16.724,37.943c-4.502,10.933-12.219,12.862-21.862,12.862
					c-3.859,0-9.004-2.572-12.222-3.858c-19.293-8.36-50.805-11.576-63.668-11.576c-23.147,0-75.885,5.788-75.885,100.323
					c0,50.162,27.654,96.465,77.814,96.465c7.074,0,20.58-0.643,29.582-5.145v-39.229h-26.36c-14.793,0-25.725-10.29-25.725-26.367
					V180.71c0-14.792,10.932-25.081,25.725-25.081H919.271z"/>
			</g>
			<g>
				<g>
					<path fill="#EE3C4D" d="M92.355,386.066c68.521,0,103.279,19.361,103.279,88.383c0,17.875-2.482,35.75-19.861,47.666
						c18.869,11.918,32.275,32.271,32.275,58.096c0,68.521-34.757,87.885-103.279,87.885H20.358C8.938,668.095,0,658.662,0,647.242
						v-240.82c0-11.916,8.938-20.354,20.358-20.354L92.355,386.066L92.355,386.066z M72.494,453.593v39.725h20.357
						c15.889,0,30.289-1.986,30.289-20.854c0-16.883-14.4-18.867-30.289-18.867H72.494V453.593z M135.553,579.712
						c0-15.889-13.903-18.373-30.289-18.373h-32.77v39.727h32.771C121.65,601.064,135.553,597.587,135.553,579.712z"/>
					<path fill="#EE3C4D" d="M421.979,670.58c-29.292,0-36.743-21.85-42.702-38.234l-8.938-23.834h-72.991l-14.399,41.213
						c-2.482,9.934-10.924,18.371-20.854,18.371h-35.75c-11.42,0-19.861-8.438-19.861-20.354l84.411-244.295
						c3.476-10.43,11.917-17.379,21.351-17.379h41.708c9.434,0,17.875,6.949,21.848,17.379l68.024,195.635
						c2.482,6.453,3.973,11.916,5.462,12.412c6.455,3.477,11.917,9.932,11.917,17.875v16.387
						C461.205,664.621,437.868,670.58,421.979,670.58z M318.203,545.453h30.289l-14.896-45.188L318.203,545.453z"/>
					<path fill="#EE3C4D" d="M645.328,668.095c-7.447,0-16.883-4.965-22.344-13.9c-25.324-42.701-57.601-87.393-83.417-129.598
						V647.74c0,11.916-8.441,20.354-19.861,20.354h-32.274c-11.421,0-20.355-8.438-20.355-20.354V406.421
						c0-11.916,8.938-20.354,20.355-20.354h35.254c8.44,0,16.884,4.965,22.843,13.9l73.982,114.697V406.421
						c0-11.916,8.439-20.354,19.859-20.354h32.771c11.42,0,19.861,8.438,19.861,20.354v241.316c0,11.916-8.441,20.354-19.861,20.354
						h-26.813V668.095z"/>
					<path fill="#EE3C4D" d="M877.119,512.681c6.453,8.439,10.924,16.885,19.363,32.771c16.387,32.271,32.771,68.021,49.153,100.795
						c0,12.91-7.94,21.848-19.858,21.848h-35.75c-8.441,0-18.371-7.941-22.347-16.385c-30.782-65.047-41.213-82.922-46.178-90.865
						c-9.434,5.959-21.848,12.908-31.281,16.389v70.508c0,11.916-8.438,20.354-19.858,20.354h-32.771
						c-11.42,0-19.861-8.438-19.861-20.354v-241.32c0-11.916,8.441-20.354,19.861-20.354h32.771c11.42,0,19.858,8.438,19.858,20.354
						v90.369c22.347-11.916,58.593-61.57,67.031-92.355c2.979-9.93,9.437-18.367,19.863-18.367h33.266
						c11.422,0,19.365,8.438,19.365,20.354C929.75,427.277,906.412,479.414,877.119,512.681z"/>
				</g>
			</g>
		</g>
	</g>
	<g id="Layer_2_1_">
		<g>
			<path fill="#ED3C4D" d="M81.854,3.278c33.954,0,53.857,15.684,53.857,44.476c0,14.748-5.854,26.218-17.563,34.177v1.17
				c16.392,7.256,24.587,20.598,24.587,40.028c0,14.748-5.62,26.217-16.625,34.41c-11.006,8.193-25.524,12.172-43.32,12.172H10.669
				c-7.727,0-10.303-2.574-10.303-10.299V13.577c0-7.725,2.576-10.3,10.303-10.3L81.854,3.278L81.854,3.278z M68.742,44.711h-14.05
				v19.897h14.05c8.195,0,11.942-2.575,11.942-9.832C80.684,47.988,76.703,44.711,68.742,44.711z M73.425,106.508H54.692v21.537
				h18.733c8.664,0,12.645-2.809,12.645-11.002C86.069,110.02,81.854,106.508,73.425,106.508z"/>
			<path fill="#ED3C4D" d="M208.303,109.551c0,11.236,6.322,16.855,18.967,16.855s18.967-5.619,18.967-16.855v-95.74
				c0-7.725,2.576-10.299,10.303-10.299h33.72c7.727,0,10.303,2.575,10.303,10.299v92.464c0,41.432-26.226,66.947-73.292,66.947
				s-73.292-25.517-73.292-66.947V13.811c0-7.725,2.576-10.299,10.303-10.299H198c7.727,0,10.303,2.575,10.303,10.299V109.551z"/>
			<path fill="#ED3C4D" d="M453.47,72.801c7.729,0,10.304,2.575,10.304,10.3v29.963c0,17.555-6.558,32.067-19.67,43.305
				c-13.347,11.236-31.61,16.854-55.026,16.854c-47.535,0-74.698-25.75-74.698-67.885V67.885C314.378,25.75,341.541,0,389.076,0
				c36.763,0,60.414,14.279,70.951,42.604c2.576,7.257,0.703,10.534-6.559,13.109l-31.846,11.236
				c-7.493,2.106-10.303,0.936-13.113-6.555c-3.747-9.597-8.43-13.343-19.435-13.343c-15.923,0-20.372,5.618-20.372,20.6v37.921
				c0,14.979,4.449,20.6,20.372,20.6c13.112,0,19.669-3.746,19.669-11.471v-0.938H392.12c-7.728,0-10.303-2.574-10.303-10.3V83.101
				c0-7.725,2.576-10.3,10.303-10.3H453.47z"/>
			<path fill="#ED3C4D" d="M559.783,3.278c33.953,0,53.854,15.684,53.854,44.476c0,14.748-5.854,26.218-17.563,34.177v1.17
				c16.391,7.256,24.588,20.598,24.588,40.028c0,14.748-5.621,26.217-16.627,34.41c-11.004,8.193-25.523,12.172-43.318,12.172
				h-72.123c-7.727,0-10.303-2.574-10.303-10.299V13.577c0-7.725,2.576-10.3,10.303-10.3L559.783,3.278L559.783,3.278z
				 M546.669,44.711H532.62v19.897h14.049c8.196,0,11.944-2.575,11.944-9.832C558.613,47.988,554.63,44.711,546.669,44.711z
				 M551.354,106.508H532.62v21.537h18.731c8.663,0,12.646-2.809,12.646-11.002C563.998,110.02,559.783,106.508,551.354,106.508z"/>
			<path fill="#ED3C4D" d="M786.453,159.646c2.342,6.789,0,10.063-7.26,10.063h-32.781c-11.943,0-16.158-3.043-17.797-10.769
				l-3.277-11.938h-44.023l-3.276,11.938c-2.107,7.726-5.854,10.769-16.861,10.769h-32.78c-7.261,0-9.134-3.274-6.558-10.063
				l52.217-147.708c2.107-6.789,5.152-8.427,12.646-8.427h34.651c7.263,0,10.537,1.873,12.646,8.193L786.453,159.646z
				 M708.71,85.675c-2.576-8.661-3.979-21.067-4.215-27.388l-0.234-4.916h-2.342c0.234,11.47-1.17,22.004-3.746,32.07l-5.149,18.961
				h20.84L708.71,85.675z"/>
			<path fill="#ED3C4D" d="M929.529,3.512c7.727,0,10.303,2.575,10.303,10.299v145.601c0,7.725-2.576,10.299-10.303,10.299h-33.486
				c-4.449,0-7.961-1.639-10.068-4.916l-26.461-42.135c-4.916-7.957-8.43-14.512-10.537-19.662
				c-2.106-4.916-5.854-15.918-11.006-32.538h-1.873c3.98,18.493,6.558,31.132,7.494,37.688c0.701,6.555,1.17,16.619,1.17,30.43
				v20.834c0,7.725-2.576,10.299-10.303,10.299h-29.973c-7.729,0-10.306-2.574-10.306-10.299V13.811
				c0-7.725,2.576-10.299,10.306-10.299h35.824c4.686,0,7.965,1.638,10.069,4.682l30.44,49.626c4.449,7.256,7.024,12.406,8.43,15.45
				c0.703,1.638,2.107,5.384,4.684,11.47c2.576,6.32,4.687,11.938,6.791,16.854h2.107c-6.322-20.833-10.303-34.411-11.475-40.731
				c-1.404-6.086-2.107-14.748-2.107-25.75V13.811c0-7.725,2.576-10.299,10.305-10.299H929.529z"/>
			<path fill="#ED3C4D" d="M1104.214,156.838c3.98,7.256,1.172,12.875-7.022,12.875h-31.613c-13.111,0-17.562-1.873-22.01-11.002
				l-18.968-39.326c-3.278-6.555-6.557-9.832-9.602-9.832h-2.107v49.859c0,7.725-2.575,10.301-10.303,10.301H968.87
				c-7.73,0-10.308-2.576-10.308-10.301V13.811c0-7.725,2.576-10.299,10.308-10.299h33.719c7.728,0,10.303,2.575,10.303,10.299
				v48.456l2.576,0.234h1.64l26.227-49.626c2.107-3.979,4.215-6.555,6.322-7.725c2.106-1.17,6.088-1.638,12.41-1.638h33.483
				c7.494,0,10.07,4.447,6.322,11.236l-36.996,70.226c2.81,3.51,5.385,7.491,7.728,11.938L1104.214,156.838z"/>
		</g>
	</g>
</g>
<g id="Layer_2_2_" display="none">
	<g display="inline">
		<path fill="#ED3D4E" d="M99.335,95.771c9.031,5.049,15.536,11.464,19.519,19.243c3.979,7.782,5.654,15.983,5.025,24.606
			c-0.632,8.623-3.35,16.74-8.156,24.353c-4.808,7.614-11.459,13.839-19.955,18.675c-8.498,4.839-18.571,7.256-30.224,7.256
			c-19.13,0-34.545-5.72-46.245-17.161C7.597,161.305,1.213,144.689,0.145,122.901v-0.253c0-0.42,0-0.839,0-1.262
			c0-0.42,0-0.84,0-1.262C0.048,119.538,0,118.908,0,118.232c0-0.082,0.048-0.168,0.145-0.251v-0.127c0-11.357,0-27.802,0-49.337
			c0-14.385-0.025-27.781-0.072-40.189C0.023,15.919,0,7.908,0,4.289c0-1.344,1.577-2.354,4.733-3.028
			c3.154-0.672,6.724-1.029,10.706-1.072c3.98-0.042,7.549,0.274,10.706,0.946c3.153,0.674,4.733,1.683,4.733,3.028
			c0,0.337,0,0.758,0,1.262C38.744,1.81,47.433,0,56.951,0c11.845,0,21.994,2.293,30.441,6.877
			c8.448,4.585,15.099,10.535,19.956,17.854c4.854,7.319,7.84,15.269,8.958,23.849c1.115,8.58,0.265,16.992-2.549,25.236
			C110.939,82.062,106.132,89.381,99.335,95.771z M57.096,25.488c-3.691,0-7.5,0.758-11.434,2.271
			c-3.932,1.515-7.26,4.418-9.978,8.707c-2.719,4.291-4.322,10.474-4.806,18.549c0,1.01,0,2.02,0,3.029c0,9.337,0,18.97,0,28.896
			c5.244,0.084,10.243,0.126,15.003,0.126c1.456,0,2.862,0,4.224,0c9.709-0.252,17.405-2.439,23.086-6.562
			c5.68-4.121,9.515-9.211,11.506-15.268c1.989-6.057,2.232-12.113,0.728-18.17c-1.506-6.057-4.66-11.167-9.467-15.331
			C71.152,27.571,64.864,25.488,57.096,25.488z M64.379,164.415c6.795,0,12.453-1.767,16.969-5.299
			c4.515-3.534,7.67-7.887,9.467-13.061c1.795-5.173,2.014-10.347,0.655-15.521c-1.361-5.174-4.516-9.527-9.468-13.06
			c-4.952-3.533-11.993-5.3-21.12-5.3c-8.254,0-18.256,0-30.004,0c0,2.776,0,5.511,0,8.201c0,10.096,1.529,18.382,4.588,24.858
			c3.059,6.479,7.137,11.293,12.235,14.448C52.8,162.838,58.357,164.415,64.379,164.415z"/>
		<path fill="#ED3D4E" d="M247.175,189.778c-14.274,0-24.179-6.563-29.713-19.686c-6.507,13.123-17.093,19.686-31.753,19.686
			c-10.101,0-18.718-1.872-25.854-5.616c-7.138-3.742-12.599-8.958-16.386-15.646c-3.787-6.688-5.68-14.403-5.68-23.154V67.254
			c0-1.849,1.552-3.259,4.662-4.226c3.105-0.967,6.7-1.451,10.778-1.451c3.98,0,7.523,0.567,10.633,1.703
			c3.106,1.135,4.661,2.882,4.661,5.237v69.148c0,7.319,0.874,12.956,2.622,16.907c3.106,7.151,8.011,10.727,14.711,10.727
			c4.272,0,8.252-1.43,11.943-4.29c7.961-6.141,12.672-20.862,14.129-44.165V67.76c0-2.271,1.577-3.89,4.733-4.859
			c3.154-0.966,6.723-1.451,10.706-1.451c3.98,0.085,7.549,0.549,10.706,1.389c3.154,0.841,4.734,2.02,4.734,3.533v22.84
			c0,34.826,0.146,54.47,0.437,58.927c0.777,11.526,3.543,17.287,8.303,17.287c2.134,0,4.416-2.228,6.845-6.688
			c4.465-8.242,8.835-20.146,13.11-35.709c0.969-2.02,3.834-3.027,8.593-3.027c2.232,0,4.37,0.295,6.409,0.883
			c2.815,0.842,4.224,2.23,4.224,4.164c0,2.018-1.07,7.109-3.204,15.268c-3.496,13.376-8.157,24.396-13.983,33.06
			C266.158,184.31,257.371,189.778,247.175,189.778z"/>
		<path fill="#ED3D4E" d="M331.946,260.686 M302.524,228.255 M307.039,190.03c-15.926,0-26.945-8.455-33.063-25.363
			c-3.108-8.495-4.66-18-4.66-28.517c0-7.906,0.899-16.131,2.694-24.67c1.795-8.535,4.683-16.592,8.667-24.162
			c3.98-7.571,8.86-13.69,14.638-18.36c5.775-4.668,12.308-7.003,19.592-7.003c10.486,0,19.612,4.082,27.382,12.24
			c0.096-0.758,0.145-2.776,0.145-6.057c0.387-4.121,6.021-6.184,16.896-6.184c3.497,0,6.722,0.295,9.686,0.884
			c2.961,0.589,4.444,1.347,4.444,2.271v61.83l-0.146,33.059c12.911-8.662,21.651-21.029,26.217-37.097
			c1.067-2.019,4.174-3.028,9.321-3.028c2.135,0,4.225,0.295,6.262,0.883c2.915,0.757,4.37,2.104,4.37,4.037v0.127
			c-1.069,6.73-3.545,14.218-7.427,22.461c-3.886,8.245-9.055,15.92-15.513,23.027c-6.46,7.109-14.201,12.389-23.231,15.838v9.336
			c-0.441,9.339-1.118,15.217-3.35,25.733c-2.237,10.515-5.451,17.531-8.496,23.385c0,0-8.047,15.985-29.52,15.985
			c-31.744,0-30.783-32.431-30.783-32.431c0-4.712,0.121-10.39,1.724-17.034c0,0-1.766-3.306,8.776-3.108
			c10.541,0.197,10.428,4.419,10.428,4.419s-0.908,31.914,11.334,28.771c12.242-3.142,15.041-28.685,13.148-63.433
			c-0.206-3.781,0.472-5.188-3.546,0.25C343.027,178.119,334.156,190.03,307.039,190.03z M310.534,165.299
			c4.465,0,8.689-1.723,12.673-5.174c7.476-6.477,13.787-16.485,18.935-30.031v-3.029c-2.235-16.823-7.187-27.675-14.856-32.555
			c-3.108-1.934-5.632-2.902-7.574-2.902c-4.176,0-7.77,1.811-10.778,5.426c-3.011,3.619-5.342,8.202-6.993,13.754
			c-2.525,8.076-3.786,16.32-3.786,24.732c0,3.703,0.292,7.803,0.874,12.303c0.582,4.502,1.868,8.539,3.86,12.113
			C304.877,163.513,307.425,165.299,310.534,165.299z"/>
		<path fill="#ED3D4E" d="M455.168,190.03c-11.651,0-21.362-3.616-29.129-10.852v6.435c0,1.515-1.58,2.631-4.733,3.345
			c-3.157,0.716-6.726,1.072-10.707,1.072c-3.982,0-7.525-0.356-10.632-1.072c-3.107-0.714-4.661-1.745-4.661-3.091V5.93
			c0-3.701,5.146-5.551,15.439-5.551c3.98,0,7.523,0.337,10.633,1.009c3.105,0.674,4.661,1.473,4.661,2.397v38.303v48.511
			c0,0,0.063,0.22,0.148-0.057c5.143-16.658,19.807-28.586,33.207-28.586c8.543,0,15.754,2.713,21.629,8.139
			c5.874,5.427,10.414,12.473,13.616,21.135c3.692,10.265,5.538,21.072,5.538,32.43c0,8.58-1.022,16.951-3.06,25.11
			c6.603-1.683,11.456-4.625,14.565-8.833c3.107-4.205,5.534-9.842,7.282-16.908c0.971-2.02,3.883-3.027,8.739-3.027
			c2.134,0,4.226,0.295,6.264,0.883c2.816,0.842,4.224,2.23,4.224,4.164v0.252c-1.456,10.768-5.996,20.422-13.619,28.959
			c-7.624,8.539-19.541,13.565-35.757,15.078C480.755,183.133,469.54,190.03,455.168,190.03z M467.632,102.061
			c0,0-2.948-12.569-21.312-11.391c-5.882,0.377-21.083,11.391-19.116,39.632c-0.436,17.615,11.116,28.668,14.711,31.905
			c3.592,3.239,9.952,5.229,12.673,4.858c10.096-1.374,14.818-20.012,15.762-34.76C471.342,116.754,467.632,102.061,467.632,102.061
			z"/>
		<path fill="#ED3D4E" d="M554.361,190.03c-15.928,0-26.947-8.455-33.064-25.363c-3.108-8.495-4.66-18-4.66-28.517
			c0-7.906,0.896-16.131,2.692-24.67c1.798-8.535,4.685-16.592,8.667-24.162c3.981-7.571,8.861-13.69,14.639-18.36
			c5.776-4.668,12.308-7.003,19.592-7.003c10.488,0,19.611,4.038,27.383,12.114V67.76c0-4.039,4.514-6.058,13.545-6.058
			c4.854,0,9.031,0.463,12.527,1.388c3.104,0.927,4.659,2.02,4.659,3.281v22.84c0,34.826,0.146,54.47,0.438,58.927
			c0.776,11.526,3.591,17.287,8.449,17.287c2.039,0,4.271-2.228,6.7-6.688c4.172-7.653,8.592-19.557,13.253-35.709
			c0.972-2.02,3.836-3.027,8.594-3.027c2.233,0,4.371,0.295,6.409,0.883c2.719,0.842,4.078,2.23,4.078,4.164
			c0,1.936-1.02,7.024-3.059,15.268c-3.303,12.955-7.962,23.975-13.981,33.06c-7.383,10.936-16.169,16.404-26.365,16.404
			c-14.759,0-24.81-6.94-30.149-20.821C584.22,183.007,570.769,190.03,554.361,190.03z M557.854,165.299
			c4.563,0,8.837-1.745,12.817-5.237c3.983-3.489,7.576-7.928,10.78-13.311c3.205-5.384,5.923-11.062,8.157-17.036v-1.262
			c-1.167-9.758-3.131-17.328-5.9-22.713c-2.766-5.382-5.729-9.086-8.885-11.104c-3.157-2.019-5.706-3.028-7.648-3.028
			c-8.059,0-14.031,6.395-17.915,19.18c-2.524,7.994-3.786,16.531-3.786,25.617c0,3.364,0.316,7.235,0.948,11.607
			c0.629,4.376,1.915,8.35,3.86,11.924C552.222,163.513,554.748,165.299,557.854,165.299z"/>
		<path fill="#ED3D4E" d="M661.124,190.03c-3.981,0-7.552-0.356-10.703-1.072c-3.158-0.714-4.737-1.745-4.737-3.091v-10.474
			c0-21.871,0.05-38.401,0.147-49.589V67.76c0-2.188,1.505-3.765,4.515-4.732c3.01-0.967,6.312-1.451,9.904-1.451h3.644
			c2.232,0,4.901,0.463,8.009,1.387c3.107,0.927,4.663,2.231,4.663,3.912v20.189c9.708-16.824,21.214-25.236,34.519-25.236
			c12.914,0,21.75,5.383,26.509,16.151c3.496,8.076,5.243,19.264,5.243,33.565c0,6.479-0.243,13.881-0.729,22.209
			c-0.389,4.878-0.581,9.42-0.581,13.627c0,3.365,0.169,6.52,0.51,9.464c0.34,2.945,1.042,5.11,2.111,6.498
			c1.067,1.388,2.28,2.082,3.642,2.082c2.137,0,4.516-2.228,7.138-6.688c5.048-8.58,9.998-20.482,14.855-35.709
			c1.069-2.02,3.982-3.027,8.741-3.027c2.232,0,4.368,0.295,6.407,0.883c2.623,0.757,3.933,2.104,3.933,4.037
			c0,1.515-1.214,6.646-3.641,15.395c-3.787,13.627-8.546,24.649-14.275,33.06c-7.572,10.936-16.701,16.404-27.381,16.404
			c-8.354,0-14.954-2.102-19.809-6.31c-8.645-7.401-12.966-19.937-12.966-37.603l0.146-5.552c0.486-9.506,0.729-18.254,0.729-26.245
			c-0.194-17.749-2.573-26.625-7.138-26.625c-4.466,0-9.248,3.806-14.348,11.419c-5.097,7.615-9.637,17.183-13.616,28.707
			l-0.147,58.043c0,1.515-1.555,2.631-4.66,3.345C668.648,189.674,665.104,190.03,661.124,190.03z"/>
		<path fill="#ED3D4E" d="M856.246,38.405L856.246,38.405c10.174,5.819,7.878,8.274,7.878,8.274l-26.751,37.756l-10.882,15.761
			c-4.761,7.511-0.339,24.725-0.339,24.725c2.715,13.209,5.971,23.239,9.759,30.096c3.785,6.856,7.378,10.283,10.775,10.283
			c3.692,0,6.942-1.407,9.76-4.228c2.816-2.817,5.291-6.413,7.431-10.788c2.134-4.374,3.954-8.979,5.461-13.816
			c1.504-4.837,2.839-9.317,4.004-13.439c0.777-1.597,2.743-2.564,5.899-2.902c3.155-0.335,6.166-0.084,9.031,0.758
			c2.863,0.842,4.247,2.314,4.151,4.416c-0.582,4.459-1.581,9.484-2.986,15.079c-1.408,5.595-3.276,11.273-5.607,17.035
			c-2.33,5.762-5.245,11.084-8.738,15.961c-3.497,4.88-7.673,8.834-12.527,11.861c-4.856,3.028-10.583,4.543-17.187,4.543
			c-7.575,0-13.984-1.641-19.226-4.922c-5.244-3.281-9.52-7.4-12.818-12.365c-3.302-4.963-5.875-10.095-7.722-15.395
			c-1.845-5.301-3.155-10.051-3.932-14.259l-0.146,0.127c-0.872,1.514-1.746,3.027-2.621,4.542v26.498c0,2.188,0,4.018,0,5.489
			c0,1.473,0,2.84,0,4.101c0,1.262,0,2.063,0,2.397c0,1.347-1.578,2.356-4.732,3.029c-3.156,0.674-6.726,0.988-10.705,0.945
			c-3.985-0.041-7.553-0.397-10.708-1.072c-3.154-0.671-4.732-1.682-4.732-3.027c0-0.084,0-0.254,0-0.506s0-0.546,0-0.884
			c0-0.334,0-0.63,0-0.883v-8.58c0-2.271,0-10.389,0-24.353c0-13.963,0.051-30.115,0.146-48.456c0-22.542,0-43.637,0-63.279
			c0-19.641,0-31.483,0-35.521c0-1.092,1.552-1.893,4.659-2.398c3.107-0.504,6.676-0.758,10.705-0.758s7.598,0.274,10.707,0.821
			c3.107,0.548,4.66,1.325,4.66,2.334c0,5.131,0,16.7,0,34.699c0,18.003,0,37.351,0,58.044c3.205-5.72,6.699-11.187,10.487-16.403
			l33.123-43.553C842.523,36.194,844.798,32.858,856.246,38.405z"/>
	</g>
	<path display="inline" fill="#ED3D4E" d="M31.105,184.872c0,0.505,0,0.924,0,1.262c0,1.345-1.579,2.354-4.734,3.028
		c-3.156,0.673-6.725,0.988-10.705,0.947c-3.983-0.045-7.551-0.4-10.706-1.074c-3.156-0.674-4.733-1.683-4.733-3.027
		c0-3.617,0.022-11.631,0.073-24.039c0.048-12.407,0.074-25.803,0.074-40.188c0-21.536,0-37.981,0-49.338v-0.125
		c-0.099-0.085-0.146-0.17-0.146-0.252c0-0.674,0.047-1.305,0.146-1.894c0-0.42,0-0.841,0-1.261c0-0.422,0-0.841,0-1.262v-0.252"/>
	<path display="inline" fill="#ED3D4E" d="M163.676,169.947c-5.534,13.122-15.439,19.683-29.713,19.683
		c-10.196,0-18.983-5.467-26.364-16.404c-5.826-8.662-9.127-19.684-12.623-33.059c-2.135-8.158-3.205-13.249-3.205-15.269
		c0-1.934,0.05-3.32,2.864-4.163c2.039-0.589,4.176-0.884,6.409-0.884c4.759,0,7.625,1.01,8.594,3.029
		c4.274,15.563,8.645,27.466,13.109,35.709c2.427,4.461,4.711,6.688,6.844,6.688c4.76,0,7.527-5.762,8.304-17.288"/>
</g>
</svg>
