<?xml version="1.0" encoding="utf-8"?>
<!-- Generator: Adobe Illustrator 16.0.0, SVG Export Plug-In . SVG Version: 6.00 Build 0)  -->
<!DOCTYPE svg PUBLIC "-//W3C//DTD SVG 1.1//EN" "http://www.w3.org/Graphics/SVG/1.1/DTD/svg11.dtd">
<svg version="1.1" xmlns="http://www.w3.org/2000/svg" xmlns:xlink="http://www.w3.org/1999/xlink" x="0px" y="0px"
	 width="268.363px" height="236.056px" viewBox="0 0 268.363 236.056" enable-background="new 0 0 268.363 236.056"
	 xml:space="preserve">
<g id="Layer_3">
	<g>
		<path fill-rule="evenodd" clip-rule="evenodd" fill="#C2A6A1" d="M73.347,0.006c8.632-0.118,17.1,1.574,25.639,2.434
			c11.887,1.196,23.729,2.821,35.593,4.242c12.11,1.451,24.221,2.911,36.339,4.305c11.874,1.364,23.764,2.594,35.634,3.99
			c9.888,1.164,19.758,2.482,29.636,3.731c-0.16,2.311-1.899,2.384-3.506,2.261c-6.217-0.475-12.117,0.708-18.021,2.624
			c-8.555,2.776-17.217,5.238-26.025,7.132c-2.436,0.524-4.493,2.173-7.028,2.449c-9.833-0.712-19.616-1.93-29.437-2.752
			c-5.665,0.437-11.144-1.134-16.73-1.592c-11.811-0.969-23.612-2.077-35.397-3.335c-2.877-0.307-5.74-0.082-8.394,1.292
			c-8.125,0.608-16.223-0.499-24.344-0.407c-1.155-1.069-0.973-2.499-0.988-3.85c-0.041-3.617,0.196-7.25-0.067-10.848
			c-0.34-4.646,1.411-7.961,5.412-10.203C72.318,1.11,72.81,0.526,73.347,0.006z"/>
		<path fill-rule="evenodd" clip-rule="evenodd" fill="#8F726B" d="M0.667,113.217c-0.724-4.773,0.447-9.635-0.667-14.393
			c5.196-8.116,12.423-14.313,19.517-20.634c6.043-5.716,12.086-11.434,18.13-17.15c0.747-0.706,1.374-1.458,1.083-2.595
			c0.019-12.934,0.057-25.868,0.035-38.802c-0.004-2.192,0.035-4.262,2.235-5.511c3.13-2.586,6.944-3.535,10.759-4.461
			c1.805-0.439,3.631-0.772,5.272,0.548c0.265,0.374,0.407,0.789,0.437,1.244c-0.434,15.965-0.109,31.934-0.157,47.899
			c-0.01,3.397-0.619,6.673-1.216,9.977c-0.582,3.223-2.593,4.757-5.738,4.781c-9.565,0.071-7.976,1.686-9.346,9.04
			c-0.942,5.054-0.541,10.182-1.279,15.264c-0.846,5.826-3.769,9.109-9.336,10.739c-7.719,2.26-15.698,2.771-23.573,3.958
			C4.836,113.421,2.729,114.657,0.667,113.217z"/>
		<path fill-rule="evenodd" clip-rule="evenodd" fill="#C2A6A1" d="M182.158,32.014c13.265-4.935,27.06-8.08,40.657-11.875
			c3.151-0.88,6.672-1.4,10.069-0.202c1.334,0.469,2.394-0.295,3.302-1.229c7.002,0.716,14.005,1.432,21.007,2.147
			c7.925,1.067,11.281,4.903,11.167,13.039c-0.188,13.438-0.473,26.875-0.717,40.313c-0.504,0.434-1.217,0.728-1.71,0.401
			c-3.308-2.198-5.477-0.267-7.657,1.934c-1.034,1.043-2.179,2.323-3.837,1.557c-1.659-0.769-1.322-2.507-1.341-3.953
			c-0.055-4.086-0.016-8.172-0.026-12.261c0.003-4.103-0.071-8.204,0.029-12.302c0.06-2.422-0.302-4.69-1.475-6.812
			c-1.039-2.243-2.933-3.399-5.261-3.607c-8.97-0.805-17.937-1.637-26.897-2.533c-5.696-0.461-11.405-0.798-17.057-1.706
			c-6.476-0.337-12.939-0.792-19.341-1.911C182.66,32.779,182.357,32.444,182.158,32.014z"/>
		<path fill-rule="evenodd" clip-rule="evenodd" fill="#8F726B" d="M62.864,3.481c0.516-0.185,1.033-0.369,1.549-0.553
			c4.027,6.793,2.282,14.29,2.629,21.533c0.125,2.63,1.167,5.072,1.657,7.637c0.372,10.992,0.421,21.979,0.003,32.964
			c0.106,6.803,0.925,13.624-0.467,20.39c-1.599,1.982-2.394,0.249-2.924-0.838c-1.019-2.088-2.443-3.59-4.41-4.862
			c-2.487-1.61-2.736-4.593-3.538-7.188c-0.149-19.454-0.031-38.903-0.068-58.353c-0.002-1.127,0.165-2.234,0.266-3.344
			c-0.8-2.271,0.446-3.746,2.019-5.071C60.606,4.931,61.967,4.535,62.864,3.481z"/>
		<path fill-rule="evenodd" clip-rule="evenodd" fill="#8F726B" d="M62.864,3.481c-1.124,2.565-3.813,3.797-5.214,6.127
			c-0.037,0.501-0.321,0.754-0.806,0.809c-5.604-0.143-10.512,2.689-15.843,3.716c2.445-4.601,6.729-6.379,11.448-7.601
			C55.949,5.625,59.394,4.506,62.864,3.481z"/>
		<path fill-rule="evenodd" clip-rule="evenodd" fill="#8F726B" d="M67.241,31.448c-1.265-6.258-0.417-12.583-0.497-18.873
			c-0.042-3.343-0.134-6.036-4.896-5.188c1.001-1.741,1.784-3.1,2.566-4.46c2.979-0.974,5.956-1.949,8.933-2.923
			c-0.018,1.266-0.861,2.102-1.727,2.756c-3.619,2.737-4.726,6.28-4.325,10.745c0.377,4.196,0.114,8.45,0.133,12.678
			C69.048,27.998,69.089,29.756,67.241,31.448z"/>
		<path fill-rule="evenodd" clip-rule="evenodd" fill="#C2A6A1" d="M101.222,232.887c-5.845,1.037-11.727,1.79-17.648,2.185
			c-1.134,0.075-2.183,0.363-3.242,0.702c-2.408,0.417-4.785,0.525-7.007-0.77c-2.102-2.399-5.203-3.929-6.322-7.201
			c-0.836-1.722-1.09-3.565-1.081-5.439c0.059-12.911-0.289-25.824,0.191-38.733c-0.393-16.325-0.348-32.649-0.046-48.974
			c0.356-2.018-0.624-4.217,0.797-6.092c2.26,0.083,2.889,0.62,2.858,3.229c-0.042,3.487-0.139,6.974-0.148,10.464
			c-0.006,2.413,0.396,4.688,1.734,6.795c0.437-1.449,1.646-1.921,2.826-2.374c2.328-0.892,4.688-1.709,7.096-2.348
			c3.808-1.01,5.152-0.179,5.533,3.684c0.336,3.406,1.123,6.567,3.371,9.246c0.353,12.414-0.049,24.83,0.227,37.238
			c0.084,3.776-0.725,7.691,0.996,11.337c1.588,3.491,4.34,4.415,7.991,3.984c26.401-3.11,52.83-5.979,79.249-8.931
			c22.45-2.508,44.938-4.683,67.358-7.47c0.866-0.106,1.754-0.126,2.46-0.741c0.647-0.739,1.478-1.312,2.023-2.151
			c1.354-1.287,0.998-2.87,0.761-4.439c-0.039-9.588-0.722-19.226,0.19-28.729c1.027-10.695,0.733-21.357,0.935-32.036
			c0.028-1.496-0.034-2.982-0.353-4.452c-0.306-4.082,0.281-8.164-0.009-12.247c-0.106-13.798-0.041-27.597-0.041-41.395
			c0-1.615-0.062-3.252,0.947-4.668c0.333-0.451,0.766-0.587,1.297-0.41c0.013,4.47,0.016,8.939,0.048,13.409
			c0.005,0.712-0.161,1.64,0.74,1.901c0.825,0.239,1.364-0.475,1.776-1.074c0.705-1.022,1.515-1.911,2.389-2.804
			c3.173-3.242,5.74-0.203,8.525,0.624c0.06,3.249,0.12,6.498,0.182,9.746c-0.064,17.472-0.13,34.943-0.195,52.415
			c-0.833,1.233-0.586,2.639-0.59,3.988c-0.058,18.534-0.134,37.068-0.111,55.604c0.005,3.841,0.218,7.646-2.271,10.932
			c-2.4,4.356-6.869,3.921-10.79,4.475c-11.568,1.635-23.157,3.13-34.755,4.548"/>
		<path fill-rule="evenodd" clip-rule="evenodd" fill="#8F726B" d="M11.166,194.962c-2.3-8.999-4.562-18.01-6.943-26.987
			c-0.321-1.21-0.628-2.381-0.659-3.625c0.881-3.165,2.932-1.413,4.275-0.764c5.267,2.549,10.628,4.905,15.81,7.631
			c5.328,2.804,10.643,3.239,15.936-0.109c1.189-0.752,2.497-1.174,3.912-0.961c4.511,0.679,8.813,2.606,13.504,2.253
			c0.304-0.023,0.519,0.495,0.725,0.814c0.695,5.688,0.237,11.394,0.288,17.088c0.099,11.015-0.147,22.036,0.603,33.035
			c-1.025,2.866-3.183,2.621-5.467,1.955c-3.298-0.962-6.432-2.381-9.673-3.502c-1.032-0.432-2.064-0.863-3.096-1.295
			c-2.187-1.938-2.04-4.524-1.978-7.087c-0.079-0.773-0.319-1.444-1.09-1.81c-7.269-3.446-14.111-7.763-21.67-10.615
			C13.435,199.508,12.021,197.443,11.166,194.962z"/>
		<path fill-rule="evenodd" clip-rule="evenodd" fill="#846B66" d="M39.661,212.989c-0.219,2.546,0.181,5.032,0.719,7.506
			c-4.66-1.598-9.313-3.22-13.987-4.777c-1.405-0.469-1.884-1.368-1.856-2.776c0.044-2.223-0.016-4.447-0.032-6.671
			c0.652-0.563,1.393-0.509,2.072-0.155C30.946,208.393,35.594,210.139,39.661,212.989z"/>
		<path fill-rule="evenodd" clip-rule="evenodd" fill="#715852" d="M73.558,233.957c-8.287-1.804-15.906-5.569-23.929-8.148
			c-1.534-0.493-3.044-1.059-4.566-1.592c-0.529-0.81-1.058-1.617-1.586-2.426c3.772-1.18,6.708,1.414,10.008,2.303
			c1.438,0.388,2.701,1.145,4.11,0.104c0.895,0.009,1.691,0.493,2.586,0.53c2.428,1.763,5.612,2.029,7.922,4.017
			C70.112,230.283,72.035,231.911,73.558,233.957z"/>
		<path fill-rule="evenodd" clip-rule="evenodd" fill="#715852" d="M39.661,212.989c-5.539-1.143-9.97-4.781-15.156-6.72
			c-2.811-2.002-6.568-2.418-8.862-5.286c1.007-1.159,2.031-0.498,3.026-0.003c6.242,3.109,12.475,6.234,18.718,9.342
			C38.535,210.895,39.618,211.49,39.661,212.989z"/>
		<path fill-rule="evenodd" clip-rule="evenodd" fill="#8F726B" d="M0.667,113.217c7.105-2.509,14.687-2.235,21.955-3.771
			c3.036-0.641,5.986-1.698,9.026-2.315c4.66-0.947,5.86-4.278,6.533-8.375c1.129-6.879,0.774-13.869,1.986-20.776
			c0.656-3.735,2.35-4.81,5.436-5.232c0.124-0.017,0.252,0,0.374-0.023c2.625-0.493,5.956,1.333,7.814-1.072
			c2.241-2.901,2.269-6.852,2.306-10.415c0.158-15.237,0.059-30.477,0.089-45.717c0.003-1.457-0.425-3.021,0.667-4.327
			c0.5,0.437,0.702,1.002,0.752,1.65c0.068,0.873,0.063,1.748,0.056,2.621c-0.279,34.085,0.522,68.166,0.368,102.251
			c-0.009,1.996,0.096,3.996-0.142,5.981c-1.032,2.994-3.338,4.157-6.307,4.359c-1.495,0.103-2.991,0.081-4.486,0.022
			c-5.148-0.201-5.143-0.2-6.057,5.079c-1.827,10.561-2.486,12.074-14.93,12.923c-6.125,0.418-12.203,0.168-17.912-2.68
			c-2.824-1.41-5.512-2.898-7.48-5.436C0.698,129.716,0.683,121.467,0.667,113.217z"/>
		<path fill-rule="evenodd" clip-rule="evenodd" fill="#8F726B" d="M0.714,137.965c3.33,0.163,5.272,2.988,8.096,4.243
			c8.455,3.76,16.976,2.758,25.599,1.359c2.092-0.339,3.289-1.661,3.723-3.668c0.785-3.631,1.562-7.264,2.255-10.913
			c0.466-2.451,1.539-3.017,4.17-2.67c4.167,0.549,8.687,1.745,12.322-1.868c1.476,1.194,1.099,2.888,1.129,4.432
			c0.064,3.302,0.02,6.604,0.024,9.908c-0.003,9.847,0.007,19.693-0.01,29.54c-0.002,1.461,0.329,3.048-1.114,4.136
			c-1.778,1.482-3.659,1.845-5.893,0.933c-1.716-0.701-3.592-1.001-5.373-1.556c-2.355-0.734-4.233-0.576-6.481,1.051
			c-4.01,2.901-8.876,2.709-13.198,0.855c-6.506-2.79-12.731-6.237-19.082-9.394c-1.093-0.543-2.211-1.399-3.318-0.004
			C-0.198,155.858,0.561,146.879,0.714,137.965z"/>
		<path fill-rule="evenodd" clip-rule="evenodd" fill="#C2A6A1" d="M67.241,31.448c0.063-1.755,0.125-3.509,0.187-5.265
			c2.686-1.667,5.489-1.565,8.55-1.122c3.514,0.508,7.132,0.3,10.707,0.376c1.601,0.034,3.226-0.138,4.686,0.751
			c0.473,0.919,0.174,1.741-0.313,2.542c-0.898,1.599-0.832,3.36-0.76,5.089c0.451,11.03-1.079,22.056-0.034,33.089
			c0.124,1.322,0.296,2.746-0.571,3.969c-1.625,1.228-2.434-0.236-2.826-1.211c-1.285-3.198-3.843-3.223-6.528-2.879
			c-2.606,0.334-5.196,0.712-7.83,0.47c-1.893-0.174-3.73-0.495-5.051-2.071C67.386,53.94,67.314,42.695,67.241,31.448z"/>
		<path fill-rule="evenodd" clip-rule="evenodd" fill="#856862" d="M90.603,27.717c0.256-0.509,0.513-1.018,0.768-1.528
			c1.085-2.044,2.818-2.582,5.026-2.374c12.913,1.218,25.833,2.361,38.746,3.576c5.687,0.535,11.362,1.18,17.043,1.775
			c1.143,2.221-0.45,3.512-1.771,4.736c-3.904,3.624-8.747,3.979-13.622,3.197c-3.708-0.594-7.42-0.155-11.104-0.666
			c-1.89-0.261-3.063,1.48-4.7,1.998c-6.96-0.229-13.886-1.042-20.858-1.075c-3.949-0.019-5.959,1.576-6.354,5.578
			c-0.17,1.74-0.082,3.496-0.082,5.245c-0.003,46.602,0.006,93.203-0.021,139.806c-0.002,2.328,0.488,4.792-1.197,6.85
			c-0.437,0.346-0.881,0.354-1.334,0.032c-1.252-1.375-0.828-3.075-0.832-4.655c-0.029-13.105-0.02-26.212-0.016-39.316
			c0.312-14.31-0.596-28.62,0-42.931c0.011-5.778,0.005-11.557,0.004-17.336c0.042-11.321-0.275-22.64-0.263-33.954
			c0.009-8.073-0.046-16.146-0.108-24.218C89.915,30.85,89.714,29.201,90.603,27.717z"/>
		<path fill-rule="evenodd" clip-rule="evenodd" fill="#856862" d="M121.438,37.324c4.331-3.902,9.44-2.065,14.216-1.671
			c5.749,0.475,11.245,0.872,15.397-4.198c0.567-0.693,1.081-1.364,1.135-2.289c10.041,0.425,20.006,1.651,29.973,2.85
			c0.261,0.053,0.521,0.107,0.782,0.162c-1.361,5.016-6.062,8.56-10.814,7.795c-3.798-0.611-7.362-0.461-10.737,1.523
			c-9.049-0.246-18.046-1.127-27.04-2.074c-3.57-0.376-7.217,0.253-10.75-0.842C122.742,38.313,121.916,38.167,121.438,37.324z"/>
		<path fill-rule="evenodd" clip-rule="evenodd" fill="#715852" d="M56.953,138.688c-0.024-4.746-0.049-9.492-0.073-14.239
			c-0.009-37.752-0.019-75.503-0.028-113.255c-0.002-0.259-0.005-0.517-0.008-0.776c0.268-0.269,0.537-0.538,0.806-0.808
			c1.136,1.285,0.705,2.853,0.709,4.308c0.052,19.849,0.069,39.698,0.095,59.547c1.625,5.325,1.545,10.8,1.506,16.285
			c-0.062,8.733,0.008,17.468-0.015,26.201c-0.833,4.218-0.154,8.5-0.521,12.737c-0.507,2.287-0.661,4.602-0.705,6.943
			C58.696,136.875,58.96,138.498,56.953,138.688z"/>
		<path fill-rule="evenodd" clip-rule="evenodd" fill="#856862" d="M219.707,35.275c8.766,0.752,17.536,1.454,26.294,2.281
			c2.908,0.275,5.708,0.985,6.653,4.374c-2.644,3.629-11.221,7.85-15.369,7.566c-0.403-0.14-0.76-0.353-1.082-0.629
			c-0.704-1.045-1.724-1.265-2.923-1.308c-6.951-0.249-13.831-1.496-20.801-1.516c-1.019-0.003-1.998-0.187-2.684-1.059
			c0.12-3.129,1.271-4.417,4.528-4.071c4.051,0.43,8.16,0.224,12.258,1.135C223.896,40.114,219.949,39.553,219.707,35.275z"/>
		<path fill-rule="evenodd" clip-rule="evenodd" fill="#856862" d="M161.928,40.442c2.742-3.036,6.226-2.514,9.643-1.873
			c3.105,0.583,5.869,0.981,7.206-2.941c0.616-1.807,3.353-1.573,4.164-3.451c6.552-0.209,12.983,1.021,19.469,1.614
			c1.191,1.415,1.436,3.311,2.768,4.754c1.966,2.129,1.31,3.479-1.615,3.861c-2.981,0.388-5.904-0.519-8.879-0.594
			c-2.516-0.063-4.875,0.125-6.891,1.82c-4.838,0.552-9.578-0.658-14.369-0.923c-2.44-0.136-4.912-0.251-7.366-0.404
			C164.429,42.205,162.787,42.213,161.928,40.442z"/>
		<path fill-rule="evenodd" clip-rule="evenodd" fill="#856862" d="M188.189,42.597c2.701-3.792,6.587-2.087,9.935-1.81
			c2.452,0.204,4.834,0.322,8.051,0.383c-2.222-2.505-6.01-3.668-3.766-7.379c5.766,0.494,11.531,0.989,17.297,1.484
			c2.503,3.904,6.995,5.064,10.846,7.109c-0.132,0.37-0.263,0.74-0.395,1.109c-4.81-0.413-9.637-0.687-14.422-1.294
			c-2.547-0.323-4.715-0.426-5.928,2.318c-1.644,1.366-3.61,0.831-5.411,0.745c-3.97-0.189-7.904-0.844-11.906-0.824
			C190.949,44.446,189.241,44.095,188.189,42.597z"/>
		<path fill-rule="evenodd" clip-rule="evenodd" fill="#856862" d="M237.741,48.676c4.278-0.139,7.358-3.127,11.045-4.672
			c1.348-0.564,2.306-1.887,3.869-2.074c1.246,1.385,1.557,3.013,1.529,4.849c-0.076,5.123-0.021,10.249-0.019,15.373
			c-0.226,0.04-0.452,0.073-0.679,0.101c-2.292-2.245-1.359-5.13-1.407-7.749c-0.138-7.573-0.997-8.143-7.882-4.733
			c-1.907,0.945-3.799,1.979-5.925,0.546C237.804,49.863,237.469,49.367,237.741,48.676z"/>
		<path fill-rule="evenodd" clip-rule="evenodd" fill="#C2A6A1" d="M67.458,65.187c4.551,0.803,9.062,0.991,13.667,0.085
			c3.449-0.677,6.565-0.092,7.002,4.436c0.051,0.53,0.674,1.005,1.031,1.505c0.391,0.284,0.674,0.649,0.854,1.097
			c0.553,3.496,0.143,7.017,0.274,10.526c0.013,17.852-0.04,35.703,0.003,53.552c-0.008,5.425,0.009,10.849-0.009,16.271
			c-0.005,1.446,0.308,3.019-1.167,4.057c-3.792-1.824-3.514-5.466-3.625-8.728c-0.093-2.75-0.771-3.713-3.519-2.533
			c-3.415,1.468-7.265,1.869-10.399,3.979c-0.949,0.639-1.151,0.356-1.672-0.284c-1.238-1.521-1.853-3.21-1.739-5.185
			c0.235-4.097-0.408-8.217,0.402-12.309c0.245-1.238-0.273-2.445-1.078-3.462c-1.499-1.105-1.569-2.743-1.577-4.372
			c-0.05-11.193-0.052-22.388,0-33.581c0.007-1.513,0.14-3.001,1.427-4.075C67.376,79.174,67.417,72.181,67.458,65.187z"/>
		<path fill-rule="evenodd" clip-rule="evenodd" fill="#8F726B" d="M67.335,86.168c0.05,14.009,0.099,28.019,0.149,42.028
			c-0.042,2.005-0.086,4.01-0.129,6.015c-4.013,1.324-6.84-0.073-7.991-3.979c-0.931-3.156-0.439-6.404-0.586-9.611
			c-0.067-1.467,0.339-2.973-0.32-4.396c-0.001-14.254-0.003-28.507-0.005-42.76c1.49,2.536,1.803,5.718,5.736,6.629
			C66.394,80.603,65.855,84.295,67.335,86.168z"/>
		<path fill-rule="evenodd" clip-rule="evenodd" fill="#FFFFFF" d="M249.99,192.676c-0.63,1.906-2.223,2.086-3.894,2.271
			c-22.257,2.464-44.508,4.982-66.767,7.426c-16.823,1.847-33.661,3.563-50.482,5.421c-9.882,1.092-19.769,2.183-29.604,3.608
			c-4.342,0.63-7.172-0.916-9.34-4.392c-0.865-5.358-0.163-6.694,3.936-7.49c2.136,1.264,4.411,1.202,6.809,0.965
			c22.656-2.238,45.319-4.418,67.979-6.646c22.418-2.458,44.88-4.498,67.328-6.614C240.84,186.765,246.311,188.293,249.99,192.676z"
			/>
		<path fill-rule="evenodd" clip-rule="evenodd" fill="#856862" d="M238.279,49.558c1.625,0.765,3.098,0.499,4.573-0.494
			c1.234-0.831,2.519-1.674,3.902-2.182c4.828-1.772,6.655-0.484,6.67,4.507c0.01,3.621,0.04,7.241,0.062,10.862
			c-0.045,15.494-0.091,30.987-0.137,46.479c-1.159,3.299-4.169,4.488-6.916,5.861c-2.239,1.119-3.499-0.316-4.251-2.273
			c-0.73-1.902-0.34-3.951-0.72-6.315c-1.094,0.707-2.35,2.386-3.271,0.107c-0.605-1.429-0.523-2.933-0.523-4.419
			c-0.008-13.04-0.037-26.081-0.002-39.12c0.706-3.042-0.268-6.084-0.016-9.129C237.761,52.126,237.303,50.73,238.279,49.558z"/>
		<path fill-rule="evenodd" clip-rule="evenodd" fill="#856862" d="M239.29,107.207c1.353-1.047-0.208-4.334,2.244-3.959
			c2.391,0.366,1.075,3.084,1.391,4.764c0.09,0.479,0.029,0.987,0.012,1.481c-0.059,1.651-0.025,3.573,1.418,4.376
			c1.435,0.797,2.577-0.926,3.771-1.669c1.774-1.105,3.487-2.308,5.226-3.47c-0.005,4.012-0.01,8.021-0.014,12.031
			c-0.613,7.828-0.17,15.67-0.24,23.504c-0.023,2.56-0.333,4.713-2.212,6.803c-2.091,2.326-2.345,5.708-3.532,8.576
			c-0.771,1.859-1.048,4.813-3.641,4.441c-2.602-0.374-2.718-3.266-2.887-5.488c-0.29-3.832,0.006-7.684-0.173-11.521
			c-0.003,9.702,0.044,19.403,0.005,29.105c-0.006,1.369,0.021,2.77-0.59,4.035c-0.419,0.87-0.892,1.914-2.16,0.892
			c-1.031-1.407-0.989-3.043-0.991-4.66c-0.015-18.163-0.066-36.327,0.034-54.49c0.021-3.845,0.908-7.645,0.8-11.519
			C237.715,109.192,238.121,107.972,239.29,107.207z"/>
		<path fill-rule="evenodd" clip-rule="evenodd" fill="#856862" d="M238.514,181.464c1.073-1.312,0.654-2.874,0.659-4.332
			c0.034-10.116,0.003-20.231,0.032-30.348c0.003-1.547-0.384-3.261,1.652-4.758c3.2,7.009-0.499,14.759,2.852,22.162
			c2.175-3.417,2.742-6.815,3.909-9.956c0.859-2.313,1.314-4.831,4.064-5.938c1.471-0.591,0.978-2.152,0.984-3.338
			c0.037-6.743,0.003-13.488,0.039-20.231c0.007-1.339-0.363-2.771,0.631-3.964c0.58,22.242-0.993,44.463-0.688,66.703
			c-0.683,1.461-1.932,1.969-3.364,1.585c-4.265-1.141-8.702-2.057-11.066-6.475C238.128,182.154,238.228,181.785,238.514,181.464z"
			/>
		<path fill-rule="evenodd" clip-rule="evenodd" fill="#8F726B" d="M58.458,116.225c1.413,2.299,0.438,4.83,0.69,7.242
			c0.166,1.585-0.05,3.171,0.412,4.771c1.145,3.972,3.835,5.762,7.796,5.973c0.014,16.503,0.028,33.005,0.042,49.507
			c-3.453,2.868-5.351,2.45-9.113-2.009c-0.538-14.501-1.095-29.004-0.27-43.512c0.175-3.078-0.461-6.19,0.401-9.235
			C58.43,124.717,58.444,120.471,58.458,116.225z"/>
		<path fill-rule="evenodd" clip-rule="evenodd" fill="#8F726B" d="M59.162,182.216c2.602,1.29,5.07,3.308,8.236,1.502
			c0.025,10.681,0.08,21.362,0.061,32.044c-0.008,4.342,0.001,8.677,0.646,12.983c-3.52,0.038-6.449-1.313-8.901-3.785
			c-1.547-3.537-0.937-7.342-1.06-10.985c-0.313-9.324-0.111-18.665-0.098-28C58.047,184.622,57.852,183.189,59.162,182.216z"/>
		<path fill-rule="evenodd" clip-rule="evenodd" fill="#FFFFFF" d="M249.99,192.676c-2.592-0.542-4.684-2.213-7.188-3.069
			c-7.602-2.603-15.044-0.144-22.487,0.412c-14.398,1.075-28.747,2.794-43.121,4.199c-2.84,0.278-5.639,1.142-8.539,0.674
			c-0.817-1.168-0.343-2.149,0.441-3.09c1.088-0.985,2.451-1.155,3.829-1.282c18.634-1.713,37.24-3.703,55.876-5.388
			c2.223-0.201,4.465-0.542,6.578-1.368c1.332-0.343,2.932-0.724,3.867,0.307c2.715,2.984,6.408,3.9,9.937,5.208
			c0.976,0.361,1.752,0.869,1.995,1.951C250.783,191.711,250.387,192.193,249.99,192.676z"/>
		<path fill-rule="evenodd" clip-rule="evenodd" fill="#FDE2D9" d="M93.527,200.25c-3.71,0.912-3.712,3.812-3.624,6.76
			c-1.229-1.254-0.713-2.838-0.718-4.272c-0.055-15.34-0.056-30.681-0.071-46.021c0.047-6.722,0.094-13.442,0.141-20.163
			c2.396-0.978,1.699,0.985,1.756,1.97c0.238,4.066-0.319,8.154,0.313,12.214c0.078,14.718,0.156,29.437,0.234,44.154
			C92.342,196.631,94.017,198.043,93.527,200.25z"/>
		<path fill-rule="evenodd" clip-rule="evenodd" fill="#7F6C68" d="M244.423,202.826c-1.75,4.474-5.381,5.909-9.976,3.896
			c-1.197-0.525-1.876-0.195-2.626,0.518c-1.66,1.576-3.736,1.828-5.877,1.93c-1.374,0.065-2.576-0.103-2.537-1.872
			c0.032-1.47-0.168-2.928,2.106-3.213c2.24-0.281,4.371-1.629,6.498,0.47c0.543,0.536,1.766,0.292,2.396-0.427
			c3.28-3.746,8.026-1.748,11.93-3.061c0.853-0.287,1.91,0.205,1.381,1.438c-0.504,1.178,0.398,3.286-1.407,3.458
			C244.582,206.129,245.67,203.835,244.423,202.826z"/>
		<path fill-rule="evenodd" clip-rule="evenodd" fill="#EF3D4C" d="M109.804,220.467c4.422-0.613,8.829-1.459,13.272-1.762
			c3.097-0.211,1.821,2.516,2.083,4.137c-1.74,1.926-4.204,1.122-6.316,1.627c-1.803,0.431-3.695,0.449-5.541,0.7
			C109.093,225.741,108.289,224.677,109.804,220.467z"/>
		<path fill-rule="evenodd" clip-rule="evenodd" fill="#856862" d="M251.179,191.229c-4.098-1.856-8.921-2.275-11.986-6.195
			c-0.649-0.83-1.837-0.542-2.819-0.532c-0.639-1.745,0.366-2.248,1.821-2.412c2.893,2.795,6.298,4.594,10.204,5.603
			c1.525,0.394,2.871,0.618,4.25-0.228C252.771,188.958,252.794,190.414,251.179,191.229z"/>
		<path fill-rule="evenodd" clip-rule="evenodd" fill="#5A4D4B" d="M122.197,213.037c1.918-0.092,3.804,0,5.731-0.596
			c1.693-0.523,4.258-0.733,4.439,1.722c0.162,2.197-2.303,1.564-3.78,1.8c-0.364,0.058-0.737,0.056-1.105,0.081
			c-1.708,0.765-3.429,0.185-5.018-0.242C120.587,215.297,120.573,214.132,122.197,213.037z"/>
		<path fill-rule="evenodd" clip-rule="evenodd" fill="#5A4D4B" d="M110.116,218.146c-1.241,0.103-2.48,0.211-3.723,0.305
			c-0.904,0.068-2.074,1.023-2.604-0.266c-0.266-0.649,0.151-1.713,0.523-2.458c0.508-1.02,1.594-1.453,2.499-0.729
			c1.229,0.984,1.773-0.27,2.624-0.495c1.182-0.232,2.264-0.088,2.553,1.275C112.292,217.199,110.874,217.454,110.116,218.146z"/>
		<path fill-rule="evenodd" clip-rule="evenodd" fill="#F59EA2" d="M109.804,220.467c-0.617,4.503-0.403,4.684,4.082,3.986
			c3.751-0.583,7.516-1.079,11.273-1.612c-0.22,1.446-1.479,1.637-2.504,1.799c-3.883,0.613-7.787,1.084-11.685,1.604
			c-0.972,0.131-1.878-0.213-2.06-1.142C108.599,223.492,107.835,221.681,109.804,220.467z"/>
		<path fill-rule="evenodd" clip-rule="evenodd" fill="#5A4D4B" d="M122.197,213.037c-0.69,1.219-0.601,2.024,1.028,2.233
			c1.428,0.184,2.838,0.51,4.256,0.773c-4.46,1.002-8.965,1.587-13.548,1.438c-1.243-2.019-0.372-2.815,1.667-2.607
			c1.273,0.129,2.535,0.701,2.764-1.265C119.521,212.601,120.892,213.033,122.197,213.037z"/>
		<path fill-rule="evenodd" clip-rule="evenodd" fill="#5A4D4B" d="M118.364,213.609c0.986,0.6,1.508,1.406,0.67,2.424
			c-0.83,1.007-2.164,1.055-3.02,0.383c-1.76-1.382-2.041-0.56-2.081,1.065l-0.007,0.002c-1.299,0.67-1.826,0.056-1.876-1.188
			c-0.033-0.826-0.231-1.813,0.921-2.111c0.826-0.215,1.726,0.046,2.541-0.323C116.464,213.776,117.413,213.692,118.364,213.609z"/>
		<path fill-rule="evenodd" clip-rule="evenodd" fill="#5A4D4B" d="M115.513,213.86c-0.926,1.034-5.354,0.536-1.586,3.623
			c-1.117,1.096-2.501,0.671-3.811,0.662c0.514-1.353,2.091-2.903-0.68-3.644C111.339,213.124,113.461,213.824,115.513,213.86z"/>
		<path fill-rule="evenodd" clip-rule="evenodd" fill="#715852" d="M59.162,182.216c0.013,14.248,0.027,28.496,0.041,42.745
			c-1.035,0.8-1.19-0.257-1.606-0.763c-1.118-17.233-0.515-34.489-0.687-51.734c0.015-11.259,0.029-22.518,0.044-33.776
			c1.323-1.805,0.479-3.873,0.703-5.811c0.153-1.327-0.36-2.777,0.76-3.915C58.519,146.715,58.196,164.475,59.162,182.216z"/>
		<path fill-rule="evenodd" clip-rule="evenodd" fill="#B9A2A4" d="M89.161,71.947c-0.001-0.245-0.002-0.489-0.001-0.734
			c-0.248-4.342-0.813-8.696-0.677-13.026c0.288-9.088,0.947-18.164,0.68-27.265c-0.037-1.303,0.132-2.51,1.44-3.205
			c0.753,20.99,0.878,41.986,0.715,62.985c-0.469,0.2-0.833,0.081-1.093-0.357c-0.63-2.573-0.163-5.19-0.309-7.782
			C89.56,79.032,90.717,75.394,89.161,71.947z"/>
		<path fill-rule="evenodd" clip-rule="evenodd" fill="#FFFFFF" d="M92.132,194.964c2.196,3.064,4.525,4.696,8.941,4.204
			c22.24-2.479,44.54-4.443,66.819-6.582c0.492-0.048,0.991-0.01,1.486-0.013c-0.24,0.773-0.482,1.547-0.723,2.318
			c-9.153,1.021-18.299,2.106-27.461,3.045c-11.887,1.217-23.786,2.313-35.68,3.472c-2.728,0.266-5.458,0.514-8.173,0.874
			c-1.82,0.241-2.576-1.303-3.815-2.032c-1.374-1.522-2.678-3.07-1.97-5.358C91.747,194.933,91.938,194.956,92.132,194.964z"/>
		<path fill-rule="evenodd" clip-rule="evenodd" fill="#D7B9B7" d="M90.636,82.497c0.018,2.736,0.035,5.473,0.054,8.208
			c0.767,4.389,0.144,8.816,0.355,13.221c0.063,1.342-0.23,2.708,0.252,4.024c0.009,14.263,0.019,28.524,0.026,42.787
			c-1.412-3.548-0.291-7.259-0.703-10.868c-0.139-1.219,0.611-2.844-1.366-3.316c-0.024-18.028-0.05-36.058-0.075-54.087
			C89.674,82.011,90.159,82.009,90.636,82.497z"/>
		<path fill-rule="evenodd" clip-rule="evenodd" fill="#C2A6A1" d="M91.297,107.95c-1.333-5.708-0.299-11.5-0.607-17.245
			c0.21-0.001,0.419-0.002,0.629-0.002C91.312,96.452,91.304,102.201,91.297,107.95z"/>
		<path fill-rule="evenodd" clip-rule="evenodd" fill="#C2A6A1" d="M90.636,82.497c-0.486-0.01-0.972-0.021-1.457-0.031
			c-0.006-3.506-0.012-7.012-0.018-10.519c1.673,0.351,1.493,1.678,1.496,2.883C90.665,77.386,90.645,79.941,90.636,82.497z"/>
	</g>
	<path fill-rule="evenodd" clip-rule="evenodd" d="M99.053,35.49l136.153,10.844c0,0,4.197,1.265,4.197,7.814
		s-0.815,125.171-0.815,125.171s2.475,8.499-11.29,7.767c-13.766-0.732-124.706,12.274-124.706,12.274s-12.962,2.742-11.68-11.792
		c1.282-14.533-0.063-144.678-0.063-144.678S90.776,34.9,99.053,35.49z"/>
	<polyline fill="#FFFFFF" points="185.25,72.032 193.467,72.354 193.801,80.021 197.217,80.354 197.551,84.187 200.135,84.187 
		200.135,72.354 207.967,72.521 207.967,80.437 204.635,80.437 204.551,84.521 201.135,84.521 201.217,92.271 204.885,92.271 
		204.967,96.354 208.801,96.354 208.801,108.687 200.801,108.687 200.467,96.354 196.885,96.104 196.885,92.187 193.967,92.104 
		194.635,107.964 186.217,107.957 185.801,95.937 189.467,96.021 189.385,92.021 192.885,92.021 192.801,84.104 189.217,84.021 
		189.051,80.104 185.385,79.937 185.25,72.032 	"/>
	<polyline fill="#FFFFFF" points="123.25,72.032 131.467,72.354 131.801,80.021 135.217,80.354 135.551,84.187 138.135,84.187 
		138.135,72.354 145.967,72.521 145.967,80.437 142.635,80.437 142.551,84.521 139.135,84.521 139.217,92.271 142.885,92.271 
		142.967,96.354 146.801,96.354 146.801,108.687 138.801,108.687 138.467,96.354 134.885,96.104 134.885,92.187 131.967,92.104 
		132.634,107.964 124.217,107.957 123.801,95.937 127.467,96.021 127.384,92.021 130.884,92.021 130.801,84.104 127.217,84.021 
		127.051,80.104 123.384,79.937 123.25,72.032 	"/>
	<path fill="#FFFFFF" d="M187.051,131.021l-38.974,1.832l0.453,9.459l16.687-0.791l0.5,14l4.084-0.168l0.334,4.584l13.527-0.75
		v-4.75h4.055L187.051,131.021z M170.842,150.52l-0.332-9.332l11.541-0.5l0.291,9.25L170.842,150.52z"/>
</g>
<g id="Layer_2">
</g>
</svg>
