<?xml version="1.0" encoding="utf-8"?>
<!-- Generator: Adobe Illustrator 16.0.0, SVG Export Plug-In . SVG Version: 6.00 Build 0)  -->
<!DOCTYPE svg PUBLIC "-//W3C//DTD SVG 1.1//EN" "http://www.w3.org/Graphics/SVG/1.1/DTD/svg11.dtd">
<svg version="1.1" xmlns="http://www.w3.org/2000/svg" xmlns:xlink="http://www.w3.org/1999/xlink" x="0px" y="0px"
	 width="268.363px" height="236.057px" viewBox="0 0 268.363 236.057" enable-background="new 0 0 268.363 236.057"
	 xml:space="preserve">
<g id="Layer_1">
	<g id="Layer_3">
		<g>
			<path fill="#C2A6A1" d="M73.347,0.006c8.632-0.117,17.1,1.574,25.639,2.435c11.887,1.195,23.729,2.82,35.593,4.242
				c12.11,1.45,24.221,2.91,36.339,4.305c11.874,1.364,23.764,2.594,35.634,3.99c9.888,1.164,19.759,2.481,29.636,3.73
				c-0.16,2.312-1.898,2.384-3.506,2.261c-6.217-0.475-12.117,0.708-18.021,2.624c-8.556,2.776-17.218,5.238-26.025,7.133
				c-2.436,0.523-4.493,2.173-7.028,2.448c-9.832-0.712-19.615-1.93-29.437-2.752c-5.665,0.438-11.144-1.134-16.729-1.592
				c-11.812-0.969-23.612-2.077-35.397-3.335c-2.877-0.307-5.74-0.082-8.394,1.292c-8.125,0.608-16.223-0.499-24.344-0.407
				c-1.155-1.068-0.973-2.499-0.988-3.85c-0.041-3.617,0.196-7.25-0.067-10.848c-0.34-4.646,1.411-7.961,5.412-10.203
				C72.318,1.11,72.81,0.526,73.347,0.006z"/>
			<path fill="#8F726B" d="M0.667,113.217c-0.724-4.772,0.447-9.635-0.667-14.393C5.196,90.708,12.423,84.51,19.517,78.19
				c6.043-5.716,12.086-11.435,18.13-17.15c0.747-0.706,1.374-1.458,1.083-2.595c0.019-12.935,0.057-25.868,0.035-38.802
				C38.761,17.451,38.8,15.381,41,14.132c3.13-2.586,6.944-3.534,10.759-4.461c1.805-0.438,3.631-0.771,5.272,0.548
				c0.265,0.374,0.407,0.789,0.437,1.244c-0.434,15.965-0.109,31.935-0.157,47.899c-0.01,3.396-0.619,6.673-1.216,9.977
				c-0.582,3.224-2.593,4.758-5.738,4.781c-9.565,0.071-7.976,1.687-9.346,9.04c-0.942,5.054-0.541,10.182-1.279,15.264
				c-0.846,5.826-3.769,9.109-9.336,10.739c-7.719,2.26-15.698,2.771-23.573,3.958C4.836,113.421,2.729,114.657,0.667,113.217z"/>
			<path fill="#C2A6A1" d="M182.158,32.014c13.265-4.936,27.06-8.08,40.656-11.875c3.151-0.881,6.672-1.4,10.069-0.202
				c1.334,0.469,2.394-0.295,3.302-1.229c7.002,0.716,14.006,1.433,21.008,2.147c7.925,1.066,11.281,4.902,11.166,13.039
				c-0.188,13.438-0.473,26.875-0.717,40.313c-0.504,0.435-1.217,0.729-1.709,0.401c-3.309-2.198-5.478-0.268-7.658,1.934
				c-1.033,1.043-2.178,2.323-3.836,1.558c-1.66-0.77-1.322-2.508-1.342-3.953c-0.055-4.086-0.016-8.172-0.025-12.262
				c0.003-4.103-0.071-8.203,0.029-12.302c0.06-2.422-0.303-4.689-1.476-6.812c-1.039-2.243-2.933-3.399-5.261-3.607
				c-8.971-0.805-17.938-1.637-26.897-2.533c-5.696-0.461-11.405-0.798-17.057-1.706c-6.476-0.337-12.939-0.792-19.341-1.91
				C182.66,32.779,182.357,32.444,182.158,32.014z"/>
			<path fill="#8F726B" d="M62.864,3.481c0.516-0.186,1.033-0.369,1.549-0.554c4.027,6.794,2.282,14.29,2.629,21.533
				c0.125,2.63,1.167,5.072,1.657,7.638c0.372,10.991,0.421,21.979,0.003,32.964c0.106,6.803,0.925,13.624-0.467,20.39
				c-1.599,1.982-2.394,0.249-2.924-0.838c-1.019-2.088-2.443-3.59-4.41-4.862c-2.487-1.609-2.736-4.593-3.538-7.188
				c-0.149-19.454-0.031-38.903-0.068-58.354c-0.002-1.127,0.165-2.233,0.266-3.344c-0.8-2.271,0.446-3.746,2.019-5.071
				C60.606,4.931,61.967,4.535,62.864,3.481z"/>
			<path fill="#8F726B" d="M62.864,3.481c-1.124,2.564-3.813,3.797-5.214,6.127c-0.037,0.501-0.321,0.754-0.806,0.809
				c-5.604-0.143-10.512,2.689-15.843,3.716c2.445-4.601,6.729-6.379,11.448-7.601C55.949,5.625,59.394,4.506,62.864,3.481z"/>
			<path fill="#8F726B" d="M67.241,31.448c-1.265-6.258-0.417-12.583-0.497-18.873c-0.042-3.343-0.134-6.036-4.896-5.188
				c1.001-1.741,1.784-3.101,2.566-4.461c2.979-0.974,5.956-1.948,8.933-2.923C73.329,1.27,72.486,2.106,71.62,2.76
				c-3.619,2.737-4.726,6.28-4.325,10.745c0.377,4.196,0.114,8.45,0.133,12.679C69.048,27.998,69.089,29.756,67.241,31.448z"/>
			<path fill="#C2A6A1" d="M101.222,232.887c-5.845,1.036-11.727,1.789-17.648,2.185c-1.134,0.075-2.183,0.363-3.242,0.702
				c-2.408,0.417-4.785,0.524-7.007-0.771c-2.102-2.398-5.203-3.929-6.322-7.201c-0.836-1.722-1.09-3.564-1.081-5.438
				c0.059-12.911-0.289-25.824,0.191-38.733c-0.393-16.324-0.348-32.648-0.046-48.974c0.356-2.018-0.624-4.217,0.797-6.092
				c2.26,0.083,2.889,0.62,2.858,3.229c-0.042,3.487-0.139,6.975-0.148,10.464c-0.006,2.413,0.396,4.688,1.734,6.795
				c0.437-1.448,1.646-1.921,2.826-2.373c2.328-0.893,4.688-1.71,7.096-2.349c3.808-1.01,5.152-0.179,5.533,3.685
				c0.336,3.405,1.123,6.566,3.371,9.245c0.353,12.414-0.049,24.83,0.227,37.238c0.084,3.776-0.725,7.691,0.996,11.337
				c1.588,3.491,4.34,4.415,7.991,3.984c26.401-3.11,52.83-5.979,79.25-8.931c22.449-2.509,44.938-4.684,67.357-7.471
				c0.865-0.105,1.754-0.126,2.46-0.741c0.647-0.738,1.478-1.312,2.022-2.15c1.354-1.287,0.998-2.87,0.762-4.439
				c-0.039-9.588-0.723-19.226,0.189-28.729c1.027-10.695,0.733-21.357,0.936-32.036c0.027-1.496-0.034-2.982-0.354-4.452
				c-0.306-4.082,0.281-8.164-0.009-12.247c-0.106-13.798-0.041-27.597-0.041-41.395c0-1.615-0.062-3.252,0.947-4.668
				c0.333-0.451,0.766-0.587,1.297-0.41c0.013,4.47,0.017,8.938,0.048,13.409c0.005,0.712-0.161,1.64,0.74,1.9
				c0.824,0.239,1.363-0.475,1.775-1.074c0.705-1.021,1.516-1.91,2.39-2.804c3.173-3.242,5.739-0.203,8.524,0.624
				c0.061,3.249,0.121,6.498,0.183,9.746c-0.064,17.472-0.13,34.943-0.195,52.415c-0.833,1.233-0.586,2.639-0.59,3.988
				c-0.058,18.534-0.134,37.067-0.11,55.604c0.004,3.841,0.217,7.646-2.271,10.933c-2.4,4.355-6.869,3.921-10.79,4.475
				c-11.568,1.635-23.157,3.13-34.755,4.548"/>
			<path fill="#8F726B" d="M11.166,194.962c-2.3-8.999-4.562-18.01-6.943-26.986c-0.321-1.21-0.628-2.382-0.659-3.625
				c0.881-3.165,2.932-1.413,4.275-0.765c5.267,2.549,10.628,4.905,15.81,7.631c5.328,2.805,10.643,3.239,15.936-0.108
				c1.189-0.752,2.497-1.174,3.912-0.961c4.511,0.679,8.813,2.605,13.504,2.253c0.304-0.023,0.519,0.495,0.725,0.813
				c0.695,5.688,0.237,11.395,0.288,17.088c0.099,11.016-0.147,22.036,0.603,33.035c-1.025,2.866-3.183,2.621-5.467,1.955
				c-3.298-0.962-6.432-2.381-9.673-3.502c-1.032-0.432-2.064-0.863-3.096-1.295c-2.187-1.938-2.04-4.523-1.978-7.087
				c-0.079-0.773-0.319-1.444-1.09-1.81c-7.269-3.446-14.111-7.764-21.67-10.615C13.435,199.508,12.021,197.443,11.166,194.962z"/>
			<path fill="#846B66" d="M39.661,212.989c-0.219,2.546,0.181,5.032,0.719,7.506c-4.66-1.598-9.313-3.22-13.987-4.777
				c-1.405-0.469-1.884-1.367-1.856-2.775c0.044-2.224-0.016-4.447-0.032-6.671c0.652-0.563,1.393-0.51,2.072-0.155
				C30.946,208.393,35.594,210.139,39.661,212.989z"/>
			<path fill="#715852" d="M73.558,233.957c-8.287-1.804-15.906-5.568-23.929-8.147c-1.534-0.493-3.044-1.06-4.566-1.593
				c-0.529-0.81-1.058-1.616-1.586-2.426c3.772-1.18,6.708,1.414,10.008,2.303c1.438,0.389,2.701,1.146,4.11,0.104
				c0.896,0.009,1.691,0.493,2.586,0.53c2.428,1.763,5.612,2.028,7.922,4.017C70.112,230.283,72.035,231.911,73.558,233.957z"/>
			<path fill="#715852" d="M39.661,212.989c-5.539-1.143-9.97-4.781-15.156-6.72c-2.811-2.002-6.568-2.418-8.862-5.286
				c1.007-1.159,2.031-0.498,3.026-0.003c6.242,3.108,12.475,6.233,18.718,9.342C38.535,210.895,39.618,211.49,39.661,212.989z"/>
			<path fill="#8F726B" d="M0.667,113.217c7.105-2.509,14.687-2.234,21.955-3.771c3.036-0.641,5.986-1.698,9.026-2.315
				c4.66-0.946,5.86-4.277,6.533-8.375c1.129-6.879,0.774-13.869,1.986-20.775c0.656-3.735,2.35-4.811,5.436-5.232
				c0.124-0.017,0.252,0,0.374-0.022c2.625-0.493,5.956,1.333,7.814-1.072c2.241-2.901,2.269-6.853,2.306-10.415
				c0.158-15.237,0.059-30.478,0.089-45.717c0.003-1.457-0.425-3.021,0.667-4.327c0.5,0.437,0.702,1.002,0.752,1.649
				c0.068,0.873,0.063,1.748,0.056,2.621c-0.279,34.085,0.522,68.166,0.368,102.251c-0.009,1.996,0.096,3.996-0.142,5.981
				c-1.032,2.994-3.338,4.157-6.307,4.359c-1.495,0.103-2.991,0.08-4.486,0.021c-5.148-0.201-5.143-0.2-6.057,5.079
				c-1.827,10.561-2.486,12.074-14.93,12.923c-6.125,0.418-12.203,0.168-17.912-2.68c-2.824-1.41-5.512-2.898-7.48-5.437
				C0.698,129.716,0.683,121.467,0.667,113.217z"/>
			<path fill="#8F726B" d="M0.714,137.965c3.33,0.163,5.272,2.988,8.096,4.243c8.455,3.76,16.976,2.758,25.599,1.359
				c2.092-0.339,3.289-1.661,3.723-3.668c0.785-3.631,1.562-7.265,2.255-10.913c0.466-2.451,1.539-3.018,4.17-2.67
				c4.167,0.549,8.687,1.745,12.322-1.868c1.476,1.194,1.099,2.888,1.129,4.432c0.064,3.303,0.02,6.604,0.024,9.908
				c-0.003,9.847,0.007,19.693-0.01,29.54c-0.002,1.461,0.329,3.048-1.114,4.136c-1.778,1.482-3.659,1.846-5.893,0.934
				c-1.716-0.701-3.592-1.001-5.373-1.557c-2.355-0.733-4.233-0.575-6.481,1.052c-4.01,2.9-8.876,2.709-13.198,0.854
				c-6.506-2.79-12.731-6.237-19.082-9.394c-1.093-0.543-2.211-1.399-3.318-0.004C-0.198,155.858,0.561,146.879,0.714,137.965z"/>
			<path fill="#C2A6A1" d="M67.241,31.448c0.063-1.755,0.125-3.509,0.187-5.265c2.687-1.667,5.489-1.565,8.55-1.122
				c3.514,0.508,7.132,0.3,10.707,0.376c1.601,0.034,3.226-0.139,4.686,0.751c0.473,0.919,0.174,1.741-0.313,2.542
				c-0.898,1.599-0.832,3.359-0.76,5.089c0.451,11.03-1.079,22.056-0.034,33.089c0.124,1.322,0.296,2.746-0.571,3.969
				c-1.625,1.229-2.434-0.235-2.826-1.211c-1.285-3.198-3.843-3.223-6.528-2.879c-2.606,0.334-5.196,0.712-7.83,0.47
				c-1.893-0.174-3.73-0.494-5.051-2.07C67.386,53.94,67.314,42.695,67.241,31.448z"/>
			<path fill="#856862" d="M90.603,27.717c0.256-0.509,0.513-1.018,0.768-1.527c1.085-2.044,2.818-2.582,5.026-2.374
				c12.913,1.218,25.833,2.36,38.746,3.576c5.688,0.534,11.362,1.18,17.043,1.774c1.144,2.222-0.449,3.512-1.771,4.736
				c-3.904,3.624-8.747,3.979-13.622,3.197c-3.708-0.595-7.42-0.155-11.104-0.666c-1.89-0.262-3.063,1.479-4.7,1.998
				c-6.96-0.229-13.886-1.042-20.858-1.075c-3.949-0.02-5.959,1.576-6.354,5.578c-0.17,1.739-0.082,3.496-0.082,5.245
				c-0.003,46.602,0.006,93.202-0.021,139.806c-0.002,2.328,0.488,4.792-1.197,6.85c-0.437,0.347-0.881,0.354-1.334,0.032
				c-1.252-1.375-0.828-3.075-0.832-4.655c-0.029-13.104-0.02-26.212-0.016-39.315c0.312-14.311-0.596-28.62,0-42.932
				c0.011-5.777,0.005-11.557,0.004-17.336c0.042-11.32-0.275-22.64-0.263-33.954c0.009-8.072-0.046-16.146-0.108-24.218
				C89.915,30.85,89.714,29.201,90.603,27.717z"/>
			<path fill="#856862" d="M121.438,37.324c4.331-3.902,9.44-2.065,14.216-1.671c5.748,0.475,11.244,0.872,15.396-4.198
				c0.567-0.692,1.081-1.364,1.135-2.289c10.041,0.425,20.006,1.651,29.974,2.851c0.261,0.053,0.521,0.106,0.782,0.161
				c-1.361,5.017-6.063,8.561-10.814,7.796c-3.798-0.611-7.361-0.461-10.736,1.522c-9.05-0.246-18.047-1.127-27.041-2.074
				c-3.57-0.376-7.217,0.253-10.75-0.842C122.742,38.313,121.916,38.167,121.438,37.324z"/>
			<path fill="#715852" d="M56.953,138.688c-0.024-4.746-0.049-9.492-0.073-14.239c-0.009-37.752-0.019-75.503-0.028-113.255
				c-0.002-0.259-0.005-0.518-0.008-0.776c0.268-0.269,0.537-0.538,0.806-0.808c1.136,1.285,0.705,2.853,0.709,4.308
				c0.052,19.85,0.069,39.698,0.095,59.547c1.625,5.325,1.545,10.801,1.506,16.285c-0.062,8.733,0.008,17.468-0.015,26.201
				c-0.833,4.218-0.154,8.5-0.521,12.737c-0.507,2.287-0.661,4.602-0.705,6.942C58.696,136.875,58.96,138.498,56.953,138.688z"/>
			<path fill="#856862" d="M219.707,35.275c8.766,0.752,17.536,1.454,26.294,2.281c2.908,0.274,5.708,0.984,6.653,4.374
				c-2.645,3.629-11.221,7.85-15.369,7.565c-0.403-0.14-0.76-0.353-1.082-0.629c-0.704-1.045-1.725-1.265-2.923-1.308
				c-6.951-0.249-13.831-1.496-20.802-1.517c-1.019-0.003-1.998-0.187-2.684-1.059c0.12-3.129,1.271-4.417,4.528-4.071
				c4.051,0.43,8.159,0.225,12.258,1.135C223.896,40.114,219.949,39.552,219.707,35.275z"/>
			<path fill="#856862" d="M161.928,40.442c2.742-3.036,6.227-2.515,9.643-1.873c3.105,0.583,5.869,0.98,7.207-2.941
				c0.615-1.807,3.353-1.572,4.164-3.451c6.552-0.209,12.982,1.021,19.469,1.614c1.191,1.415,1.436,3.312,2.768,4.754
				c1.967,2.129,1.311,3.479-1.615,3.861c-2.98,0.388-5.903-0.519-8.879-0.594c-2.516-0.063-4.875,0.125-6.891,1.819
				c-4.838,0.553-9.578-0.657-14.369-0.923c-2.439-0.136-4.912-0.251-7.365-0.403C164.43,42.205,162.787,42.213,161.928,40.442z"/>
			<path fill="#856862" d="M188.189,42.597c2.701-3.792,6.586-2.088,9.935-1.811c2.452,0.204,4.834,0.322,8.051,0.383
				c-2.222-2.505-6.01-3.668-3.766-7.379c5.766,0.494,11.53,0.989,17.297,1.484c2.503,3.904,6.995,5.063,10.846,7.108
				c-0.132,0.37-0.263,0.74-0.395,1.109c-4.81-0.413-9.638-0.687-14.423-1.294c-2.547-0.323-4.715-0.426-5.928,2.318
				c-1.644,1.365-3.609,0.831-5.41,0.745c-3.971-0.189-7.904-0.845-11.906-0.824C190.949,44.446,189.241,44.094,188.189,42.597z"/>
			<path fill="#856862" d="M237.741,48.676c4.278-0.139,7.358-3.127,11.045-4.672c1.348-0.563,2.306-1.887,3.869-2.073
				c1.245,1.385,1.557,3.013,1.528,4.849c-0.076,5.123-0.021,10.249-0.019,15.373c-0.226,0.04-0.452,0.073-0.679,0.101
				c-2.293-2.245-1.359-5.13-1.407-7.749c-0.138-7.572-0.997-8.143-7.882-4.732c-1.907,0.944-3.799,1.979-5.926,0.546
				C237.805,49.863,237.469,49.367,237.741,48.676z"/>
			<path fill="#C2A6A1" d="M67.458,65.187c4.551,0.803,9.062,0.99,13.667,0.085c3.449-0.678,6.565-0.092,7.002,4.436
				c0.051,0.53,0.674,1.005,1.031,1.505c0.391,0.284,0.674,0.649,0.854,1.098c0.553,3.496,0.143,7.017,0.274,10.525
				c0.013,17.853-0.04,35.703,0.003,53.553c-0.008,5.425,0.009,10.849-0.009,16.271c-0.005,1.446,0.308,3.019-1.167,4.057
				c-3.792-1.823-3.514-5.466-3.625-8.728c-0.093-2.75-0.771-3.713-3.519-2.533c-3.415,1.468-7.265,1.869-10.399,3.979
				c-0.949,0.639-1.151,0.355-1.672-0.284c-1.238-1.521-1.853-3.21-1.739-5.186c0.235-4.097-0.408-8.217,0.402-12.309
				c0.245-1.238-0.273-2.445-1.078-3.462c-1.499-1.105-1.569-2.743-1.577-4.372c-0.05-11.193-0.052-22.388,0-33.581
				c0.007-1.513,0.14-3.001,1.427-4.075C67.376,79.174,67.417,72.181,67.458,65.187z"/>
			<path fill="#8F726B" d="M67.335,86.168c0.05,14.009,0.099,28.02,0.149,42.028c-0.042,2.005-0.086,4.01-0.129,6.015
				c-4.013,1.324-6.84-0.072-7.991-3.979c-0.931-3.156-0.439-6.404-0.586-9.611c-0.067-1.467,0.339-2.973-0.32-4.396
				c-0.001-14.254-0.003-28.508-0.005-42.761c1.49,2.536,1.803,5.719,5.736,6.629C66.394,80.603,65.855,84.295,67.335,86.168z"/>
			<path fill="#FFFFFF" d="M249.99,192.676c-0.631,1.906-2.223,2.086-3.895,2.271c-22.257,2.464-44.508,4.981-66.767,7.426
				c-16.823,1.847-33.661,3.563-50.482,5.421c-9.882,1.092-19.769,2.184-29.604,3.608c-4.342,0.63-7.172-0.916-9.34-4.393
				c-0.865-5.357-0.163-6.693,3.936-7.489c2.136,1.264,4.411,1.202,6.809,0.965c22.656-2.238,45.319-4.418,67.979-6.646
				c22.418-2.458,44.88-4.498,67.328-6.613C240.84,186.765,246.311,188.293,249.99,192.676z"/>
			<path fill="#856862" d="M238.279,49.558c1.625,0.765,3.098,0.499,4.572-0.494c1.234-0.831,2.52-1.674,3.902-2.183
				c4.828-1.771,6.655-0.483,6.67,4.508c0.01,3.62,0.04,7.24,0.063,10.861c-0.045,15.494-0.092,30.987-0.137,46.479
				c-1.16,3.299-4.17,4.487-6.916,5.86c-2.24,1.119-3.5-0.315-4.252-2.272c-0.729-1.902-0.34-3.951-0.72-6.315
				c-1.094,0.707-2.351,2.387-3.271,0.107c-0.605-1.429-0.523-2.934-0.523-4.419c-0.008-13.04-0.037-26.081-0.002-39.12
				c0.706-3.042-0.268-6.084-0.016-9.129C237.761,52.126,237.303,50.73,238.279,49.558z"/>
			<path fill="#856862" d="M239.29,107.207c1.353-1.047-0.208-4.334,2.244-3.959c2.391,0.366,1.075,3.084,1.391,4.765
				c0.091,0.479,0.029,0.986,0.013,1.48c-0.06,1.651-0.025,3.573,1.418,4.376c1.435,0.797,2.576-0.926,3.771-1.669
				c1.774-1.105,3.487-2.308,5.226-3.47c-0.004,4.012-0.01,8.021-0.014,12.03c-0.613,7.828-0.17,15.671-0.24,23.505
				c-0.022,2.56-0.332,4.713-2.212,6.803c-2.091,2.326-2.345,5.708-3.532,8.576c-0.771,1.858-1.047,4.813-3.641,4.44
				c-2.602-0.374-2.718-3.266-2.887-5.487c-0.29-3.832,0.006-7.685-0.174-11.521c-0.002,9.702,0.045,19.403,0.006,29.105
				c-0.006,1.368,0.021,2.77-0.59,4.034c-0.42,0.87-0.893,1.914-2.16,0.893c-1.031-1.407-0.989-3.043-0.991-4.66
				c-0.015-18.163-0.065-36.327,0.034-54.49c0.021-3.845,0.908-7.645,0.8-11.519C237.715,109.192,238.121,107.972,239.29,107.207z"
				/>
			<path fill="#856862" d="M238.514,181.464c1.073-1.312,0.654-2.874,0.659-4.332c0.034-10.115,0.003-20.23,0.032-30.348
				c0.003-1.547-0.385-3.261,1.652-4.758c3.199,7.009-0.5,14.759,2.852,22.162c2.175-3.417,2.742-6.815,3.909-9.956
				c0.858-2.313,1.313-4.831,4.063-5.938c1.471-0.591,0.979-2.151,0.984-3.338c0.037-6.743,0.003-13.488,0.039-20.23
				c0.007-1.34-0.363-2.771,0.631-3.965c0.58,22.242-0.993,44.464-0.688,66.703c-0.684,1.461-1.933,1.97-3.364,1.585
				c-4.265-1.141-8.702-2.057-11.066-6.475C238.128,182.154,238.229,181.785,238.514,181.464z"/>
			<path fill="#8F726B" d="M58.458,116.225c1.413,2.299,0.438,4.83,0.69,7.241c0.166,1.585-0.05,3.172,0.412,4.771
				c1.145,3.972,3.835,5.762,7.796,5.973c0.014,16.503,0.028,33.005,0.042,49.507c-3.453,2.868-5.351,2.45-9.113-2.009
				c-0.538-14.501-1.095-29.004-0.27-43.512c0.175-3.078-0.461-6.19,0.401-9.235C58.43,124.717,58.444,120.471,58.458,116.225z"/>
			<path fill="#8F726B" d="M59.162,182.216c2.602,1.29,5.07,3.309,8.236,1.502c0.025,10.682,0.08,21.362,0.061,32.044
				c-0.008,4.343,0.001,8.678,0.646,12.983c-3.52,0.038-6.449-1.313-8.901-3.785c-1.547-3.537-0.937-7.342-1.06-10.984
				c-0.313-9.324-0.111-18.665-0.098-28C58.047,184.622,57.852,183.189,59.162,182.216z"/>
			<path fill="#FFFFFF" d="M249.99,192.676c-2.592-0.542-4.684-2.213-7.188-3.068c-7.602-2.604-15.044-0.145-22.487,0.412
				c-14.397,1.074-28.746,2.794-43.121,4.198c-2.84,0.278-5.639,1.143-8.538,0.675c-0.817-1.168-0.343-2.149,0.44-3.091
				c1.088-0.984,2.451-1.154,3.829-1.281c18.634-1.713,37.24-3.703,55.876-5.389c2.223-0.2,4.465-0.542,6.578-1.367
				c1.332-0.344,2.932-0.725,3.867,0.307c2.715,2.984,6.408,3.9,9.938,5.208c0.976,0.361,1.752,0.869,1.994,1.951
				C250.783,191.711,250.387,192.193,249.99,192.676z"/>
			<path fill="#FDE2D9" d="M93.527,200.25c-3.71,0.912-3.712,3.813-3.624,6.76c-1.229-1.254-0.713-2.838-0.718-4.271
				c-0.055-15.34-0.056-30.681-0.071-46.021c0.047-6.722,0.094-13.441,0.141-20.162c2.396-0.979,1.699,0.984,1.756,1.97
				c0.238,4.065-0.319,8.153,0.313,12.214c0.078,14.718,0.156,29.437,0.234,44.154C92.342,196.631,94.017,198.043,93.527,200.25z"/>
			<path fill="#7F6C68" d="M244.423,202.826c-1.75,4.474-5.381,5.909-9.976,3.896c-1.197-0.525-1.877-0.195-2.627,0.518
				c-1.659,1.576-3.735,1.828-5.877,1.93c-1.373,0.065-2.575-0.103-2.536-1.872c0.032-1.47-0.168-2.928,2.106-3.213
				c2.239-0.28,4.37-1.629,6.497,0.471c0.544,0.535,1.767,0.292,2.396-0.428c3.28-3.746,8.026-1.748,11.93-3.061
				c0.853-0.287,1.91,0.205,1.381,1.438c-0.504,1.179,0.398,3.286-1.407,3.458C244.582,206.129,245.67,203.835,244.423,202.826z"/>
			<path fill="#EF3D4C" d="M109.804,220.467c4.422-0.612,8.829-1.459,13.272-1.762c3.097-0.211,1.821,2.517,2.083,4.137
				c-1.74,1.927-4.204,1.122-6.316,1.627c-1.803,0.432-3.695,0.449-5.541,0.7C109.093,225.741,108.289,224.677,109.804,220.467z"/>
			<path fill="#856862" d="M251.18,191.229c-4.099-1.856-8.922-2.275-11.986-6.195c-0.649-0.83-1.838-0.542-2.819-0.532
				c-0.64-1.745,0.366-2.248,1.821-2.412c2.893,2.795,6.298,4.595,10.203,5.604c1.525,0.394,2.871,0.618,4.25-0.229
				C252.771,188.958,252.794,190.414,251.18,191.229z"/>
			<path fill="#5A4D4B" d="M122.197,213.037c1.918-0.092,3.804,0,5.73-0.596c1.693-0.523,4.258-0.733,4.439,1.722
				c0.162,2.197-2.303,1.564-3.78,1.8c-0.364,0.059-0.737,0.057-1.105,0.081c-1.708,0.766-3.429,0.186-5.018-0.242
				C120.587,215.297,120.573,214.132,122.197,213.037z"/>
			<path fill="#5A4D4B" d="M110.116,218.146c-1.241,0.103-2.48,0.211-3.723,0.305c-0.904,0.068-2.074,1.023-2.604-0.266
				c-0.266-0.649,0.151-1.713,0.523-2.458c0.508-1.021,1.594-1.453,2.499-0.729c1.229,0.984,1.773-0.27,2.624-0.495
				c1.182-0.231,2.264-0.088,2.553,1.275C112.292,217.199,110.874,217.454,110.116,218.146z"/>
			<path fill="#F59EA2" d="M109.804,220.467c-0.617,4.504-0.403,4.685,4.082,3.986c3.751-0.583,7.516-1.079,11.273-1.612
				c-0.22,1.446-1.479,1.638-2.504,1.8c-3.883,0.612-7.787,1.084-11.685,1.604c-0.972,0.131-1.878-0.213-2.06-1.142
				C108.599,223.492,107.835,221.681,109.804,220.467z"/>
			<path fill="#5A4D4B" d="M122.197,213.037c-0.69,1.219-0.601,2.024,1.028,2.233c1.428,0.184,2.838,0.51,4.256,0.772
				c-4.46,1.002-8.965,1.587-13.548,1.438c-1.243-2.02-0.372-2.815,1.667-2.607c1.273,0.129,2.535,0.701,2.764-1.265
				C119.521,212.601,120.892,213.033,122.197,213.037z"/>
			<path fill="#5A4D4B" d="M118.364,213.609c0.986,0.6,1.508,1.406,0.67,2.424c-0.83,1.007-2.164,1.055-3.02,0.383
				c-1.76-1.382-2.041-0.56-2.081,1.065l-0.007,0.002c-1.299,0.67-1.826,0.056-1.876-1.188c-0.033-0.826-0.231-1.813,0.921-2.11
				c0.826-0.216,1.726,0.046,2.541-0.323C116.464,213.776,117.413,213.692,118.364,213.609z"/>
			<path fill="#5A4D4B" d="M115.513,213.86c-0.926,1.034-5.354,0.536-1.586,3.623c-1.117,1.096-2.501,0.671-3.811,0.662
				c0.514-1.354,2.091-2.903-0.68-3.645C111.339,213.124,113.461,213.824,115.513,213.86z"/>
			<path fill="#715852" d="M59.162,182.216c0.013,14.248,0.027,28.496,0.041,42.745c-1.035,0.8-1.19-0.257-1.606-0.763
				c-1.118-17.233-0.515-34.489-0.687-51.734c0.015-11.259,0.029-22.518,0.044-33.775c1.323-1.806,0.479-3.873,0.703-5.812
				c0.153-1.327-0.36-2.776,0.76-3.915C58.519,146.715,58.196,164.475,59.162,182.216z"/>
			<path fill="#B9A2A4" d="M89.161,71.947c-0.001-0.245-0.002-0.489-0.001-0.734c-0.248-4.342-0.813-8.695-0.677-13.025
				c0.288-9.088,0.947-18.164,0.68-27.266c-0.037-1.303,0.132-2.51,1.44-3.205c0.753,20.99,0.878,41.986,0.715,62.985
				c-0.469,0.2-0.833,0.081-1.093-0.357c-0.63-2.572-0.163-5.189-0.309-7.781C89.56,79.032,90.717,75.394,89.161,71.947z"/>
			<path fill="#FFFFFF" d="M92.132,194.964c2.196,3.064,4.525,4.696,8.941,4.204c22.24-2.479,44.54-4.442,66.819-6.582
				c0.491-0.048,0.99-0.01,1.485-0.013c-0.239,0.773-0.481,1.547-0.724,2.318c-9.152,1.021-18.299,2.105-27.461,3.045
				c-11.886,1.217-23.785,2.313-35.679,3.472c-2.728,0.266-5.458,0.514-8.173,0.874c-1.82,0.241-2.576-1.303-3.815-2.032
				c-1.374-1.521-2.678-3.069-1.97-5.357C91.747,194.933,91.938,194.956,92.132,194.964z"/>
			<path fill="#D7B9B7" d="M90.636,82.497c0.018,2.736,0.035,5.473,0.054,8.208c0.767,4.389,0.144,8.816,0.355,13.221
				c0.063,1.343-0.23,2.708,0.252,4.024c0.009,14.263,0.019,28.524,0.026,42.787c-1.412-3.548-0.291-7.259-0.703-10.868
				c-0.139-1.219,0.611-2.844-1.366-3.316c-0.024-18.027-0.05-36.058-0.075-54.087C89.674,82.01,90.159,82.009,90.636,82.497z"/>
			<path fill="#C2A6A1" d="M91.297,107.95c-1.333-5.708-0.299-11.5-0.607-17.245c0.21-0.001,0.419-0.002,0.629-0.002
				C91.312,96.452,91.304,102.201,91.297,107.95z"/>
			<path fill="#C2A6A1" d="M90.636,82.497c-0.486-0.01-0.972-0.021-1.457-0.031c-0.006-3.506-0.012-7.012-0.018-10.519
				c1.673,0.351,1.493,1.678,1.496,2.883C90.665,77.385,90.645,79.941,90.636,82.497z"/>
		</g>
		<path d="M99.053,35.49l136.153,10.844c0,0,4.196,1.266,4.196,7.814s-0.814,125.171-0.814,125.171s2.475,8.499-11.29,7.767
			c-13.766-0.731-124.706,12.274-124.706,12.274s-12.962,2.742-11.68-11.792c1.282-14.533-0.063-144.678-0.063-144.678
			S90.776,34.9,99.053,35.49z"/>
		<polyline display="none" fill="#FFFFFF" points="185.25,72.032 193.467,72.354 193.801,80.021 197.217,80.354 197.551,84.187 
			200.135,84.187 200.135,72.354 207.967,72.521 207.967,80.437 204.635,80.437 204.551,84.521 201.135,84.521 201.217,92.271 
			204.885,92.271 204.967,96.354 208.801,96.354 208.801,108.687 200.801,108.687 200.467,96.354 196.885,96.104 196.885,92.187 
			193.967,92.104 194.635,107.964 186.217,107.957 185.801,95.937 189.467,96.021 189.385,92.021 192.885,92.021 192.801,84.104 
			189.217,84.021 189.051,80.104 185.385,79.937 185.25,72.032 		"/>
		<polyline display="none" fill="#FFFFFF" points="123.25,72.032 131.467,72.354 131.801,80.021 135.217,80.354 135.551,84.187 
			138.135,84.187 138.135,72.354 145.967,72.521 145.967,80.437 142.635,80.437 142.551,84.521 139.135,84.521 139.217,92.271 
			142.885,92.271 142.967,96.354 146.801,96.354 146.801,108.687 138.801,108.687 138.467,96.354 134.885,96.104 134.885,92.187 
			131.967,92.104 132.634,107.964 124.217,107.957 123.801,95.937 127.467,96.021 127.384,92.021 130.884,92.021 130.801,84.104 
			127.217,84.021 127.051,80.104 123.384,79.937 123.25,72.032 		"/>
		<path display="none" fill="#FFFFFF" d="M187.051,131.021l-38.974,1.832l0.453,9.459l16.687-0.791l0.5,14l4.084-0.168l0.334,4.584
			l13.527-0.75v-4.75h4.055L187.051,131.021z M170.842,150.52l-0.332-9.332l11.541-0.5l0.291,9.25L170.842,150.52z"/>
	</g>
</g>
<g id="Layer_2_1_">
	
		<image display="none" overflow="visible" width="269" height="236" id="Vector_Smart_Object_xA0_Image_2_" xlink:href="F05CCF02.png"  transform="matrix(1 0 0 1 0 0.9998)">
	</image>
	<g>
		<path fill="#FFFFFF" d="M123.066,123.587c-0.157,0.053-0.84,0.06-0.997,0.062c-0.631,0.007-1.732,0.118-1.749-0.79l-0.003-0.201
			c0.05-0.151,0.604-1.469,0.652-1.671c0.848-2.531,4.677-14.574,5.472-17.104l-0.013-0.706c-0.02-1.109-0.184-1.46-0.683-2.918
			c-0.495-1.204-2.7-6.93-3.247-8.185c-0.275-0.703-1.809-4.117-2.138-4.92c-0.275-0.703-0.757-1.152-0.771-1.958
			c-0.018-1.009,0.296-1.063,1.295-1.073c1.942-0.021,2.668,2.292,3.271,3.698c0.552,1.507,3.359,8.588,3.913,10.146l2.927-9.613
			c0.293-1.264,0.741-5.505,2.959-4.923c1.161,0.29,1.082,1.754,1.045,2.611l-2.894,8.553c-0.596,1.922-1.927,6.778-1.924,6.93
			l0.035,1.967c0.001,0.05,1.718,4.923,2.488,6.882c1.653,4.27,3.568,8.486,5.013,12.808c-0.405,0.861-0.718,1.016-1.453,1.023
			c-0.473,0.005-0.895-0.041-1.269-0.389l-0.326-0.603c-0.219-0.503-1.599-4.169-1.816-4.622c-1.21-3.013-2.37-6.127-3.581-9.19
			c-0.167-0.503-0.659-1.608-0.712-1.607L123.066,123.587z"/>
	</g>
	<g>
		<path fill="#FFFFFF" d="M160.267,131.885c6.14-0.227,34.898-0.756,41.061-0.771c1.13,0.489,1.255,3.133,1.389,4.399
			c1.159,10.976-5.064,19.151-12.739,19.435c-8.288,0.305-18.399-7.164-23.033-17.48c-1.239-0.062-7.271-0.264-8.498-0.218
			c-2.62-0.009-14.439,0.426-16.961,0.624c-0.834-0.605-1.231-2.18-1.343-3.234c-0.101-0.949-0.046-1.164,0.248-2.021
			L160.267,131.885z M172.063,137.065c0.078,0.74,0.332,1.684,0.771,2.197c4.715,5.971,9.775,9.387,15.915,9.161
			c3.991-0.147,10.792-4.317,10.023-11.599L172.063,137.065z"/>
	</g>
	<g>
		<path fill="#FFFFFF" d="M202.653,121.022c-0.138,0.047-0.739,0.057-0.878,0.059c-0.556,0.009-1.526,0.116-1.537-0.718
			l-0.003-0.186c0.044-0.14,0.538-1.353,0.582-1.538c0.756-2.33,4.175-13.411,4.885-15.74l-0.009-0.647
			c-0.014-1.02-0.156-1.342-0.591-2.68c-0.431-1.106-2.352-6.36-2.83-7.512c-0.24-0.645-1.577-3.775-1.864-4.513
			c-0.24-0.645-0.661-1.056-0.671-1.798c-0.013-0.927,0.265-0.977,1.144-0.99c1.713-0.026,2.342,2.097,2.868,3.386
			c0.48,1.384,2.927,7.881,3.409,9.311l2.613-8.845c0.263-1.164,0.674-5.063,2.626-4.536c1.021,0.263,0.946,1.608,0.91,2.396
			l-2.581,7.872c-0.532,1.77-1.724,6.238-1.722,6.376l0.023,1.807c0.001,0.046,1.495,4.519,2.167,6.317
			c1.439,3.917,3.11,7.784,4.366,11.751c-0.359,0.794-0.636,0.937-1.284,0.947c-0.416,0.006-0.786-0.035-1.115-0.354l-0.284-0.553
			c-0.191-0.46-1.394-3.825-1.583-4.239c-1.056-2.765-2.065-5.623-3.121-8.434c-0.145-0.461-0.573-1.475-0.62-1.474L202.653,121.022
			z"/>
	</g>
</g>
<g id="Layer_3_1_" display="none">
	<g display="inline">
		<path fill="#FFFFFF" d="M115.592,112.101c1.343,0.716,2.318,1.641,2.927,2.774c0.608,1.132,0.878,2.334,0.811,3.604
			c-0.068,1.271-0.443,2.473-1.128,3.606c-0.686,1.134-1.646,2.069-2.881,2.805c-1.236,0.737-2.71,1.122-4.424,1.156
			c-2.813,0.056-5.098-0.741-6.852-2.391c-1.755-1.647-2.743-4.073-2.963-7.274l-0.001-0.038c-0.001-0.062-0.002-0.123-0.003-0.185
			c-0.001-0.062-0.002-0.124-0.004-0.186c-0.016-0.085-0.025-0.178-0.027-0.277c0-0.012,0.006-0.025,0.021-0.038l0-0.019
			c-0.033-1.671-0.081-4.089-0.144-7.257c-0.042-2.117-0.085-4.086-0.128-5.912c-0.043-1.825-0.07-3.003-0.081-3.536
			c-0.004-0.198,0.225-0.351,0.687-0.459c0.462-0.108,0.986-0.171,1.571-0.189c0.586-0.018,1.112,0.019,1.578,0.108
			c0.466,0.09,0.702,0.234,0.706,0.431c0.001,0.05,0.002,0.112,0.004,0.186c1.146-0.555,2.418-0.846,3.819-0.874
			c1.742-0.035,3.242,0.273,4.498,0.923c1.256,0.65,2.251,1.505,2.987,2.568c0.736,1.062,1.198,2.223,1.387,3.481
			c0.189,1.259,0.089,2.499-0.301,3.719C117.259,110.051,116.572,111.142,115.592,112.101z M109.173,101.886
			c-0.543,0.011-1.101,0.133-1.675,0.368c-0.574,0.234-1.055,0.671-1.442,1.31c-0.387,0.639-0.605,1.553-0.653,2.743
			c0.003,0.148,0.006,0.297,0.009,0.445c0.027,1.374,0.055,2.791,0.084,4.25c0.771-0.003,1.507-0.012,2.207-0.025
			c0.214-0.004,0.421-0.008,0.621-0.012c1.428-0.065,2.553-0.41,3.376-1.032s1.373-1.382,1.648-2.28
			c0.274-0.896,0.292-1.788,0.054-2.675c-0.239-0.886-0.718-1.628-1.437-2.227C111.248,102.152,110.316,101.864,109.173,101.886z
			 M110.65,122.301c1-0.02,1.827-0.297,2.481-0.83c0.653-0.533,1.105-1.182,1.354-1.947c0.249-0.767,0.266-1.528,0.051-2.286
			c-0.215-0.757-0.692-1.388-1.431-1.893c-0.739-0.505-1.779-0.745-3.122-0.718c-1.214,0.024-2.686,0.053-4.413,0.087
			c0.008,0.409,0.016,0.811,0.024,1.207c0.029,1.485,0.278,2.699,0.747,3.643s1.083,1.641,1.842,2.09
			S109.765,122.318,110.65,122.301z"/>
		<path fill="#FFFFFF" d="M137.611,125.497c-2.1,0.042-3.576-0.894-4.428-2.809c-0.918,1.95-2.457,2.945-4.613,2.988
			c-1.485,0.029-2.758-0.221-3.819-0.751c-1.061-0.528-1.879-1.281-2.456-2.253c-0.577-0.973-0.877-2.103-0.903-3.39l-0.228-11.488
			c-0.006-0.271,0.218-0.484,0.672-0.635c0.454-0.152,0.982-0.233,1.582-0.245c0.585-0.012,1.108,0.062,1.568,0.22
			c0.461,0.157,0.694,0.41,0.701,0.757l0.202,10.17c0.021,1.077,0.167,1.904,0.435,2.48c0.478,1.042,1.209,1.554,2.195,1.534
			c0.629-0.012,1.21-0.234,1.745-0.666c1.153-0.927,1.803-3.105,1.949-6.537l-0.144-7.22c-0.006-0.334,0.221-0.577,0.683-0.729
			c0.46-0.151,0.984-0.233,1.57-0.245c0.586,0.001,1.112,0.059,1.579,0.173c0.466,0.114,0.701,0.283,0.706,0.505l0.066,3.36
			c0.102,5.123,0.181,8.011,0.236,8.666c0.147,1.694,0.572,2.533,1.272,2.52c0.313-0.006,0.643-0.341,0.986-1.004
			c0.633-1.226,1.241-2.989,1.824-5.29c0.137-0.3,0.556-0.457,1.256-0.471c0.328-0.007,0.644,0.03,0.945,0.111
			c0.416,0.115,0.628,0.316,0.634,0.601c0.006,0.296-0.138,1.049-0.427,2.255c-0.476,1.978-1.129,3.612-1.961,4.903
			C140.387,124.637,139.11,125.468,137.611,125.497z"/>
		<path fill="#FFFFFF" d="M150.287,135.679 M145.865,130.996 M146.416,125.36c-2.342,0.046-3.986-1.166-4.936-3.634
			c-0.482-1.24-0.738-2.634-0.769-4.181c-0.023-1.163,0.085-2.375,0.324-3.637c0.238-1.261,0.64-2.454,1.204-3.579
			c0.563-1.125,1.263-2.04,2.099-2.743c0.836-0.704,1.79-1.066,2.862-1.087c1.543-0.031,2.896,0.543,4.063,1.721
			c0.013-0.112,0.014-0.409,0.004-0.892c0.045-0.607,0.868-0.927,2.467-0.958c0.515-0.01,0.989,0.024,1.429,0.102
			c0.437,0.078,0.657,0.185,0.659,0.321l0.181,9.095l0.075,4.863c1.873-1.313,3.122-3.156,3.747-5.533
			c0.151-0.3,0.606-0.458,1.363-0.473c0.314-0.006,0.622,0.031,0.923,0.112c0.432,0.103,0.648,0.297,0.654,0.581l0.001,0.019
			c-0.138,0.993-0.48,2.102-1.026,3.326c-0.548,1.225-1.285,2.368-2.216,3.432c-0.929,1.064-2.052,1.863-3.37,2.397l0.027,1.373
			c-0.038,1.376-0.121,2.242-0.418,3.795c-0.298,1.553-0.751,2.595-1.182,3.465c0,0-1.137,2.374-4.295,2.437
			c-4.67,0.093-4.622-4.68-4.622-4.68c-0.015-0.693-0.013-1.528,0.204-2.511c0,0-0.271-0.48,1.281-0.482
			c1.551-0.002,1.547,0.619,1.547,0.619s-0.041,4.697,1.751,4.198c1.791-0.497,2.128-4.263,1.748-9.368
			c-0.041-0.555,0.055-0.765-0.52,0.048C151.677,123.504,150.406,125.281,146.416,125.36z M146.858,121.713
			c0.657-0.013,1.273-0.279,1.851-0.799c1.08-0.974,1.979-2.464,2.696-4.472l-0.009-0.445c-0.378-2.468-1.138-4.05-2.279-4.746
			c-0.463-0.275-0.838-0.41-1.123-0.404c-0.614,0.012-1.137,0.289-1.569,0.829c-0.433,0.541-0.762,1.222-0.988,2.044
			c-0.348,1.195-0.51,2.411-0.485,3.649c0.011,0.545,0.066,1.147,0.165,1.807s0.3,1.25,0.604,1.771
			C146.021,121.467,146.402,121.721,146.858,121.713z"/>
		<path fill="#FFFFFF" d="M168.205,124.927c-1.714,0.034-3.152-0.469-4.316-1.51l0.02,0.946c0.004,0.224-0.225,0.391-0.687,0.506
			c-0.462,0.114-0.986,0.177-1.572,0.188c-0.585,0.011-1.108-0.03-1.567-0.127c-0.459-0.096-0.69-0.243-0.694-0.441l-0.524-26.466
			c-0.011-0.544,0.741-0.832,2.255-0.862c0.586-0.011,1.108,0.028,1.567,0.118s0.689,0.203,0.692,0.339l0.253,12.77
			c0,0,0.011,0.032,0.022-0.009c0.707-2.465,2.829-4.263,4.8-4.302c1.257-0.025,2.325,0.353,3.206,1.135
			c0.879,0.78,1.567,1.804,2.063,3.068c0.573,1.499,0.877,3.083,0.909,4.754c0.025,1.262-0.101,2.496-0.376,3.702
			c0.966-0.266,1.671-0.713,2.116-1.341c0.444-0.628,0.785-1.464,1.021-2.508c0.138-0.3,0.563-0.457,1.277-0.471
			c0.314-0.006,0.622,0.031,0.923,0.112c0.418,0.115,0.629,0.315,0.635,0.6v0.037c-0.182,1.587-0.823,3.021-1.919,4.298
			c-1.097,1.279-2.835,2.053-5.216,2.323C171.949,123.839,170.32,124.886,168.205,124.927z M169.782,111.952
			c0,0-0.47-1.84-3.169-1.613c-0.863,0.072-3.067,1.736-2.695,5.885c-0.013,2.593,1.719,4.186,2.257,4.65
			c0.538,0.466,1.479,0.739,1.878,0.677c1.481-0.23,2.121-2.986,2.218-5.158C170.371,114.103,169.782,111.952,169.782,111.952z"/>
		<path fill="#FFFFFF" d="M182.795,124.638c-2.342,0.047-3.987-1.165-4.938-3.633c-0.481-1.241-0.737-2.635-0.769-4.182
			c-0.022-1.163,0.085-2.375,0.325-3.637c0.239-1.261,0.641-2.454,1.204-3.579c0.563-1.125,1.264-2.04,2.1-2.743
			s1.79-1.066,2.862-1.087c1.541-0.03,2.896,0.537,4.063,1.702l-0.019-0.928c-0.012-0.594,0.646-0.904,1.974-0.93
			c0.714-0.014,1.331,0.042,1.847,0.167c0.46,0.127,0.692,0.283,0.696,0.469l0.066,3.36c0.102,5.123,0.18,8.011,0.235,8.666
			c0.147,1.694,0.579,2.533,1.293,2.519c0.301-0.006,0.622-0.34,0.967-1.003c0.591-1.139,1.206-2.902,1.845-5.291
			c0.137-0.3,0.556-0.457,1.255-0.471c0.329-0.006,0.645,0.031,0.945,0.111c0.403,0.116,0.606,0.316,0.612,0.601
			c0.006,0.285-0.129,1.036-0.405,2.255c-0.448,1.914-1.102,3.549-1.96,4.903c-1.055,1.629-2.33,2.459-3.83,2.489
			c-2.171,0.043-3.67-0.948-4.495-2.975C187.167,123.518,185.209,124.591,182.795,124.638z M183.237,120.992
			c0.672-0.014,1.295-0.283,1.87-0.808c0.576-0.525,1.091-1.188,1.547-1.991c0.456-0.8,0.839-1.644,1.15-2.529l-0.004-0.186
			c-0.2-1.432-0.512-2.54-0.934-3.324c-0.424-0.784-0.869-1.319-1.34-1.607c-0.47-0.287-0.848-0.429-1.134-0.423
			c-1.186,0.023-2.046,0.981-2.579,2.874c-0.348,1.183-0.51,2.442-0.483,3.779c0.01,0.495,0.069,1.063,0.175,1.704
			c0.105,0.643,0.306,1.223,0.602,1.743S182.78,121.001,183.237,120.992z"/>
		<path fill="#FFFFFF" d="M198.499,124.328c-0.585,0.011-1.111-0.03-1.577-0.126c-0.467-0.097-0.702-0.243-0.706-0.441l-0.03-1.54
			c-0.064-3.218-0.105-5.649-0.122-7.295l-0.17-8.538c-0.006-0.322,0.21-0.558,0.65-0.709c0.439-0.152,0.923-0.232,1.452-0.243
			l0.535-0.011c0.329-0.006,0.723,0.054,1.183,0.181c0.46,0.128,0.693,0.314,0.698,0.562l0.059,2.969
			c1.378-2.503,3.047-3.773,5.004-3.813c1.898-0.038,3.214,0.729,3.945,2.298c0.538,1.178,0.828,2.819,0.869,4.922
			c0.02,0.953,0.006,2.042-0.043,3.268c-0.043,0.719-0.057,1.388-0.045,2.007c0.01,0.494,0.044,0.958,0.103,1.39
			c0.059,0.433,0.169,0.749,0.33,0.949c0.16,0.201,0.341,0.301,0.542,0.296c0.313-0.006,0.657-0.341,1.029-1.005
			c0.718-1.276,1.41-3.042,2.082-5.295c0.15-0.3,0.576-0.457,1.276-0.471c0.328-0.006,0.644,0.031,0.945,0.111
			c0.388,0.104,0.584,0.298,0.59,0.582c0.004,0.223-0.159,0.981-0.491,2.275c-0.517,2.015-1.185,3.65-2.003,4.904
			c-1.082,1.63-2.409,2.461-3.979,2.492c-1.229,0.024-2.206-0.265-2.933-0.869c-1.294-1.064-1.965-2.896-2.016-5.494l0.005-0.816
			c0.043-1.4,0.053-2.688,0.029-3.863c-0.08-2.61-0.455-3.909-1.127-3.896c-0.656,0.013-1.349,0.587-2.077,1.722
			c-0.727,1.135-1.366,2.556-1.918,4.262l0.146,8.538c0.005,0.224-0.221,0.392-0.676,0.506
			C199.605,124.254,199.085,124.316,198.499,124.328z"/>
		<path fill="#FFFFFF" d="M226.757,101.457L226.757,101.457c1.515,0.826,1.184,1.193,1.184,1.193l-3.825,5.632l-1.554,2.35
			c-0.679,1.118,0.022,3.637,0.022,3.637c0.438,1.936,0.945,3.4,1.521,4.399c0.578,0.996,1.116,1.49,1.615,1.48
			c0.543-0.011,1.018-0.228,1.424-0.65c0.405-0.423,0.759-0.958,1.062-1.609c0.301-0.649,0.556-1.332,0.763-2.048
			c0.207-0.716,0.391-1.379,0.551-1.988c0.109-0.238,0.396-0.386,0.858-0.445c0.464-0.058,0.907-0.03,1.331,0.085
			c0.423,0.115,0.631,0.328,0.623,0.638c-0.073,0.657-0.205,1.399-0.396,2.226c-0.19,0.827-0.448,1.668-0.775,2.522
			c-0.326,0.854-0.739,1.646-1.237,2.373c-0.501,0.728-1.104,1.322-1.809,1.781c-0.706,0.46-1.543,0.699-2.515,0.718
			c-1.114,0.022-2.063-0.2-2.843-0.667c-0.781-0.468-1.422-1.061-1.921-1.781c-0.501-0.72-0.895-1.469-1.182-2.242
			c-0.286-0.774-0.493-1.47-0.619-2.085l-0.021,0.019c-0.123,0.225-0.248,0.451-0.372,0.676l0.077,3.898
			c0.007,0.322,0.012,0.591,0.016,0.807c0.005,0.217,0.009,0.418,0.013,0.604c0.003,0.186,0.006,0.304,0.007,0.353
			c0.004,0.198-0.226,0.352-0.688,0.459c-0.463,0.109-0.986,0.166-1.571,0.17c-0.587,0.007-1.113-0.035-1.579-0.126
			c-0.466-0.089-0.701-0.233-0.705-0.432c0-0.013-0.001-0.037-0.001-0.074c-0.001-0.037-0.002-0.08-0.003-0.129
			s-0.002-0.093-0.003-0.13l-0.024-1.263c-0.007-0.334-0.03-1.528-0.071-3.582c-0.041-2.054-0.08-4.43-0.119-7.128
			c-0.066-3.315-0.128-6.418-0.185-9.307c-0.058-2.889-0.092-4.631-0.104-5.225c-0.003-0.161,0.224-0.283,0.679-0.367
			c0.457-0.083,0.98-0.131,1.573-0.143c0.592-0.012,1.117,0.018,1.577,0.089c0.458,0.072,0.689,0.181,0.692,0.33
			c0.015,0.755,0.049,2.456,0.101,5.104c0.053,2.648,0.109,5.494,0.169,8.538c0.455-0.851,0.953-1.665,1.495-2.444l4.745-6.502
			C224.732,101.171,225.058,100.674,226.757,101.457z"/>
	</g>
	<path display="inline" fill="#FFFFFF" d="M105.645,124.198c0,0.074,0,0.135,0,0.185c0,0.198-0.232,0.347-0.697,0.446
		c-0.464,0.099-0.989,0.145-1.575,0.139c-0.586-0.006-1.111-0.059-1.575-0.158c-0.464-0.099-0.696-0.247-0.696-0.445
		c0-0.531,0.003-1.711,0.011-3.536s0.011-3.796,0.011-5.913c0-3.168,0-5.587,0-7.258v-0.019c-0.015-0.012-0.021-0.025-0.021-0.037
		c0-0.099,0.007-0.192,0.021-0.278c0-0.062,0-0.124,0-0.186c0-0.063,0-0.124,0-0.186v-0.037"/>
	<path display="inline" fill="#FFFFFF" d="M125.148,122.002c-0.814,1.931-2.271,2.896-4.371,2.896c-1.5,0-2.793-0.805-3.879-2.413
		c-0.857-1.274-1.343-2.896-1.857-4.864c-0.314-1.2-0.472-1.949-0.472-2.246c0-0.285,0.007-0.489,0.422-0.613
		c0.3-0.086,0.614-0.13,0.942-0.13c0.7,0,1.122,0.148,1.265,0.446c0.629,2.29,1.271,4.041,1.929,5.253
		c0.357,0.656,0.693,0.984,1.006,0.984c0.701,0,1.107-0.848,1.222-2.543"/>
</g>
</svg>
