<?xml version="1.0" encoding="utf-8"?>
<!-- Generator: Adobe Illustrator 16.0.0, SVG Export Plug-In . SVG Version: 6.00 Build 0)  -->
<!DOCTYPE svg PUBLIC "-//W3C//DTD SVG 1.1//EN" "http://www.w3.org/Graphics/SVG/1.1/DTD/svg11.dtd">
<svg version="1.1" id="Layer_1" xmlns="http://www.w3.org/2000/svg" xmlns:xlink="http://www.w3.org/1999/xlink" x="0px" y="0px"
	 width="619.125px" height="619.563px" viewBox="0 0 619.125 619.563" enable-background="new 0 0 619.125 619.563"
	 xml:space="preserve">
<g>
	<g>
		<path fill-rule="evenodd" clip-rule="evenodd" fill="#FF2E42" d="M600.424,284.115c-58.654-25.254-117.122-50.938-175.81-76.102
			c-7.053-3.025-11.011-7.323-13.977-14.234c-24.806-57.776-50.003-115.384-74.979-173.089
			c-4.404-10.175-10.287-18.378-22.182-20.265c-13.462-2.136-22.881,3.744-29.475,18.872
			c-25.638,58.807-51.09,117.699-77.048,176.366c-2.045,4.623-6.791,9.29-11.43,11.336c-58.42,25.786-117.017,51.17-175.653,76.459
			c-11.476,4.95-19.702,12.115-19.869,25.405c-0.172,13.714,7.992,21.117,19.943,26.261c58.654,25.249,117.22,50.713,175.622,76.533
			c4.642,2.054,9.388,6.721,11.433,11.345c25.952,58.668,51.275,117.617,77.221,176.287c2.683,6.063,7.358,12.381,12.837,15.85
			c13.918,8.811,30.014,2.107,37.234-14.455c25.631-58.813,51.257-117.628,76.629-176.55c2.853-6.625,6.899-10.518,13.577-13.383
			c58.682-25.182,117.17-50.811,175.793-76.127c11.334-4.896,18.309-12.5,18.711-25.24
			C618.547,296.751,611.896,289.054,600.424,284.115z M481.31,177.278c0.311,0.057,0.628,0.336,0.905,0.291
			c3.299-0.537,7.755,0.063,9.711-1.864c33.707-33.198,67.455-66.371,100.277-100.432c0,0,9.697-12.396,11.705-27.399
			c-0.063-15.367-9.689-30.258-24.133-36.228c-15.637-6.467-30.547-4.444-42.613,7.484c-32.734,32.357-64.997,65.198-97.29,98.001
			c-1.643,1.663-3.219,5.269-2.517,7.074C446.106,146.699,451.749,171.968,481.31,177.278z M120.752,177.441
			c2.036,1.991,6.958,3.06,9.622,2.076c32.42-11.974,32.374-12.095,45.799-43.742c0.496-1.175,0.844-2.438,1.497-3.519
			c2.529-4.189,1.636-7.221-1.925-10.747c-31.813-31.501-63.078-63.568-95.362-94.574c0,0-8.744-7.853-27.328-11.911
			c-15.597-0.097-30.831,9.849-36.799,24.8c-6.302,15.772-3.585,30.445,8.359,42.456C56.406,114.256,88.502,145.929,120.752,177.441
			z M497.619,442.56c-1.842-1.817-6.397-2.663-8.904-1.768c-33.437,11.954-33.399,12.052-47.447,44.662
			c-0.505,1.173-1.586,2.375-1.481,3.477c0.269,2.784,0.111,6.455,1.774,8.138c32.17,32.494,64.362,64.974,97.053,96.945
			c11.516,11.266,25.939,13.799,40.852,7.211c15.385-6.793,23.33-19.275,24.855-41.098c-2.559-5.021-5.307-15.578-11.898-22.455
			C561.451,505.361,529.484,474.001,497.619,442.56z M137.67,445.32c-4.115-1.739-8.1-4.25-12.384-4.974
			c-3.366-0.568-8.347-0.192-10.494,1.918c-30.112,29.552-59.886,59.449-89.679,89.324c-7.774,7.799-12.002,17.199-11.855,33.193
			c0.028,10.785,9.339,25.152,23.913,31.443c15.446,6.67,29.888,4.004,41.638-7.49c31.761-31.068,63.034-62.633,94.25-94.246
			c1.848-1.869,2.785-6.335,1.956-8.882C165.747,457.106,165.633,457.144,137.67,445.32z"/>
	</g>
</g>
</svg>
