<?xml version="1.0" encoding="utf-8"?>
<!-- Generator: Adobe Illustrator 16.0.0, SVG Export Plug-In . SVG Version: 6.00 Build 0)  -->
<!DOCTYPE svg PUBLIC "-//W3C//DTD SVG 1.1//EN" "http://www.w3.org/Graphics/SVG/1.1/DTD/svg11.dtd">
<svg version="1.1" id="Layer_1" xmlns="http://www.w3.org/2000/svg" xmlns:xlink="http://www.w3.org/1999/xlink" x="0px" y="0px"
	 width="36.388px" height="39.002px" viewBox="0 0 36.388 39.002" enable-background="new 0 0 36.388 39.002" xml:space="preserve">
<g id="Shape_7">
	<g>
		<path fill-rule="evenodd" clip-rule="evenodd" fill="#898594" d="M15.716,0.315C9.005,2.683,6.025,6.71,5.816,14.112
			c-0.087,3.076-0.364,6.157-0.763,9.209c-0.323,2.473-1.271,4.663-3.797,5.782c-1.287,0.572-1.439,1.895-1.104,2.973
			c0.152,0.488,1.347,0.908,2.07,0.912l15.97,0.008l0-32.996C17.271,0.007,15.716,0.315,15.716,0.315z M35.132,29.104
			c-2.525-1.119-3.474-3.31-3.797-5.782c-0.398-3.052-0.676-6.133-0.763-9.209c-0.209-7.402-3.188-11.43-9.899-13.797
			c0,0-1.555-0.309-2.479-0.315l0.001,32.996l15.97-0.008c0.724-0.004,1.918-0.424,2.07-0.912
			C36.571,30.998,36.419,29.676,35.132,29.104z M11.576,32.996c0,0,0.396,6.006,6.263,6.006s6.262-6.006,6.262-6.006h-5.905h-0.001
			H11.576z"/>
	</g>
</g>
</svg>
