<?xml version="1.0" encoding="utf-8"?>
<!-- Generator: Adobe Illustrator 16.0.0, SVG Export Plug-In . SVG Version: 6.00 Build 0)  -->
<!DOCTYPE svg PUBLIC "-//W3C//DTD SVG 1.1//EN" "http://www.w3.org/Graphics/SVG/1.1/DTD/svg11.dtd">
<svg version="1.1" id="Layer_1" xmlns="http://www.w3.org/2000/svg" xmlns:xlink="http://www.w3.org/1999/xlink" x="0px" y="0px"
	 width="40.001px" height="39.999px" viewBox="0 0 40.001 39.999" enable-background="new 0 0 40.001 39.999" xml:space="preserve">
<g id="Options">
	<g>
		<path fill="#898594" d="M38.603,16.855c-1.342-0.445-2.681-0.898-4.025-1.337c-0.212-0.068-0.319-0.187-0.396-0.39
			c-0.21-0.559-0.419-1.12-0.677-1.657c-0.128-0.266-0.109-0.463,0.017-0.71c0.632-1.235,1.254-2.475,1.866-3.718
			c0.396-0.804,0.236-1.7-0.392-2.33c-0.565-0.567-1.13-1.137-1.699-1.7c-0.646-0.64-1.572-0.792-2.361-0.396
			c-1.269,0.637-2.534,1.281-3.811,1.904c-0.134,0.065-0.343,0.06-0.486,0.006c-0.591-0.221-1.165-0.482-1.754-0.707
			C24.67,5.74,24.55,5.633,24.477,5.404c-0.435-1.346-0.887-2.687-1.336-4.027C22.863,0.55,22.089-0.001,21.216,0
			c-0.814,0.001-1.628-0.001-2.442,0.001c-0.877,0.001-1.637,0.555-1.915,1.39c-0.447,1.341-0.899,2.681-1.337,4.025
			c-0.068,0.21-0.178,0.325-0.384,0.402c-0.589,0.224-1.164,0.482-1.756,0.699c-0.153,0.056-0.374,0.066-0.515-0.002
			c-1.249-0.604-2.486-1.231-3.728-1.85C8.201,4.198,7.33,4.361,6.601,5.117C6.106,5.63,5.603,6.134,5.089,6.628
			c-0.718,0.689-0.887,1.597-0.44,2.488c0.626,1.249,1.259,2.495,1.869,3.753c0.069,0.143,0.062,0.365,0.005,0.52
			c-0.216,0.579-0.48,1.141-0.698,1.72c-0.086,0.23-0.215,0.347-0.445,0.422c-1.334,0.434-2.662,0.884-3.993,1.327
			c-0.826,0.275-1.383,1.045-1.385,1.92C0,19.591,0,20.405,0.001,21.219c0.002,0.895,0.554,1.641,1.415,1.928
			c1.33,0.442,2.658,0.896,3.992,1.329c0.228,0.073,0.335,0.196,0.415,0.411c0.21,0.559,0.423,1.118,0.682,1.655
			c0.124,0.256,0.102,0.443-0.019,0.68c-0.63,1.235-1.252,2.475-1.866,3.719c-0.408,0.825-0.234,1.74,0.42,2.38
			c0.549,0.537,1.089,1.083,1.63,1.628c0.69,0.695,1.591,0.836,2.469,0.392c1.248-0.63,2.496-1.259,3.752-1.874
			c0.119-0.058,0.303-0.064,0.428-0.017c0.63,0.239,1.254,0.496,1.87,0.771c0.13,0.058,0.268,0.197,0.313,0.33
			c0.462,1.348,0.906,2.701,1.355,4.054c0.283,0.85,1.043,1.395,1.945,1.395c0.792,0,1.583,0,2.375,0.001
			c0.933,0,1.673-0.528,1.967-1.407c0.448-1.341,0.889-2.685,1.353-4.021c0.052-0.149,0.21-0.304,0.356-0.371
			c0.584-0.265,1.179-0.507,1.778-0.73c0.146-0.055,0.354-0.062,0.489,0.004c1.166,0.568,2.317,1.168,3.484,1.737l1.226,0.376
			c0.632,0.022,1.127-0.254,1.557-0.693c0.498-0.51,0.998-1.018,1.513-1.51c0.734-0.701,0.902-1.592,0.442-2.514
			c-0.618-1.241-1.235-2.482-1.863-3.719c-0.101-0.198-0.098-0.356-0.007-0.561c0.254-0.564,0.486-1.14,0.708-1.718
			c0.077-0.202,0.181-0.323,0.394-0.393c1.345-0.438,2.684-0.891,4.025-1.337c0.849-0.282,1.399-1.04,1.4-1.938
			c0.001-0.813,0.002-1.628,0-2.441C39.998,17.895,39.436,17.132,38.603,16.855z M19.764,28.3c-4.302-0.106-8.242-3.709-8.058-8.654
			c0.158-4.259,3.68-7.95,8.299-7.941c4.59-0.022,8.255,3.743,8.299,8.214C28.349,24.511,24.57,28.418,19.764,28.3z"/>
	</g>
</g>
</svg>
